<?xml version="1.0" encoding="UTF-8" standalone="no"?>
<svg
   xmlns:dc="http://purl.org/dc/elements/1.1/"
   xmlns:cc="http://creativecommons.org/ns#"
   xmlns:rdf="http://www.w3.org/1999/02/22-rdf-syntax-ns#"
   xmlns:svg="http://www.w3.org/2000/svg"
   xmlns="http://www.w3.org/2000/svg"
   xmlns:sodipodi="http://sodipodi.sourceforge.net/DTD/sodipodi-0.dtd"
   xmlns:inkscape="http://www.inkscape.org/namespaces/inkscape"
   width="500"
   viewBox="0 0 500 874.33124"
   id="svg4383"
   version="1.1"
   inkscape:version="0.91 r13725"
   sodipodi:docname="space-rocket3.svg"
   height="874.33124">
  <metadata
     id="metadata4441">
    <rdf:RDF>
      <cc:Work
         rdf:about="">
        <dc:format>image/svg+xml</dc:format>
        <dc:type
           rdf:resource="http://purl.org/dc/dcmitype/StillImage" />
        <dc:title></dc:title>
      </cc:Work>
    </rdf:RDF>
  </metadata>
  <defs
     id="defs4439" />
  <sodipodi:namedview
     pagecolor="#ffffff"
     bordercolor="#666666"
     borderopacity="1"
     objecttolerance="10"
     gridtolerance="10"
     guidetolerance="10"
     inkscape:pageopacity="0"
     inkscape:pageshadow="2"
     inkscape:window-width="1251"
     inkscape:window-height="876"
     id="namedview4437"
     showgrid="false"
     inkscape:zoom="0.51657751"
     inkscape:cx="213.4667"
     inkscape:cy="373.11326"
     inkscape:window-x="0"
     inkscape:window-y="0"
     inkscape:window-maximized="0"
     inkscape:current-layer="svg4383"
     fit-margin-top="0"
     fit-margin-left="0"
     fit-margin-right="0"
     fit-margin-bottom="0" />
  <g
     transform="matrix(1.1714473,0,0,1.1714473,678.69113,314.93002)"
     id="g4385">
    <path
       d="m -367.54,-263.72 c -30.791,24.506 -267.46,229.9 -88.188,623.22 l 179.25,0 c 179.27,-393.32 -57.396,-598.68 -88.188,-623.19 l -2.875,-0.0312 z"
       id="path4387"
       inkscape:connector-curvature="0"
       style="fill:#ececec;fill-rule:evenodd;stroke:#000000;stroke-width:10" />
    <path
       d="m -360.12,-9.075 c -37.293,0 -67.625,30.363 -67.625,67.656 0,37.293 30.332,67.625 67.625,67.625 37.293,0 67.656,-30.332 67.656,-67.625 0,-37.293 -30.363,-67.656 -67.656,-67.656 z m 0,8 c 32.965,0 59.656,26.691 59.656,59.656 0,32.965 -26.691,59.625 -59.656,59.625 -32.965,0 -59.625,-26.66 -59.625,-59.625 0,-32.965 26.66,-59.656 59.625,-59.656 z"
       id="path4389"
       inkscape:connector-curvature="0"
       style="fill:#cccccc" />
    <path
       d="m -486.89,-102.24 43.437,-79.802 60.609,-68.69 17.173,-13.132 64.65,67.68 50.508,81.822 4.0406,17.173 -241.43,-1.0102"
       id="path4391"
       inkscape:connector-curvature="0"
       style="fill:#ff0000;fill-rule:evenodd;stroke:#000000" />
    <path
       d="m -511.14,201.81 c 0,0 -107.08,-1.3336 -42.426,270.72 0,0 6.0609,-227.16 62.629,-199.15"
       id="path4393"
       inkscape:connector-curvature="0"
       style="fill:#ff0000;fill-rule:evenodd;stroke:#000000;stroke-width:10" />
    <path
       d="m -220.76,201.81 c 0,0 107.08,-1.3336 42.426,270.72 0,0 -6.0609,-227.16 -62.629,-199.15"
       id="path4395"
       inkscape:connector-curvature="0"
       style="fill:#ff0000;fill-rule:evenodd;stroke:#000000;stroke-width:10" />
    <path
       d="m -481.84,303.84 26.264,55.558 179.81,-1.0102 21.213,-54.548 -227.28,0 z"
       id="path4397"
       inkscape:connector-curvature="0"
       style="fill:#b3b3b3;fill-rule:evenodd;stroke:#000000" />
    <path
       d="m -195.97,229.09 -20.203,50.508 -12.122,-10.102 -14.142,6.0609 19.193,-75.761 34.345,17.173 c 0,0 59.599,41.416 13.132,247.49 27.274,-213.14 -21.213,-235.37 -20.203,-235.37 z"
       id="path4399"
       inkscape:connector-curvature="0"
       style="fill:#d20000;fill-rule:evenodd" />
    <path
       d="m -556.59,469.5 c 0,0 -10.061,-220.37 58.589,-221.22 7.5756,-0.0943 7.0711,24.244 7.0711,24.244 l -27.274,6.0609 -21.213,66.67 -17.173,124.25 z"
       id="path4401"
       inkscape:connector-curvature="0"
       style="fill:#d20000;fill-rule:evenodd" />
    <path
       d="m -320.44,303.84 c 4.0529,12.21 6.448,29.248 5.2812,53.531 0.8622,0.30381 1.7754,0.73001 2.7188,1.2188 l 36.656,-0.21875 17.094,-43.938 c -0.68954,-3.7542 -1.4863,-7.1048 -2.25,-10.594 l -59.5,0 z"
       id="path4403"
       inkscape:connector-curvature="0"
       style="fill:#999999;fill-rule:evenodd" />
    <path
       d="m -346.47,197.2 c -6.8185,-0.50507 -11.125,0.5625 -11.125,0.5625 l -5.0625,77.781 c 0,0 24.335,-4.8054 35.812,28.312 l 59.625,0 c -19.366,-90.309 -59.667,-105.21 -79.25,-106.66 z"
       id="path4405"
       inkscape:connector-curvature="0"
       style="fill:#cccccc;fill-rule:evenodd" />
    <path
       d="m -479,308.36 20,50 28,2 -8,-57 -40,5 z"
       id="path4407"
       inkscape:connector-curvature="0"
       style="fill:#cccccc;fill-rule:evenodd" />
    <path
       d="m -367.54,-263.72 c -30.791,24.506 -267.46,229.9 -88.188,623.22 l 179.25,0 c 179.27,-393.32 -57.396,-598.68 -88.188,-623.19 l -2.875,-0.0312 z"
       id="path4409"
       inkscape:connector-curvature="0"
       style="fill:none;stroke:#000000;stroke-width:10" />
    <path
       d="m -486.89,-100.22 237.39,0"
       id="path4411"
       inkscape:connector-curvature="0"
       style="fill:none;stroke:#000000;stroke-width:10" />
    <path
       transform="translate(-69.118,-17.919)"
       d="m -233.35,70.494 a 63.64,63.64 0 1 1 -127.28,0 63.64,63.64 0 1 1 127.28,0 z"
       id="path4413"
       inkscape:connector-curvature="0"
       style="fill:#b3b3b3;stroke:#000000;stroke-width:8;stroke-linecap:round" />
    <path
       transform="matrix(0.65079,0,0,0.65079,-172.83,6.6981)"
       d="m -233.35,70.494 a 63.64,63.64 0 1 1 -127.28,0 63.64,63.64 0 1 1 127.28,0 z"
       id="path4415"
       inkscape:connector-curvature="0"
       style="fill:#80e5ff;stroke:#000000;stroke-width:12.29300022;stroke-linecap:round" />
    <path
       d="m -478.81,304.85 224.25,0"
       id="path4417"
       inkscape:connector-curvature="0"
       style="fill:none;stroke:#000000;stroke-width:10" />
    <path
       d="m -375.19,199.79 18.183,0 0,272.74 -18.183,0 0,-272.74 z"
       id="path4419"
       inkscape:connector-curvature="0"
       style="fill:#ff0000;stroke:#000000;stroke-width:10;stroke-linecap:round" />
    <path
       d="m -264.66,291.72 c 0,0 80.812,-185.87 16.162,-364.67 3.0305,317.19 -83.843,364.67 -83.843,364.67 l 67.68,0 z"
       id="path4421"
       inkscape:connector-curvature="0"
       style="fill:#cccccc;fill-rule:evenodd" />
    <path
       transform="matrix(0.70389,0.7103,-0.70389,0.7103,0,0)"
       d="m -240.61,254.63 34.47,0 0,83.714 -34.47,0 z"
       id="path4423"
       inkscape:connector-curvature="0"
       style="fill:#ffffff" />
    <path
       transform="matrix(0.65079,0,0,0.65079,-172.83,6.6981)"
       d="m -233.35,70.494 a 63.64,63.64 0 1 1 -127.28,0 63.64,63.64 0 1 1 127.28,0 z"
       id="path4425"
       inkscape:connector-curvature="0"
       style="fill:none;stroke:#000000;stroke-width:12.29300022;stroke-linecap:round" />
    <path
       d="m -273.75,-115.37 c 0,0 -31.315,-81.822 -90.914,-125.26 54.548,105.06 26.264,125.26 26.264,125.26 l 64.65,-10e-6 z"
       id="path4427"
       inkscape:connector-curvature="0"
       style="fill:#d20000;fill-rule:evenodd" />
    <path
       d="m -220.76,201.81 c 0,0 107.08,-1.3336 42.426,270.72 0,0 -6.0609,-227.16 -62.629,-199.15"
       id="path4429"
       inkscape:connector-curvature="0"
       style="fill:none;stroke:#000000;stroke-width:10" />
    <path
       d="m -511.14,201.81 c 0,0 -107.08,-1.3336 -42.426,270.72 0,0 6.0609,-227.16 62.629,-199.15"
       id="path4431"
       inkscape:connector-curvature="0"
       style="fill:none;stroke:#000000;stroke-width:10" />
    <path
       d="m -472.75,-118.4 c 0,0 53.538,-104.05 97.985,-131.32 44.447,-27.27 -96.975,133.34 -97.985,131.32 z"
       id="path4433"
       inkscape:connector-curvature="0"
       style="fill:#ffffff;fill-rule:evenodd" />
    <path
       d="m -504.29,158.08 c -3.1638,-1.7567 -22.724,-145.96 25.714,-235.71 29.867,-24.039 70.502,-11.397 68.571,-1.4286 -16.727,86.351 -75.469,247.59 -94.286,237.14 z"
       id="path4435"
       inkscape:connector-curvature="0"
       style="fill:#ffffff;fill-rule:evenodd" />
  </g>
</svg>
