<?xml version="1.0" encoding="iso-8859-1"?>
<!-- Generator: Adobe Illustrator 19.0.0, SVG Export Plug-In . SVG Version: 6.00 Build 0)  -->
<svg version="1.1" id="Capa_1" xmlns="http://www.w3.org/2000/svg" xmlns:xlink="http://www.w3.org/1999/xlink" x="0px" y="0px"
	 viewBox="0 0 490.76 490.76" style="enable-background:new 0 0 490.76 490.76;" xml:space="preserve">
<g>
	<g>
		<path d="M277.38,32v16c26.472,0,48,21.528,48,48s-21.528,48-48,48v16c35.288,0,64-28.712,64-64
			C341.38,60.712,312.668,32,277.38,32z"/>
	</g>
</g>
<g>
	<g>
		<path d="M277.38,0v16c44.112,0,80,35.888,80,80s-35.888,80-80,80v16c52.936,0,96-43.064,96-96C373.38,43.064,330.316,0,277.38,0z"
			/>
	</g>
</g>
<g>
	<g>
		<path d="M213.38,48V32c-35.288,0-64,28.712-64,64c0,35.288,28.712,64,64,64v-16c-26.472,0-48-21.528-48-48S186.908,48,213.38,48z"
			/>
	</g>
</g>
<g>
	<g>
		<path d="M213.38,16V0c-52.936,0-96,43.064-96,96s43.064,96,96,96v-16c-44.112,0-80-35.888-80-80S169.268,16,213.38,16z"/>
	</g>
</g>
<g>
	<g>
		<rect x="173.38" y="304" width="16" height="16"/>
	</g>
</g>
<g>
	<g>
		<rect x="205.38" y="304" width="16" height="16"/>
	</g>
</g>
<g>
	<g>
		<rect x="237.38" y="304" width="16" height="16"/>
	</g>
</g>
<g>
	<g>
		<rect x="269.38" y="304" width="16" height="16"/>
	</g>
</g>
<g>
	<g>
		<rect x="301.38" y="304" width="16" height="16"/>
	</g>
</g>
<g>
	<g>
		<path d="M397.204,305.808C393.972,251.336,348.644,208,293.38,208c-13.984,0-27.512,2.912-40,8.136v-89.272
			c13.768-3.576,24-16,24-30.864c0-17.648-14.352-32-32-32s-32,14.352-32,32c0,14.864,10.232,27.288,24,30.864v97.752
			c-12.216,7.832-22.92,18.072-31.064,30.528C195.972,250.456,184.732,248,173.38,248c-41.568,0-75.832,31.864-79.648,72.456
			C62.036,324.24,37.38,351.296,37.38,384c0,35.288,28.712,64,64,64h22.144l-13.656,37.24l15.016,5.512L140.564,448h209.632
			l15.68,42.76l15.016-5.512L367.236,448h14.144c39.704,0,72-32.296,72-72C453.38,342.128,429.668,313.088,397.204,305.808z
			 M229.38,96c0-8.824,7.176-16,16-16c8.824,0,16,7.176,16,16s-7.176,16-16,16C236.556,112,229.38,104.824,229.38,96z
			 M226.836,386.44l-77.24,36.944l23.048-62.864L226.836,386.44z M191.924,352h106.904l-53.448,25.568L191.924,352z M168.652,432
			l76.728-36.696L322.108,432H168.652z M263.924,386.432l54.192-25.92l23.048,62.856L263.924,386.432z M381.38,432h-20.016l-35.2-96
			H164.588l-35.2,96H101.38c-26.472,0-48-21.528-48-48s21.528-48,48-48h8v-8c0-35.288,28.712-64,64-64
			c11.16,0,22.192,2.976,31.92,8.592l7.064,4.088l3.944-7.144C231.828,241.448,261.356,224,293.38,224c48.52,0,88,39.48,87.976,88.2
			l-0.32,7.368l7.32,0.912c27.944,3.488,49.024,27.352,49.024,55.52C437.38,406.872,412.252,432,381.38,432z"/>
	</g>
</g>
<g>
	<g>
		<path d="M293.38,240v16c30.872,0,56,25.128,56,56h16C365.38,272.296,333.084,240,293.38,240z"/>
	</g>
</g>
<g>
</g>
<g>
</g>
<g>
</g>
<g>
</g>
<g>
</g>
<g>
</g>
<g>
</g>
<g>
</g>
<g>
</g>
<g>
</g>
<g>
</g>
<g>
</g>
<g>
</g>
<g>
</g>
<g>
</g>
</svg>
