<svg height="329.1268" viewBox="0 0 391.07483 329.1268" width="391.07483" xmlns="http://www.w3.org/2000/svg" xmlns:xlink="http://www.w3.org/1999/xlink"><clipPath id="a"><path d="m0 0v334h334v-334z"/></clipPath><pattern id="b" height="33.333" patternTransform="matrix(13.7077 0 0 13.7077 436 -244)" patternUnits="userSpaceOnUse" width="33.333"><g clip-path="url(#a)" transform="scale(.1)"><path d="m333.328 0h-333.328v333.328h333.328z" fill="#234e9b"/></g></pattern><g transform="matrix(.13333333 0 0 -.13333333 -18.393182 388.80799)"><path d="m3041.77 2482.18c-29.4 100.59-60.84 363.88-462.61 393.57 0 0-402.71 40.31-974.66 40.31-572.86 0-974.695-40.31-974.695-40.31-401.739-29.69-433.242-292.98-462.657-393.57-29.511-100.59-29.199-800.35-29.199-800.35s-.312-699.689 29.199-800.26c29.415-100.64 60.918-363.961 462.657-393.648 0 0 401.835-40.313 974.695-40.313 565.12 0 974.66 40.313 974.66 40.313 401.77 29.687 433.21 293.008 462.61 393.648 29.51 100.571 29.24 800.26 29.24 800.26s.27 699.76-29.24 800.35" fill="url(#b)"/><path d="m457.305 1879.71s-10.008-732.2 705.445-1005.151c0 0 746.99-311.778 1226.68 413.751 27.48 41.56 32.86 60.44 45.36 81.96 23.23 39.97 38.34 97.3 74.34 122.81 35.96 25.54 95.04 47.63 160.24 15.27 65.03-32.31 125.19-131.37 44.46-257.21-73.3-114.29-359.04-576.351-963.51-635.64-641.92-63.012-1324.312 513.81-1293.015 1264.21" fill="#b7dd17"/><g fill="#fff"><path d="m939.641 1650.58h-27.688v178.66h-54.57v27.6h136.562v-27.6h-54.304z"/><path d="m1009.86 1748.98c1.92-.48 3.91-.91 5.95-1.28 3.65-.63 8.11-1.18 13.43-1.7 5.33-.51 11.51-.79 18.39-.79 6.33 0 11.43.61 15.14 1.8 3.43 1.08 5.9 2.45 7.4 4.08 1.64 1.79 2.73 3.9 3.27 6.32.78 3.12 1.15 6.55 1.15 10.44 0 3.24-.48 6.42-1.42 9.47-.87 2.78-2.33 5.24-4.44 7.46-2.17 2.27-5.15 4.16-8.82 5.6-3.87 1.51-8.93 2.29-15.07 2.29-6.03 0-11.14-1.21-15.2-3.61-4.15-2.4-7.72-5.8-10.63-10.15-3.02-4.52-5.32-9.75-6.82-15.63-1.15-4.6-1.94-9.4-2.33-14.3zm36.62-100.3c-21.07 0-37.4 7.7-48.492 22.88-10.683 14.56-16.093 35.73-16.093 62.92 0 26.36 5.546 47.26 16.496 62.12 11.379 15.5 26.999 23.36 46.449 23.36 9.93 0 18.64-1.57 25.88-4.69 7.23-3.14 13.23-7.3 17.85-12.32 4.61-5.06 8-10.82 10.1-17.18 2.03-6.04 3.06-12.08 3.06-17.92 0-6.01-.68-12.09-2.02-18.03-1.51-6.3-4.35-11.83-8.44-16.49-4.12-4.65-9.59-8.26-16.78-11.09-6.89-2.67-15.49-3.97-26.29-3.97-8.18 0-15.31.33-21.23.99-5.35.58-10.33 1.37-14.82 2.33l-2.55.56c1.01-13.74 4.35-24.62 9.99-32.37 6.37-8.86 15.45-13.16 27.73-13.16 6.96 0 12.78 1.11 17.3 3.31 4.76 2.33 9.64 6.28 14.48 11.77l7.01 7.92 11.68-28.34-3.18-3.12c-6.47-6.3-13.41-11.16-20.66-14.42-7.5-3.41-16.49-5.06-27.47-5.06"/><path d="m1186.89 1648.68c-22.58 0-39.63 7.81-50.69 23.26-10.51 14.82-15.83 35.85-15.83 62.54 0 26.7 5.33 47.69 15.83 62.34 11.07 15.37 28.12 23.14 50.69 23.14 8.82 0 16.68-1.41 23.38-4.22 6.6-2.76 12.43-6.31 17.34-10.53l3.64-3.12-11.66-27.81-6.95 7.28c-3.07 3.21-6.64 5.8-10.92 7.95-4.11 2.13-8.94 3.16-14.83 3.16-13.81 0-23.38-4.47-29.21-13.65-6.38-9.92-9.61-24.9-9.61-44.54 0-19.65 3.23-34.62 9.59-44.53 5.85-9.2 15.41-13.67 29.23-13.67 5.9 0 10.72 1.02 14.73 3.12 4.43 2.25 8.01 4.85 11.02 8l6.95 7.31 11.66-27.88-3.66-3.13c-4.97-4.25-10.77-7.83-17.24-10.64-6.71-2.91-14.6-4.38-23.46-4.38"/><path d="m1368.95 1650.58h-27.71v102.49c0 13.32-2.82 23.44-8.4 30.11-5.38 6.38-12.47 9.49-21.65 9.49-9.41 0-16.6-3.11-21.97-9.51-5.57-6.67-8.39-16.79-8.39-30.09v-102.49h-27.71v227.12h27.71v-66.88c1.51 1.13 3.1 2.19 4.75 3.14 7.06 4.01 15.66 6 25.61 6 8.44 0 16.33-1.58 23.43-4.71 7.08-3.18 13.25-7.63 18.39-13.3 5.15-5.67 9.16-12.58 11.9-20.54 2.69-7.89 4.04-16.66 4.04-26.1z"/><path d="m1510.52 1650.58h-27.69v102.49c0 13.52-2.75 23.37-8.41 30.11-5.38 6.38-12.56 9.49-21.94 9.49-9.37 0-16.54-3.11-21.92-9.51-5.61-6.66-8.45-16.79-8.45-30.09v-102.49h-27.72v104.73c0 18.99 4.99 34.61 14.8 46.41 10.07 12.12 24.63 18.24 43.29 18.24 8.42 0 16.33-1.57 23.51-4.69 7.24-3.18 13.5-7.67 18.61-13.34 5.13-5.62 9.14-12.54 11.9-20.52 2.71-7.93 4.02-16.46 4.02-26.1z"/><path d="m1594.35 1792.67c-11.77 0-19.76-4.27-25.14-13.43-5.93-10.04-8.94-25.09-8.94-44.76 0-19.69 3.01-34.72 8.93-44.72 5.38-9.2 13.36-13.48 25.15-13.48 11.76 0 19.69 4.26 24.96 13.41 5.85 10.03 8.82 25.09 8.82 44.79s-2.97 34.77-8.8 44.78c-5.29 9.15-13.23 13.41-24.98 13.41zm0-143.99c-20.64 0-36.4 7.87-46.85 23.42-9.91 14.81-14.93 35.8-14.93 62.38 0 26.59 5.03 47.53 14.95 62.19 10.44 15.46 26.19 23.29 46.83 23.29 20.67 0 36.39-7.83 46.7-23.32 9.81-14.6 14.77-35.52 14.77-62.16 0-26.62-4.96-47.6-14.77-62.35-10.31-15.56-26.02-23.45-46.7-23.45"/><path d="m1708.47 1644.54-6.43 3.17c-7.41 3.69-13.04 9.4-16.71 17.03-3.44 7.32-5.18 15.98-5.18 25.76v187.2h27.69v-186.87c0-5.33.57-9.69 1.67-12.93.73-2.21 1.94-3.61 3.86-4.59l5.36-2.71z"/><path d="m1800.76 1792.67c-11.61 0-19.82-4.39-25.13-13.43-5.94-10-8.93-25.06-8.93-44.76 0-19.71 2.99-34.75 8.91-44.72 5.31-9.09 13.53-13.48 25.15-13.48 11.58 0 19.78 4.39 25.02 13.42 5.82 10.06 8.77 25.12 8.77 44.78 0 19.64-2.95 34.72-8.77 44.81-5.24 8.99-13.44 13.38-25.02 13.38zm0-143.99c-20.66 0-36.42 7.87-46.85 23.42-9.89 14.77-14.92 35.76-14.92 62.38 0 26.64 5.03 47.57 14.94 62.2 10.42 15.45 26.17 23.28 46.83 23.28s36.37-7.83 46.69-23.32c9.81-14.62 14.79-35.54 14.79-62.16 0-26.6-4.97-47.58-14.79-62.35-10.31-15.56-26.01-23.45-46.69-23.45"/><path d="m1941.25 1792.67c-6.88 0-12.38-1.47-16.39-4.36-4.08-3-7.39-7.12-9.78-12.2-2.6-5.54-4.28-11.73-5.16-18.85-.9-7.42-1.37-15.09-1.37-22.78 0-8.07.41-15.6 1.24-23.01.77-7.03 2.42-13.32 4.88-18.69 2.3-5.11 5.47-9.08 9.7-12.16 3.93-2.89 9.4-4.34 16.28-4.34 6.87 0 12.28 1.44 16.07 4.28 4.15 3.12 7.38 7.2 9.63 12.18 2.44 5.49 4.13 11.82 4.99 18.81.92 7.44 1.38 14.94 1.38 22.93 0 7.88-.33 15.63-.95 23.02-.66 7.34-2.08 13.52-4.36 18.85-2.12 5-5.2 9.03-9.21 12.01-3.85 2.85-9.57 4.31-16.95 4.31zm-.6-196.27c-7.8 0-14.71.76-20.54 2.26-6.07 1.58-10.9 3.25-14.74 5.12-4.47 2.05-8.61 4.63-12.16 7.61l-3.64 3.06 10.6 26.61 7.02-6.19c2.34-2.06 5.12-3.9 8.28-5.52 2.9-1.49 6.46-2.76 10.59-3.8 4.35-1.04 9.27-1.58 14.59-1.58 12.01 0 20.36 2.52 24.83 7.47 4.63 5.14 6.97 13.16 6.97 23.83v3.03c-2.57-2.1-5.32-3.76-8.22-4.98-7.36-3.08-15.97-4.64-25.55-4.64-18.87 0-33.49 7.92-43.5 23.54-9.5 14.69-14.31 35.64-14.31 62.26 0 26.61 4.91 47.51 14.61 62.14 10.22 15.49 25.61 23.34 45.77 23.34 20.52 0 35.79-7.95 45.37-23.65 9-14.85 13.54-35.65 13.54-61.83v-80.86c0-17.87-5-32.04-14.86-42.11-9.91-10.05-24.93-15.11-44.65-15.11"/><path d="m2083.94 1596.4c-7.74 0-14.68.76-20.58 2.26-5.95 1.56-10.73 3.22-14.66 5.1-4.49 2.05-8.59 4.67-12.06 7.73l-3.51 3.08 10.51 26.14 6.95-5.66c2.64-2.17 5.54-4.11 8.62-5.78 2.69-1.41 6.2-2.68 10.29-3.73 4.27-1.03 9.14-1.57 14.44-1.57 12.03 0 20.44 2.54 25.02 7.52 4.66 5.08 7.04 13.09 7.04 23.78v.2c-2.16-1.16-4.42-2.18-6.75-3.04-6.72-2.49-14.67-3.75-23.62-3.75-8.54 0-16.42 1.58-23.42 4.71-7.02 3.12-13.24 7.67-18.45 13.49-5.08 5.73-9.05 12.67-11.85 20.67-2.68 7.87-4.04 16.64-4.04 26.09v104.68h27.4v-102.45c0-13.31 2.83-23.42 8.4-30.04 5.36-6.43 12.56-9.55 21.96-9.55 11.09 0 18.96 2.51 23.43 7.46 4.59 5.1 6.94 13.11 6.94 23.78v110.8h27.69v-164.7c0-17.83-4.97-32-14.76-42.1-9.96-10.06-25.05-15.12-44.99-15.12"/><path d="m1168.5 2227.35h-206.945v-231.12h-100.715v579.24h100.715v-262.53h206.945v262.53h99.8v-579.24h-99.8z"/><path d="m1730.25 1996.23h-285.82c-25.39 0-44.5 7.27-57.17 21.86-12.74 14.6-19.06 33.31-19.06 56.14v501.24h100.7v-493.68h261.35z"/><path d="m1987.11 2222.58c-14.5-6.96-28.69-14.6-42.61-22.82-13.92-8.23-26.59-17.76-38.14-28.53-11.53-10.81-21.03-23.62-28.59-38.52-7.56-14.91-11.66-32.52-12.26-52.82h260.51v-83.66h-289.54c-19.35 0-35.53 6.29-48.55 19.03-13 12.64-19.49 28.21-19.49 46.57 0 37.42 5.3 68.96 15.86 94.63 10.58 25.72 24.2 47.43 40.84 65.18 16.64 17.76 35.45 32.78 56.29 45.14 20.84 12.4 41.3 23.97 61.27 34.74 12.69 6.34 24.48 12.85 35.37 19.52 10.9 6.66 20.45 13.61 28.57 20.93 8.18 7.28 14.52 15.36 19.11 24.26 4.49 8.88 6.78 19.31 6.78 31.39 0 26.59-8.17 46.71-24.48 60.37-16.4 13.64-39.96 20.46-70.8 20.46-18.78 0-38.46-3.18-59.02-9.53-20.58-6.33-42.65-18.69-66.26-37.11l-33.57 78.96c9.08 6.96 19.97 13.62 32.67 19.95 12.69 6.35 26 11.9 39.92 16.68 13.9 4.72 28.27 8.58 43.11 11.45 14.85 2.8 29.16 4.26 43.15 4.26 60.46 0 107.87-14.28 142.05-42.84 34.15-28.52 51.26-69.4 51.26-122.65 0-25.4-4.1-47.1-12.28-65.15-8.17-18.1-19.06-33.79-32.65-47.13-13.59-13.3-28.9-24.88-45.86-34.71-16.9-9.82-34.47-19.14-52.66-28.05"/><path d="m947.258 1173.97c-11.379 5.61-19.945 14.22-25.586 25.96-5.676 11.74-8.508 25.94-8.508 42.6v225.48h27.168v-224.84c0-11.54 1.231-20.88 3.691-28.04 2.52-7.15 7.137-12.29 13.868-15.49zm-20.278 341.68c-4.968 0-9.324 1.98-13.054 5.98-3.699 3.99-5.574 8.74-5.574 14.34 0 5.54 1.765 10.41 5.32 14.55 3.516 4.23 7.793 6.33 12.812 6.33 4.942 0 9.297-2.06 13.047-5.98 3.731-3.97 5.547-8.75 5.547-14.34 0-5.56-1.758-10.41-5.312-14.62-3.536-4.17-7.774-6.26-12.786-6.26"/><path d="m1126.72 1470.95c14.23 0 27.28-2.6 39.18-7.76 11.88-5.18 22.11-12.43 30.66-21.74 8.5-9.37 15.06-20.7 19.67-34 4.61-13.32 6.93-28.1 6.93-44.42v-182.49h-27.15v178.28c0 27.85-6.24 49.13-18.63 63.83-12.44 14.7-29.35 22.09-50.66 22.09-21.29 0-38.13-7.39-50.53-22.09-12.52-14.7-18.67-35.98-18.67-63.83v-178.28h-27.18v182.49c0 32.56 8.25 58.7 24.74 78.42 16.54 19.63 40.43 29.5 71.64 29.5"/><path d="m1441.04 1331.71c9.21-2.58 17.1-6.76 23.7-12.49 6.56-5.81 11.84-13.27 15.73-22.38 3.89-9.12 5.86-20.66 5.86-34.61 0-26.2-9.24-47.01-27.72-62.3-18.48-15.31-43.52-22.95-75.1-22.95-19.88 0-37.49 2.7-52.77 8.05-15.23 5.37-29.08 13.42-41.48 24.12l11.18 27.44c19.83-21.87 47.2-32.79 82-32.79 25.22 0 44.4 4.86 57.54 14.61 13.15 9.72 19.73 24.37 19.73 43.82 0 15.12-3.94 26.46-11.72 33.95-7.86 7.58-20.25 12.38-37.33 14.37l-42.07 4.15c-51.5 4.76-77.23 29.83-77.23 75.15 0 25.02 8.37 44.81 25.02 59.34 16.69 14.48 39.05 21.76 67.13 21.76 14.93 0 29.3-2.01 43.15-5.99 13.88-3.97 26.13-9.5 36.74-16.69l-10.61-25.62c-19.53 15.07-42.65 22.69-69.28 22.69-21.28 0-37.53-4.77-48.71-14.36-11.19-9.52-16.79-23.26-16.79-41.13 0-15.11 4.12-26.43 12.54-33.97 8.28-7.57 21.54-12.32 39.66-14.29l41.04-4.22c10.6-1.17 20.53-3.06 29.79-5.66"/><path d="m1595.53 1173.97c-11.4 5.61-19.89 14.22-25.61 25.96-5.67 11.74-8.5 25.94-8.5 42.6v225.48h27.17v-224.84c0-11.54 1.25-20.88 3.75-28.04 2.46-7.15 7.07-12.29 13.85-15.49zm-20.26 341.68c-4.96 0-9.36 1.98-13.04 5.98-3.75 3.99-5.63 8.74-5.63 14.34 0 5.54 1.77 10.41 5.38 14.55 3.55 4.23 7.79 6.33 12.76 6.33 4.99 0 9.28-2.06 13.03-5.98 3.75-3.97 5.62-8.75 5.62-14.34 0-5.56-1.77-10.41-5.3-14.62-3.6-4.17-7.86-6.26-12.82-6.26"/><path d="m1772.9 1203.8c16.71 0 29.81 3.49 39.44 10.47 9.56 6.95 16.72 16.07 21.55 27.44 4.8 11.3 7.71 24.11 8.8 38.44 1.06 14.29 1.63 29.02 1.63 44.12 0 14.68-.82 29.33-2.44 43.8-1.57 14.53-4.97 27.44-10.12 38.77-5.18 11.31-12.49 20.48-22.09 27.44-9.59 6.99-22.25 10.46-37.86 10.46-15.57 0-28.18-3.47-37.81-10.46-9.56-6.96-16.95-16.13-22.11-27.44-5.16-11.33-8.56-24.24-10.11-38.77-1.57-14.47-2.37-29.12-2.37-43.8 0-15.1.85-29.83 2.62-44.12 1.82-14.33 5.35-27.14 10.67-38.44 5.37-11.37 12.81-20.49 22.37-27.44 9.62-6.98 22.22-10.47 37.83-10.47zm-4.8 267.15c16.7 0 31.28-2.47 43.67-7.45 12.45-4.96 23.27-15.79 32.55-32.52v147.27h27.17v-253.98c0-47.33-7.85-83.65-23.49-109.14-15.62-25.45-40.68-38.15-75.1-38.15-33.38 0-58.52 12.7-75.37 38.15-16.9 25.49-25.3 61.81-25.3 109.14 0 47.28 8.25 83.56 24.79 108.83 16.51 25.23 40.17 37.85 71.08 37.85"/><path d="m2043 1444.74c-13.53 0-25.04-2.82-34.66-8.41-9.56-5.54-17.56-13.08-23.94-22.63-6.41-9.55-11.23-20.47-14.4-32.81-3.19-12.29-4.96-25.24-5.31-38.73 6.01-2.01 13.3-3.79 21.84-5.38 7.1-1.2 15.78-2.28 26.08-3.3 10.31-.95 22.18-1.46 35.71-1.46 13.1 0 23.88 1.28 32.23 3.87 8.35 2.62 14.71 6.27 19.18 11.03 4.46 4.78 7.43 10.51 9.05 17.28 1.56 6.79 2.37 14.11 2.37 22.07 0 7.16-1.06 14.25-3.17 21.18-2.11 6.92-5.88 13.2-11.19 18.76-5.31 5.6-12.34 10.03-21.04 13.43-8.71 3.4-19.62 5.1-32.75 5.1zm84.65-234.98c-10.98-10.73-22.7-18.85-35.17-24.42-12.38-5.6-27.83-8.36-46.29-8.36-35.5 0-62.54 12.54-80.99 37.58-18.47 25.04-27.69 61.62-27.69 109.71 0 46.51 9.52 82.57 28.49 108.22 19.02 25.63 44.69 38.46 77 38.46 17.03 0 31.57-2.6 43.69-7.76 12.02-5.18 21.78-11.84 29.27-19.98 7.46-8.13 12.86-17.26 16.24-27.42 3.4-10.16 5.08-19.96 5.08-29.52 0-10.71-1.18-20.97-3.44-30.65-2.35-9.79-6.68-18.25-13.08-25.43-6.41-7.11-15.26-12.89-26.66-17.22-11.39-4.41-26.27-6.63-44.73-6.63-14.91 0-27.66.61-38.34 1.83-10.69 1.18-19.52 2.56-26.63 4.14-8.18 1.6-14.92 3.62-20.28 5.98 0-36.54 7.19-64.67 21.59-84.32 14.38-19.7 35.06-29.57 62.03-29.57 14.95 0 27.55 2.47 37.86 7.45 10.28 4.96 20.6 13.24 30.91 24.74z"/></g></g></svg>