<svg enable-background="new 0 0 512.014 512.014" fill="#3f95e0" viewBox="0 0 512.014 512.014" xmlns="http://www.w3.org/2000/svg"><path d="m256.013.014h-42.667c-88.324.1-159.9 71.676-160 160v17.931l-52.01 94.25c-.866 1.579-1.321 3.351-1.323 5.152-.018.606-.018 1.213 0 1.819.502 17.171 14.829 30.684 32 30.181 7.758.431 15.2 3.218 21.333 7.989v34.677c-.024.815-.024 1.631 0 2.447.676 22.888 19.778 40.896 42.667 40.22h64c.606.018 1.213.018 1.819 0 17.171-.502 30.684-14.829 30.181-32v-64h-21.333v64c.062.634.062 1.273 0 1.907-.527 5.365-5.302 9.286-10.667 8.76h-64c-.851.054-1.705.054-2.556 0-11.076-.706-19.483-10.257-18.777-21.333v-39.765c.001-3.055-1.308-5.964-3.595-7.989-10.698-9.857-24.539-15.612-39.072-16.245-.047.006-.095.011-.142.016-5.143.545-9.755-3.182-10.301-8.326l51.787-93.867c.866-1.579 1.321-3.351 1.323-5.152v-20.672c.088-76.547 62.12-138.579 138.667-138.667h42.539c.649-.069 1.304-.073 1.954-.012 5.39.507 9.348 5.288 8.841 10.678v53.333h21.333v-53.332c.018-.606.018-1.213 0-1.819-.503-17.171-14.83-30.684-32.001-30.181z"/><path d="m437.347 320.014h-117.334v21.333h117.333c.634-.062 1.273-.062 1.907 0 5.365.527 9.287 5.302 8.76 10.667v20.16c-1.536 6.368-11.819 43.84-42.667 43.84-5.891 0-10.667 4.776-10.667 10.667v64h-202.666v-32h-21.333v42.667c0 5.891 4.776 10.667 10.667 10.667h224c5.891 0 10.667-4.776 10.667-10.667v-64.939c33.344-6.304 49.237-41.483 53.12-60.928.143-.702.214-1.417.213-2.133v-21.333c.018-.606.018-1.213 0-1.819-.502-17.172-14.829-30.685-32-30.182z"/><path d="m501.347 128.014h-26.891c-1.129-3.169-2.421-6.277-3.872-9.312l19.029-19.029c4.164-4.165 4.164-10.917 0-15.083l-30.176-30.176c-4.165-4.164-10.917-4.164-15.083 0l-19.029 19.029c-3.036-1.445-6.144-2.733-9.312-3.861v-26.902c0-5.891-4.776-10.667-10.667-10.667h-42.666c-5.891 0-10.667 4.776-10.667 10.667v26.901c-5.808 2.051-11.402 4.662-16.704 7.797l10.837 18.368c5.998-3.531 12.461-6.206 19.2-7.947 4.709-1.216 7.999-5.462 8-10.325v-24.127h21.333v24.128c-.006 4.861 3.275 9.111 7.979 10.336 6.739 1.741 13.202 4.416 19.2 7.947 4.192 2.477 9.529 1.801 12.971-1.643l17.067-17.067 15.093 15.061-17.067 17.067c-3.447 3.439-4.127 8.777-1.653 12.971 3.538 5.997 6.22 12.46 7.968 19.2 1.215 4.705 5.456 7.994 10.315 8h24.128v21.323h-24.107c-4.859.006-9.1 3.295-10.315 8-1.748 6.74-4.43 13.203-7.968 19.2-2.474 4.194-1.794 9.531 1.653 12.971l17.067 17.067-15.083 15.083-17.067-17.067c-3.442-3.444-8.779-4.12-12.971-1.643-5.998 3.531-12.461 6.206-19.2 7.947-4.709 1.216-7.999 5.462-8 10.325v24.128h-21.333v-24.117c-.001-4.863-3.291-9.11-8-10.325-6.739-1.741-13.202-4.416-19.2-7.947-4.192-2.477-9.529-1.801-12.971 1.643l-17.065 17.065-15.083-15.083 17.067-17.067c3.447-3.439 4.128-8.777 1.653-12.971-3.538-5.997-6.22-12.46-7.968-19.2-1.215-4.705-5.456-7.994-10.315-8h-34.794v21.333h26.901c1.125 3.169 2.414 6.277 3.861 9.312l-19.029 19.029c-4.164 4.165-4.164 10.917 0 15.083l30.176 30.176c4.165 4.164 10.917 4.164 15.083 0l19.029-19.029c3.036 1.445 6.144 2.733 9.312 3.861v26.901c0 5.891 4.776 10.667 10.667 10.667h42.667c5.891 0 10.667-4.776 10.667-10.667v-26.891c3.168-1.128 6.276-2.417 9.312-3.861l19.029 19.019c4.165 4.164 10.917 4.164 15.083 0l30.176-30.176c4.164-4.165 4.164-10.917 0-15.083l-19.04-19.029c1.451-3.035 2.743-6.143 3.872-9.312h26.901c5.891 0 10.667-4.776 10.667-10.667v-42.665c-.001-5.891-4.776-10.666-10.667-10.666z"/><path d="m384.013 117.347c-23.564 0-42.667 19.103-42.667 42.667s19.102 42.667 42.667 42.667c23.564 0 42.667-19.103 42.667-42.667s-19.102-42.667-42.667-42.667zm0 64c-11.782 0-21.333-9.551-21.333-21.333s9.551-21.333 21.333-21.333 21.333 9.551 21.333 21.333c.001 11.782-9.55 21.333-21.333 21.333z"/><path d="m160.013 170.68v10.667h-32v-10.667h-21.333v10.667c-.006.295-.006.589 0 .884.244 11.538 9.795 20.693 21.333 20.449h32c.295.006.589.006.884 0 11.538-.244 20.693-9.795 20.449-21.333v-10.667z"/><path d="m298.68 298.68c-17.673 0-32 14.327-32 32s14.327 32 32 32 32-14.327 32-32-14.327-32-32-32zm0 42.667c-5.891 0-10.667-4.776-10.667-10.667s4.776-10.667 10.667-10.667 10.667 4.776 10.667 10.667-4.776 10.667-10.667 10.667z"/><path d="m181.347 245.347c-17.673 0-32 14.327-32 32s14.327 32 32 32 32-14.327 32-32-14.327-32-32-32zm0 42.667c-5.891 0-10.667-4.776-10.667-10.667s4.776-10.667 10.667-10.667 10.667 4.776 10.667 10.667c-.001 5.891-4.776 10.667-10.667 10.667z"/><path d="m277.347 74.68c-17.673 0-32 14.327-32 32s14.327 32 32 32 32-14.327 32-32-14.327-32-32-32zm0 42.667c-5.891 0-10.667-4.776-10.667-10.667s4.776-10.667 10.667-10.667 10.667 4.776 10.667 10.667-4.776 10.667-10.667 10.667z"/><path d="m224.013 170.68h21.333v21.333h-21.333z"/><path d="m224.013 213.347h21.333v21.333h-21.333z"/><path d="m170.68 416.014h21.333v21.333h-21.333z"/></svg>