<svg enable-background="new 0 0 480 480" height="512" viewBox="0 0 480 480" width="512" xmlns="http://www.w3.org/2000/svg"><g fill="#3f95e0"><path d="m112 296h-16c-8.837 0-16 7.163-16 16v16c0 8.837 7.163 16 16 16h16c8.837 0 16-7.163 16-16v-16c0-8.837-7.163-16-16-16zm0 32h-16v-16h16z"/><path d="m112 360h-16c-8.837 0-16 7.163-16 16v16c0 8.837 7.163 16 16 16h16c8.837 0 16-7.163 16-16v-16c0-8.837-7.163-16-16-16zm0 32h-16v-16h16z"/><path d="m208 136h-16c-8.837 0-16 7.163-16 16v16c0 8.837 7.163 16 16 16h16c8.837 0 16-7.163 16-16v-16c0-8.837-7.163-16-16-16zm0 32h-16v-16h16z"/><path d="m288 136h-16c-8.837 0-16 7.163-16 16v16c0 8.837 7.163 16 16 16h16c8.837 0 16-7.163 16-16v-16c0-8.837-7.163-16-16-16zm0 32h-16v-16h16z"/><path d="m208 216h-16c-8.837 0-16 7.163-16 16v16c0 8.837 7.163 16 16 16h16c8.837 0 16-7.163 16-16v-16c0-8.837-7.163-16-16-16zm0 32h-16v-16h16z"/><path d="m288 216h-16c-8.837 0-16 7.163-16 16v16c0 8.837 7.163 16 16 16h16c8.837 0 16-7.163 16-16v-16c0-8.837-7.163-16-16-16zm0 32h-16v-16h16z"/><path d="m208 296h-16c-8.837 0-16 7.163-16 16v16c0 8.837 7.163 16 16 16h16c8.837 0 16-7.163 16-16v-16c0-8.837-7.163-16-16-16zm0 32h-16v-16h16z"/><path d="m288 296h-16c-8.837 0-16 7.163-16 16v16c0 8.837 7.163 16 16 16h16c8.837 0 16-7.163 16-16v-16c0-8.837-7.163-16-16-16zm0 32h-16v-16h16z"/><path d="m432 464v-122.232c.01-6.893-4.397-13.018-10.936-15.2l-85.064-28.328v-178.24c0-8.837-7.163-16-16-16h-160c-8.837 0-16 7.163-16 16v114.232l-85.056 28.352c-6.537 2.177-10.946 8.294-10.944 15.184v186.232h-48v16h480v-16zm-288 0h-80v-186.232l80-26.664zm88 0h-16v-40h16zm32 0h-16v-40h16zm56 0h-40v-40c0-8.837-7.163-16-16-16h-48c-8.837 0-16 7.163-16 16v40h-40v-344h160zm96 0h-80v-148.904l80 26.672z"/><path d="m384 360h-16c-8.837 0-16 7.163-16 16v16c0 8.837 7.163 16 16 16h16c8.837 0 16-7.163 16-16v-16c0-8.837-7.163-16-16-16zm0 32h-16v-16h16z"/><path d="m88 0c-48.577.057-87.943 39.423-88 88 0 4.418 3.582 8 8 8s8-3.582 8-8c.044-39.746 32.254-71.956 72-72 4.418 0 8-3.582 8-8s-3.582-8-8-8z"/><path d="m88 32c-30.911.04-55.96 25.089-56 56 0 4.418 3.582 8 8 8s8-3.582 8-8c.026-22.08 17.92-39.974 40-40 4.418 0 8-3.582 8-8s-3.582-8-8-8z"/><circle cx="80" cy="80" r="16"/></g></svg>