<?xml version="1.0" encoding="UTF-8" standalone="no"?>
<!-- Created with Inkscape (http://www.inkscape.org/) -->

<svg
   xmlns:dc="http://purl.org/dc/elements/1.1/"
   xmlns:cc="http://creativecommons.org/ns#"
   xmlns:rdf="http://www.w3.org/1999/02/22-rdf-syntax-ns#"
   xmlns:svg="http://www.w3.org/2000/svg"
   xmlns="http://www.w3.org/2000/svg"
   xmlns:sodipodi="http://sodipodi.sourceforge.net/DTD/sodipodi-0.dtd"
   xmlns:inkscape="http://www.inkscape.org/namespaces/inkscape"
   width="21.15501mm"
   height="8.2106972mm"
   viewBox="0 0 74.958698 29.093022"
   id="svg2"
   version="1.1"
   inkscape:version="0.91 r13725"
   sodipodi:docname="arduino.svg"
   inkscape:export-filename="U:\hl2\kickstarter\images\features2.png"
   inkscape:export-xdpi="234"
   inkscape:export-ydpi="234">
  <defs
     id="defs4">
    <clipPath
       id="clipPath4154"
       clipPathUnits="userSpaceOnUse">
      <path
         inkscape:connector-curvature="0"
         id="path4156"
         d="m 0,0 0,14664 6039,0 L 6039,0 0,0 Z" />
    </clipPath>
    <clipPath
       id="clipPath4160"
       clipPathUnits="userSpaceOnUse">
      <path
         inkscape:connector-curvature="0"
         id="path4162"
         d="M 3097.78,7586.17 C 2005.02,7586.17 960.301,7791.06 0,8164.22 l 0,3223.38 0,3276.7 6038.65,0 0,-6559.37 0,0 C 5121.86,7769.37 4131.28,7586.17 3097.78,7586.17 m -1226.16,4494.63 0,-1306.9 509.53,0 0,1306.9 -362.97,0 c -2.53,4 -6.97,6.6 -12.02,6.6 -5.05,0 -9.48,-2.6 -12.02,-6.6 l -122.52,0 m 1738.98,-1033 0,-186.5 124.35,0 0,186.5 436.28,0 0,634.8 -996.16,0 0,-634.8 435.53,0" />
    </clipPath>
    <linearGradient
       id="linearGradient4164"
       spreadMethod="pad"
       gradientTransform="matrix(2.90495e-7,-7012.9851,-7012.9851,-2.90495e-7,3019.3276,14644.144)"
       gradientUnits="userSpaceOnUse"
       y2="0"
       x2="1"
       y1="0"
       x1="0">
      <stop
         id="stop4166"
         offset="0"
         style="stop-opacity:1;stop-color:#193871" />
      <stop
         id="stop4168"
         offset="0.950495"
         style="stop-opacity:1;stop-color:#234e9b" />
      <stop
         id="stop4170"
         offset="1"
         style="stop-opacity:1;stop-color:#234e9b" />
    </linearGradient>
    <clipPath
       id="clipPath4356"
       clipPathUnits="userSpaceOnUse">
      <path
         inkscape:connector-curvature="0"
         id="path4358"
         d="m 2381.15,10773.9 -509.53,0 0,1306.9 122.52,0 c -1.4,-2.2 -2.23,-4.8 -2.23,-7.6 0,0 0,-20.2 0,-58.7 0,-38.5 -11.86,-160.5 -11.86,-511 l -4.09,0 c -15.57,0 -28.31,-12.7 -28.31,-28.3 l 0,-114.1 117.01,0 0,114.1 c 0,15.6 -12.74,28.3 -28.28,28.3 l -4.11,0 c 0,350.5 -11.87,472.5 -11.87,511 0,38.5 0,58.7 0,58.7 0,2.8 -0.81,5.4 -2.22,7.6 l 362.97,0 0,-1306.9 m -434.95,183.7 0,-114.1 c 0,-15.6 12.73,-28.3 28.3,-28.3 l 60.43,0 c 15.56,0 28.27,12.7 28.27,28.3 l 0,114.1 181.03,0 c 18.27,0 33.22,15 33.22,33.2 l 0,337.1 c 0,18.2 -14.95,33.2 -33.22,33.2 l -337.04,0 c -18.28,0 -33.24,-15 -33.24,-33.2 l 0,-337.1 c 0,-18.2 14.96,-33.2 33.24,-33.2 l 39.01,0" />
    </clipPath>
    <clipPath
       id="clipPath4362"
       clipPathUnits="userSpaceOnUse">
      <path
         inkscape:connector-curvature="0"
         id="path4364"
         d="m 1870.7,12081.6 0,-327.9 255.98,0 0,327.9 -255.98,0 z" />
    </clipPath>
    <clipPath
       id="clipPath4374"
       clipPathUnits="userSpaceOnUse">
      <path
         inkscape:connector-curvature="0"
         id="path4376"
         d="m 2381.15,10773.9 -509.53,0 0,1306.9 122.52,0 c -1.4,-2.2 -2.23,-4.8 -2.23,-7.6 0,0 0,-20.2 0,-58.7 0,-38.5 -11.86,-160.5 -11.86,-511 l -4.09,0 c -15.57,0 -28.31,-12.7 -28.31,-28.3 l 0,-114.1 117.01,0 0,114.1 c 0,15.6 -12.74,28.3 -28.28,28.3 l -4.11,0 c 0,350.5 -11.87,472.5 -11.87,511 0,38.5 0,58.7 0,58.7 0,2.8 -0.81,5.4 -2.22,7.6 l 362.97,0 0,-1306.9 m -434.95,183.7 0,-114.1 c 0,-15.6 12.73,-28.3 28.3,-28.3 l 60.43,0 c 15.56,0 28.27,12.7 28.27,28.3 l 0,114.1 181.03,0 c 18.27,0 33.22,15 33.22,33.2 l 0,337.1 c 0,18.2 -14.95,33.2 -33.22,33.2 l -337.04,0 c -18.28,0 -33.24,-15 -33.24,-33.2 l 0,-337.1 c 0,-18.2 14.96,-33.2 33.24,-33.2 l 39.01,0" />
    </clipPath>
    <clipPath
       id="clipPath4380"
       clipPathUnits="userSpaceOnUse">
      <path
         inkscape:connector-curvature="0"
         id="path4382"
         d="m 2125.85,12081.6 0,-327.9 255.98,0 0,327.9 -255.98,0 z" />
    </clipPath>
    <clipPath
       id="clipPath4392"
       clipPathUnits="userSpaceOnUse">
      <path
         inkscape:connector-curvature="0"
         id="path4394"
         d="m 2381.15,10773.9 -509.53,0 0,1306.9 122.52,0 c -1.4,-2.2 -2.23,-4.8 -2.23,-7.6 0,0 0,-20.2 0,-58.7 0,-38.5 -11.86,-160.5 -11.86,-511 l -4.09,0 c -15.57,0 -28.31,-12.7 -28.31,-28.3 l 0,-114.1 117.01,0 0,114.1 c 0,15.6 -12.74,28.3 -28.28,28.3 l -4.11,0 c 0,350.5 -11.87,472.5 -11.87,511 0,38.5 0,58.7 0,58.7 0,2.8 -0.81,5.4 -2.22,7.6 l 362.97,0 0,-1306.9 m -434.95,183.7 0,-114.1 c 0,-15.6 12.73,-28.3 28.3,-28.3 l 60.43,0 c 15.56,0 28.27,12.7 28.27,28.3 l 0,114.1 181.03,0 c 18.27,0 33.22,15 33.22,33.2 l 0,337.1 c 0,18.2 -14.95,33.2 -33.22,33.2 l -337.04,0 c -18.28,0 -33.24,-15 -33.24,-33.2 l 0,-337.1 c 0,-18.2 14.96,-33.2 33.24,-33.2 l 39.01,0" />
    </clipPath>
    <clipPath
       id="clipPath4398"
       clipPathUnits="userSpaceOnUse">
      <path
         inkscape:connector-curvature="0"
         id="path4400"
         d="m 1870.7,11754.5 0,-327.5 255.98,0 0,327.5 -255.98,0 z" />
    </clipPath>
    <clipPath
       id="clipPath4410"
       clipPathUnits="userSpaceOnUse">
      <path
         inkscape:connector-curvature="0"
         id="path4412"
         d="m 2381.15,10773.9 -509.53,0 0,1306.9 122.52,0 c -1.4,-2.2 -2.23,-4.8 -2.23,-7.6 0,0 0,-20.2 0,-58.7 0,-38.5 -11.86,-160.5 -11.86,-511 l -4.09,0 c -15.57,0 -28.31,-12.7 -28.31,-28.3 l 0,-114.1 117.01,0 0,114.1 c 0,15.6 -12.74,28.3 -28.28,28.3 l -4.11,0 c 0,350.5 -11.87,472.5 -11.87,511 0,38.5 0,58.7 0,58.7 0,2.8 -0.81,5.4 -2.22,7.6 l 362.97,0 0,-1306.9 m -434.95,183.7 0,-114.1 c 0,-15.6 12.73,-28.3 28.3,-28.3 l 60.43,0 c 15.56,0 28.27,12.7 28.27,28.3 l 0,114.1 181.03,0 c 18.27,0 33.22,15 33.22,33.2 l 0,337.1 c 0,18.2 -14.95,33.2 -33.22,33.2 l -337.04,0 c -18.28,0 -33.24,-15 -33.24,-33.2 l 0,-337.1 c 0,-18.2 14.96,-33.2 33.24,-33.2 l 39.01,0" />
    </clipPath>
    <clipPath
       id="clipPath4416"
       clipPathUnits="userSpaceOnUse">
      <path
         inkscape:connector-curvature="0"
         id="path4418"
         d="m 2125.85,11754.5 0,-327.5 255.98,0 0,327.5 -255.98,0 z" />
    </clipPath>
    <clipPath
       id="clipPath4428"
       clipPathUnits="userSpaceOnUse">
      <path
         inkscape:connector-curvature="0"
         id="path4430"
         d="m 2381.15,10773.9 -509.53,0 0,1306.9 122.52,0 c -1.4,-2.2 -2.23,-4.8 -2.23,-7.6 0,0 0,-20.2 0,-58.7 0,-38.5 -11.86,-160.5 -11.86,-511 l -4.09,0 c -15.57,0 -28.31,-12.7 -28.31,-28.3 l 0,-114.1 117.01,0 0,114.1 c 0,15.6 -12.74,28.3 -28.28,28.3 l -4.11,0 c 0,350.5 -11.87,472.5 -11.87,511 0,38.5 0,58.7 0,58.7 0,2.8 -0.81,5.4 -2.22,7.6 l 362.97,0 0,-1306.9 m -434.95,183.7 0,-114.1 c 0,-15.6 12.73,-28.3 28.3,-28.3 l 60.43,0 c 15.56,0 28.27,12.7 28.27,28.3 l 0,114.1 181.03,0 c 18.27,0 33.22,15 33.22,33.2 l 0,337.1 c 0,18.2 -14.95,33.2 -33.22,33.2 l -337.04,0 c -18.28,0 -33.24,-15 -33.24,-33.2 l 0,-337.1 c 0,-18.2 14.96,-33.2 33.24,-33.2 l 39.01,0" />
    </clipPath>
    <clipPath
       id="clipPath4434"
       clipPathUnits="userSpaceOnUse">
      <path
         inkscape:connector-curvature="0"
         id="path4436"
         d="m 1870.7,11427.8 0,-327.9 255.98,0 0,327.9 -255.98,0 z" />
    </clipPath>
    <clipPath
       id="clipPath4446"
       clipPathUnits="userSpaceOnUse">
      <path
         inkscape:connector-curvature="0"
         id="path4448"
         d="m 2381.15,10773.9 -509.53,0 0,1306.9 122.52,0 c -1.4,-2.2 -2.23,-4.8 -2.23,-7.6 0,0 0,-20.2 0,-58.7 0,-38.5 -11.86,-160.5 -11.86,-511 l -4.09,0 c -15.57,0 -28.31,-12.7 -28.31,-28.3 l 0,-114.1 117.01,0 0,114.1 c 0,15.6 -12.74,28.3 -28.28,28.3 l -4.11,0 c 0,350.5 -11.87,472.5 -11.87,511 0,38.5 0,58.7 0,58.7 0,2.8 -0.81,5.4 -2.22,7.6 l 362.97,0 0,-1306.9 m -434.95,183.7 0,-114.1 c 0,-15.6 12.73,-28.3 28.3,-28.3 l 60.43,0 c 15.56,0 28.27,12.7 28.27,28.3 l 0,114.1 181.03,0 c 18.27,0 33.22,15 33.22,33.2 l 0,337.1 c 0,18.2 -14.95,33.2 -33.22,33.2 l -337.04,0 c -18.28,0 -33.24,-15 -33.24,-33.2 l 0,-337.1 c 0,-18.2 14.96,-33.2 33.24,-33.2 l 39.01,0" />
    </clipPath>
    <clipPath
       id="clipPath4452"
       clipPathUnits="userSpaceOnUse">
      <path
         inkscape:connector-curvature="0"
         id="path4454"
         d="m 2125.85,11427.8 0,-327.9 255.98,0 0,327.9 -255.98,0 z" />
    </clipPath>
    <clipPath
       id="clipPath4464"
       clipPathUnits="userSpaceOnUse">
      <path
         inkscape:connector-curvature="0"
         id="path4466"
         d="m 2381.15,10773.9 -509.53,0 0,1306.9 122.52,0 c -1.4,-2.2 -2.23,-4.8 -2.23,-7.6 0,0 0,-20.2 0,-58.7 0,-38.5 -11.86,-160.5 -11.86,-511 l -4.09,0 c -15.57,0 -28.31,-12.7 -28.31,-28.3 l 0,-114.1 117.01,0 0,114.1 c 0,15.6 -12.74,28.3 -28.28,28.3 l -4.11,0 c 0,350.5 -11.87,472.5 -11.87,511 0,38.5 0,58.7 0,58.7 0,2.8 -0.81,5.4 -2.22,7.6 l 362.97,0 0,-1306.9 m -434.95,183.7 0,-114.1 c 0,-15.6 12.73,-28.3 28.3,-28.3 l 60.43,0 c 15.56,0 28.27,12.7 28.27,28.3 l 0,114.1 181.03,0 c 18.27,0 33.22,15 33.22,33.2 l 0,337.1 c 0,18.2 -14.95,33.2 -33.22,33.2 l -337.04,0 c -18.28,0 -33.24,-15 -33.24,-33.2 l 0,-337.1 c 0,-18.2 14.96,-33.2 33.24,-33.2 l 39.01,0" />
    </clipPath>
    <clipPath
       id="clipPath4470"
       clipPathUnits="userSpaceOnUse">
      <path
         inkscape:connector-curvature="0"
         id="path4472"
         d="m 1870.7,11100.7 0,-327.5 255.98,0 0,327.5 -255.98,0 z" />
    </clipPath>
    <clipPath
       id="clipPath4482"
       clipPathUnits="userSpaceOnUse">
      <path
         inkscape:connector-curvature="0"
         id="path4484"
         d="m 2381.15,10773.9 -509.53,0 0,1306.9 122.52,0 c -1.4,-2.2 -2.23,-4.8 -2.23,-7.6 0,0 0,-20.2 0,-58.7 0,-38.5 -11.86,-160.5 -11.86,-511 l -4.09,0 c -15.57,0 -28.31,-12.7 -28.31,-28.3 l 0,-114.1 117.01,0 0,114.1 c 0,15.6 -12.74,28.3 -28.28,28.3 l -4.11,0 c 0,350.5 -11.87,472.5 -11.87,511 0,38.5 0,58.7 0,58.7 0,2.8 -0.81,5.4 -2.22,7.6 l 362.97,0 0,-1306.9 m -434.95,183.7 0,-114.1 c 0,-15.6 12.73,-28.3 28.3,-28.3 l 60.43,0 c 15.56,0 28.27,12.7 28.27,28.3 l 0,114.1 181.03,0 c 18.27,0 33.22,15 33.22,33.2 l 0,337.1 c 0,18.2 -14.95,33.2 -33.22,33.2 l -337.04,0 c -18.28,0 -33.24,-15 -33.24,-33.2 l 0,-337.1 c 0,-18.2 14.96,-33.2 33.24,-33.2 l 39.01,0" />
    </clipPath>
    <clipPath
       id="clipPath4488"
       clipPathUnits="userSpaceOnUse">
      <path
         inkscape:connector-curvature="0"
         id="path4490"
         d="m 2125.85,11100.7 0,-327.5 255.98,0 0,327.5 -255.98,0 z" />
    </clipPath>
    <clipPath
       id="clipPath4500"
       clipPathUnits="userSpaceOnUse">
      <path
         inkscape:connector-curvature="0"
         id="path4502"
         d="m 2064.66,11361.1 -117.01,0 0,114.1 c 0,15.6 12.74,28.3 28.31,28.3 l 4.09,0 0,0 52.22,0 0,0 0,0 4.11,0 c 15.54,0 28.28,-12.7 28.28,-28.3 l 0,-114.1" />
    </clipPath>
    <clipPath
       id="clipPath4512"
       clipPathUnits="userSpaceOnUse">
      <path
         inkscape:connector-curvature="0"
         id="path4514"
         d="m 2034.93,10815.2 -60.43,0 c -15.57,0 -28.3,12.7 -28.3,28.3 l 0,114.1 117,0 0,-114.1 c 0,-15.6 -12.71,-28.3 -28.27,-28.3" />
    </clipPath>
    <clipPath
       id="clipPath4524"
       clipPathUnits="userSpaceOnUse">
      <path
         inkscape:connector-curvature="0"
         id="path4526"
         d="m 2244.23,10957.6 -181.03,0 -117,0 -39.01,0 c -18.28,0 -33.24,15 -33.24,33.2 l 0,337.1 c 0,18.2 14.96,33.2 33.24,33.2 l 337.04,0 c 18.27,0 33.22,-15 33.22,-33.2 l 0,-337.1 c 0,-18.2 -14.95,-33.2 -33.22,-33.2 m -346.54,201.7 0,0 c 0,-98.3 79.7,-178 178.02,-178 98.33,0 178.01,79.7 178.01,178 l 0,0 0,0 c 0,98.4 -79.68,178.1 -178.01,178.1 -98.32,0 -178.02,-79.7 -178.02,-178.1 l 0,0" />
    </clipPath>
    <clipPath
       id="clipPath4530"
       clipPathUnits="userSpaceOnUse">
      <path
         inkscape:connector-curvature="0"
         id="path4532"
         d="m 1873.19,11362.1 0,-203.1 405.25,0 0,203.1 -405.25,0 z" />
    </clipPath>
    <clipPath
       id="clipPath4542"
       clipPathUnits="userSpaceOnUse">
      <path
         inkscape:connector-curvature="0"
         id="path4544"
         d="m 2244.23,10957.6 -181.03,0 -117,0 -39.01,0 c -18.28,0 -33.24,15 -33.24,33.2 l 0,337.1 c 0,18.2 14.96,33.2 33.24,33.2 l 337.04,0 c 18.27,0 33.22,-15 33.22,-33.2 l 0,-337.1 c 0,-18.2 -14.95,-33.2 -33.22,-33.2 m -346.54,201.7 0,0 c 0,-98.3 79.7,-178 178.02,-178 98.33,0 178.01,79.7 178.01,178 l 0,0 0,0 c 0,98.4 -79.68,178.1 -178.01,178.1 -98.32,0 -178.02,-79.7 -178.02,-178.1 l 0,0" />
    </clipPath>
    <clipPath
       id="clipPath4548"
       clipPathUnits="userSpaceOnUse">
      <path
         inkscape:connector-curvature="0"
         id="path4550"
         d="m 1873.19,11159.9 0,-203.1 405.25,0 0,203.1 -405.25,0 z" />
    </clipPath>
    <clipPath
       id="clipPath4560"
       clipPathUnits="userSpaceOnUse">
      <path
         inkscape:connector-curvature="0"
         id="path4562"
         d="m 2075.71,10981.3 c -98.32,0 -178.02,79.7 -178.02,178 0,98.4 79.7,178.1 178.02,178.1 98.33,0 178.01,-79.7 178.01,-178.1 0,-98.3 -79.68,-178 -178.01,-178" />
    </clipPath>
    <clipPath
       id="clipPath4578"
       clipPathUnits="userSpaceOnUse">
      <path
         inkscape:connector-curvature="0"
         id="path4580"
         d="m 2018.18,12080.8 -24.04,0 c 2.54,4 6.97,6.6 12.02,6.6 5.05,0 9.49,-2.6 12.02,-6.6" />
    </clipPath>
    <linearGradient
       id="linearGradient4582"
       spreadMethod="pad"
       gradientTransform="matrix(2.90495e-7,-7012.9851,-7012.9851,-2.90495e-7,3019.3276,14644.144)"
       gradientUnits="userSpaceOnUse"
       y2="0"
       x2="1"
       y1="0"
       x1="0">
      <stop
         id="stop4584"
         offset="0"
         style="stop-opacity:1;stop-color:#747bac" />
      <stop
         id="stop4586"
         offset="0.950495"
         style="stop-opacity:1;stop-color:#858dc6" />
      <stop
         id="stop4588"
         offset="1"
         style="stop-opacity:1;stop-color:#858dc6" />
    </linearGradient>
    <clipPath
       id="clipPath4596"
       clipPathUnits="userSpaceOnUse">
      <path
         inkscape:connector-curvature="0"
         id="path4598"
         d="m 2032.27,11503.5 -52.22,0 c 0,350.5 11.86,472.5 11.86,511 0,38.5 0,58.7 0,58.7 0,2.8 0.83,5.4 2.23,7.6 l 24.04,0 c 1.41,-2.2 2.22,-4.8 2.22,-7.6 0,0 0,-20.2 0,-58.7 0,-38.5 11.87,-160.5 11.87,-511" />
    </clipPath>
    <clipPath
       id="clipPath4672"
       clipPathUnits="userSpaceOnUse">
      <path
         inkscape:connector-curvature="0"
         id="path4674"
         d="m 4171.23,11047.8 -436.28,0 0,17.2 417.73,0 0,600.4 -959.18,0 0,-600.4 417.1,0 0,-17.2 -435.53,0 0,634.8 996.16,0 0,-634.8" />
    </clipPath>
    <clipPath
       id="clipPath4684"
       clipPathUnits="userSpaceOnUse">
      <path
         inkscape:connector-curvature="0"
         id="path4686"
         d="m 3610.6,11047.8 124.352,0 0,17.207 -124.352,0 0,-17.207 z" />
    </clipPath>
    <clipPath
       id="clipPath4696"
       clipPathUnits="userSpaceOnUse">
      <path
         inkscape:connector-curvature="0"
         id="path4698"
         d="m 4152.68,11065 -417.73,0 -124.35,0 -417.1,0 0,600.4 959.18,0 0,-600.4 m -668.93,123.3 0,-70.8 378.67,0 0,70.8 -378.67,0 m 221.82,71 c 3.25,0 5.83,-0.6 7.52,-2 1.7,-1.5 2.57,-3.4 2.57,-6.1 0,-1.8 -0.49,-3.3 -1.53,-4.4 -1.04,-1.2 -2.45,-2.2 -4.03,-3.2 -1.53,-0.7 -3.36,-1.6 -5.18,-2.5 -1.81,-1 -3.63,-2.1 -5.19,-3.4 -1.56,-1.3 -2.97,-3 -4.02,-5.1 -1.02,-2 -1.55,-4.6 -1.55,-7.8 0,-0.9 0.24,-1.6 0.91,-2.3 0.64,-0.5 1.43,-0.9 2.33,-0.9 l 21.39,0 0,3 -20.23,0 -0.5,0.5 -0.41,0.8 c 0,2.6 0.52,4.8 1.55,6.3 1.03,1.6 2.46,3 4.03,4.1 1.56,1 3.36,2 5.17,2.8 1.83,0.8 3.65,1.7 5.22,2.7 1.55,0.9 2.97,2.2 4,3.7 1.04,1.4 1.55,3.3 1.55,5.8 0,3.6 -1.14,6.4 -3.51,8.3 -2.3,2.1 -5.68,3 -9.95,3 -1.05,0 -1.95,-0.2 -2.99,-0.3 -1.06,-0.2 -2.08,-0.4 -2.99,-0.6 -1.05,-0.3 -1.8,-0.5 -2.58,-0.9 l -1.94,-1.2 1.29,-3 c 1.28,1.1 2.6,1.7 4.14,2.1 1.57,0.4 3.12,0.6 4.93,0.6 m -41.09,2.6 0,-36.1 c 0,-1.2 0.24,-2.3 0.88,-3 0.66,-0.8 1.58,-1.2 2.85,-1.2 l 20.5,0 0,3 -19.82,0 -1.05,1 0,36.3 -3.36,0 m -34,-22.8 21.03,0 0,-17.5 3.35,0 0,40.3 -3.35,0 0,-19.8 -21.03,0 0,19.8 -3.37,0 0,-40.3 3.37,0 0,17.5 m 106.08,3.1 0,-3.8 134.73,0 0,3.8 -134.73,0 m -257.15,0 0,-3.8 134.75,0 0,3.8 -134.75,0 m 160.43,100.6 c -7.79,0 -13.63,-2.4 -17.39,-7.1 -3.64,-4.7 -5.46,-11.5 -5.46,-20.5 0,-8.9 1.82,-15.9 5.58,-20.8 3.77,-5 9.62,-7.6 17.27,-7.6 7.76,0 13.47,2.5 17.24,7.6 3.62,4.9 5.42,11.9 5.42,20.8 0,9 -1.8,15.8 -5.42,20.5 -3.77,4.8 -9.48,7.1 -17.24,7.1 m -61.75,-18.4 14.54,-31.3 c 0.89,-1.9 1.94,-3.3 3.35,-4.5 1.44,-1.1 3.39,-1.6 5.98,-1.6 2.72,0 4.79,0.7 6.37,2.2 1.54,1.4 2.33,3.5 2.33,5.9 l 0,47.5 -11.55,0 0,-36.6 -14.41,31.1 c -0.91,1.9 -1.94,3.3 -3.36,4.3 -1.43,1.1 -3.36,1.7 -5.96,1.7 -2.59,0 -4.8,-0.8 -6.36,-2.2 -1.56,-1.4 -2.47,-3.5 -2.47,-6 l 0,-47.4 11.54,0 0,36.9 m 259.74,-22.4 16.08,0 2.86,-14.6 11.41,0 -9.09,44.8 c -0.64,3.3 -2.2,6 -4.42,7.8 -2.19,1.9 -5.17,2.8 -8.79,2.8 -3.77,0 -6.74,-0.9 -8.93,-2.8 -2.22,-1.8 -3.79,-4.5 -4.43,-7.8 l -8.97,-44.8 11.42,0 2.86,14.6 m -31.51,18.2 0,-32.8 11.52,0 0,47.4 c 0,2.5 -0.75,4.4 -2.18,6 -1.67,1.4 -3.77,2.2 -6.35,2.2 -2.47,0 -4.54,-0.7 -5.97,-1.8 -1.43,-1.2 -2.62,-2.8 -3.24,-4.8 l -9.47,-27.9 -9.33,27.9 c -0.67,2 -1.84,3.6 -3.38,4.8 -1.55,1.1 -3.5,1.8 -5.98,1.8 -2.7,0 -4.78,-0.8 -6.21,-2.2 -1.43,-1.5 -2.2,-3.5 -2.2,-6 l 0,-47.4 11.55,0 0,33 6.08,-17.6 c 0.77,-2.1 1.81,-3.9 3.25,-5.1 1.45,-1.3 3.5,-1.9 6.22,-1.9 2.72,0 4.8,0.6 6.35,1.9 1.41,1.2 2.6,2.9 3.24,5.1 l 6.1,17.4 m -125.25,-12.2 8.02,0 c 2.86,0 4.95,-0.8 6.47,-2.5 1.59,-1.7 2.37,-4.1 2.37,-7.7 l 0,-10.4 11.52,0 0,11.1 c 0,3.1 -0.63,6 -1.82,8.7 -1.04,2.2 -2.56,3.9 -4.66,5.2 l 2.1,1.4 c 0.89,1 1.8,2.1 2.31,3.4 0.64,1.1 1.02,2.6 1.3,3.9 0.27,1.4 0.39,2.8 0.39,4.2 0,2.6 -0.39,5 -1.05,7 -0.78,2.3 -1.93,4.1 -3.61,5.5 -1.69,1.4 -3.77,2.6 -6.24,3.5 -2.46,0.8 -5.44,1.2 -8.81,1.2 l -11.67,0 c -2.73,0 -4.79,-0.8 -6.08,-2.4 -1.31,-1.5 -1.96,-3.5 -1.96,-5.8 l 0,-46.9 11.42,0 0,20.6 m -194.64,34.5 c -2.75,0 -4.79,-0.8 -6.24,-2.4 -1.3,-1.5 -2.05,-3.5 -2.05,-5.8 l 0,-46.9 11.53,0 0,20.6 8.31,0 c 6.86,0 12.04,1.5 15.17,4.8 3.1,3.1 4.67,7.4 4.67,12.5 0.11,2.6 -0.27,5 -0.91,7 -0.78,2.3 -1.95,4.1 -3.64,5.5 -1.55,1.4 -3.76,2.6 -6.21,3.5 -2.46,0.8 -5.47,1.2 -8.97,1.2 l -11.66,0 m 241.8,-40.4 15.99,0 2.84,-14.6 11.42,0 -9.08,44.8 c -0.53,3.3 -2.1,5.9 -4.29,7.8 -2.2,2 -5.2,2.9 -8.81,2.9 -3.77,0 -6.73,-0.9 -8.96,-2.9 -2.19,-1.8 -3.77,-4.5 -4.41,-7.8 l -8.93,-44.8 11.41,0 2.82,14.6 m -196.42,0 16.07,0 2.85,-14.6 11.42,0 -9.08,44.8 c -0.77,3.3 -2.19,5.9 -4.4,7.8 -2.2,2 -5.2,2.9 -8.82,2.9 -3.76,0 -6.74,-0.9 -8.94,-2.9 -2.23,-1.8 -3.78,-4.5 -4.42,-7.8 l -8.94,-44.8 11.4,0 2.86,14.6 m 104.69,90.5 c -2.22,0 -4.3,-1.4 -5.11,-3.6 -1.05,-2.8 0.4,-5.9 3.25,-7 12.31,-4.5 25.42,-6.9 38.66,-6.9 62.09,0 112.56,50.6 112.56,112.6 -0.15,62.1 -50.74,112.7 -112.7,112.7 -18.41,0 -36.83,-4.6 -52.93,-13.3 -2.71,-1.4 -3.62,-4.8 -2.18,-7.3 0.97,-1.9 2.79,-2.9 4.72,-2.9 0.89,0 1.8,0.2 2.66,0.7 14.67,7.7 31.12,11.9 47.87,11.9 56.02,0 101.63,-45.7 101.63,-101.7 0,-56 -45.61,-101.6 -101.63,-101.6 -12.07,0 -23.75,2 -34.92,6.1 -0.62,0.2 -1.25,0.3 -1.88,0.3 m 49.36,11.5 c 2.47,-2.9 6.09,-4.7 10.11,-4.7 7.4,0 13.35,5.9 13.35,13.3 0,7.4 -5.95,13.4 -13.35,13.4 -6.74,0 -12.32,-4.9 -13.22,-11.4 -3.26,-0.4 -6.5,-0.7 -9.74,-0.7 -40.58,0 -73.64,33.1 -73.64,73.7 0,14.8 4.4,29 12.58,41.2 1.69,2.5 1.01,5.9 -1.45,7.7 -0.91,0.6 -1.97,0.9 -3.03,0.9 -1.74,0 -3.47,-0.8 -4.61,-2.4 -9.45,-14 -14.4,-30.3 -14.4,-47.3 0,-46.7 38.01,-84.6 84.7,-84.6 4.27,0 8.55,0.2 12.7,0.9 m -101.55,156.9 c -7.37,0 -13.33,-6 -13.33,-13.4 0,-2.9 0.89,-5.4 2.45,-7.7 -8.43,-16 -12.83,-33.8 -12.83,-52.2 0,-22.2 6.47,-43.7 18.67,-62.1 1.03,-1.6 2.84,-2.5 4.52,-2.5 1.05,0 2.08,0.3 3,0.9 2.46,1.7 3.23,5.1 1.55,7.5 -11.01,16.8 -16.84,36.2 -16.84,56.2 0,16.3 3.88,32.3 11.4,46.7 l 1.41,-0.2 c 7.41,0 13.37,6 13.37,13.4 0,7.4 -5.96,13.4 -13.37,13.4 m 100.4,-0.6 c 35.13,-5.5 61.97,-36 61.97,-72.7 0,-15.2 -4.54,-29.7 -13.11,-42 -1.69,-2.5 -1.04,-5.9 1.44,-7.5 0.91,-0.7 2.06,-1.1 3.12,-1.1 1.66,0 3.36,0.8 4.52,2.4 9.86,14.2 15.03,30.8 15.03,48.2 0,42.4 -31.34,77.5 -72.07,83.6 -1.83,5.2 -6.77,8.8 -12.6,8.8 -7.37,0 -13.36,-5.9 -13.36,-13.3 0,-7.4 5.99,-13.4 13.36,-13.4 5.06,0 9.48,2.9 11.7,7 m -11.55,-25 c -26.37,0 -47.73,-21.4 -47.73,-47.7 0,-26.4 21.36,-47.7 47.73,-47.7 26.35,0 47.7,21.3 47.7,47.7 0,26.3 -21.35,47.7 -47.7,47.7 m -33.47,-238.7 c -4,0 -6.89,1.4 -8.55,4.5 -1.81,3.3 -2.74,7.9 -2.74,14 0,6.1 0.93,10.8 2.74,13.8 1.66,2.8 4.55,4.3 8.55,4.3 4.03,0 6.86,-1.5 8.57,-4.3 1.81,-3 2.72,-7.7 2.72,-13.8 0,-6.1 -0.91,-10.7 -2.72,-14 -1.71,-3.1 -4.54,-4.5 -8.57,-4.5 m 102.7,15 -12.32,0 3.63,18.1 c 0.26,1 0.66,1.9 1.04,2.5 l 1.56,0.8 1.43,-0.8 c 0.52,-0.6 0.78,-1.5 1.05,-2.5 l 3.61,-18.1 m 109.56,0.2 -12.32,0 3.65,18 c 0.27,1 0.53,1.9 1.02,2.6 l 1.58,0.8 1.42,-0.8 c 0.5,-0.7 0.77,-1.6 1.05,-2.6 l 3.6,-18 m -306.01,0 -12.31,0 3.63,18 c 0.11,1 0.49,1.9 1.04,2.6 l 1.55,0.8 1.42,-0.8 c 0.53,-0.7 0.78,-1.6 1.03,-2.6 l 3.64,-18 m 143.29,6.1 -8.43,0 0,14.7 8.43,0 c 3.24,0 5.46,-0.6 6.59,-1.9 1.33,-1.4 1.83,-3.3 1.83,-5.5 0,-2.2 -0.65,-4.1 -1.83,-5.4 -1.13,-1.3 -3.35,-1.9 -6.59,-1.9 m -191.25,0 -8.31,0 0,14.7 8.31,0 c 3.23,0 5.45,-0.6 6.62,-1.9 1.29,-1.4 1.79,-3.3 1.79,-5.5 0,-2.2 -0.63,-4.1 -1.79,-5.4 -1.17,-1.3 -3.39,-1.9 -6.62,-1.9" />
    </clipPath>
    <clipPath
       id="clipPath4708"
       clipPathUnits="userSpaceOnUse">
      <path
         inkscape:connector-curvature="0"
         id="path4710"
         d="m 3862.42,11117.5 -378.67,0 0,70.8 378.67,0 0,-70.8 m -248.03,54 0,-44 109.69,0 0,44 -109.69,0" />
    </clipPath>
    <clipPath
       id="clipPath4720"
       clipPathUnits="userSpaceOnUse">
      <path
         inkscape:connector-curvature="0"
         id="path4722"
         d="m 3614.39,11127.5 109.691,0 0,44.02 -109.691,0 0,-44.02 z" />
    </clipPath>
    <clipPath
       id="clipPath4732"
       clipPathUnits="userSpaceOnUse">
      <path
         inkscape:connector-curvature="0"
         id="path4734"
         d="m 3724.08,11127.5 -109.69,0 0,44 109.69,0 0,-44" />
    </clipPath>
    <clipPath
       id="clipPath4738"
       clipPathUnits="userSpaceOnUse">
      <path
         style="clip-rule:evenodd"
         inkscape:connector-curvature="0"
         id="path4740"
         d="m 3611.82,11178.3 0,-55.6 36.31,0 0,4.8 -4.84,0 0,7.3 -2.42,0 0,2.4 -2.42,0 0,2.4 -2.42,0 0,2.4 -2.42,0 0,7.3 -2.42,0 0,2.4 -2.42,0 0,2.4 -2.42,0 0,4.9 -2.42,0 0,4.8 -4.84,0 0,9.7 -2.43,0 0,4.8 -4.84,0" />
    </clipPath>
    <clipPath
       id="clipPath4752"
       clipPathUnits="userSpaceOnUse">
      <path
         inkscape:connector-curvature="0"
         id="path4754"
         d="m 3724.08,11127.5 -109.69,0 0,44 109.69,0 0,-44" />
    </clipPath>
    <clipPath
       id="clipPath4758"
       clipPathUnits="userSpaceOnUse">
      <path
         style="clip-rule:evenodd"
         inkscape:connector-curvature="0"
         id="path4760"
         d="m 3616.66,11178.3 0,-4.8 2.43,0 0,-9.7 4.84,0 0,-4.8 2.42,0 0,-4.9 2.42,0 0,-2.4 2.42,0 0,-2.4 2.42,0 0,-7.3 2.42,0 0,-2.4 2.42,0 0,-2.4 2.42,0 0,-2.4 2.42,0 0,-7.3 4.84,0 0,-4.8 50.84,0 0,12.1 -2.42,0 0,2.4 -2.42,0 0,2.4 -2.42,0 0,2.4 -2.42,0 0,7.3 -2.42,0 0,2.4 -2.42,0 0,2.4 -2.43,0 0,2.5 -2.41,0 0,7.2 -4.85,0 0,4.9 -2.42,0 0,9.6 -55.68,0" />
    </clipPath>
    <clipPath
       id="clipPath4772"
       clipPathUnits="userSpaceOnUse">
      <path
         inkscape:connector-curvature="0"
         id="path4774"
         d="m 3724.08,11127.5 -109.69,0 0,44 109.69,0 0,-44" />
    </clipPath>
    <clipPath
       id="clipPath4778"
       clipPathUnits="userSpaceOnUse">
      <path
         style="clip-rule:evenodd"
         inkscape:connector-curvature="0"
         id="path4780"
         d="m 3672.34,11178.3 0,-9.6 2.42,0 0,-4.9 4.85,0 0,-7.2 2.41,0 0,-2.5 2.43,0 0,-2.4 2.42,0 0,-2.4 2.42,0 0,-7.3 2.42,0 0,-2.4 2.42,0 0,-2.4 2.42,0 0,-2.4 2.42,0 0,43.5 -26.63,0" />
    </clipPath>
    <clipPath
       id="clipPath4792"
       clipPathUnits="userSpaceOnUse">
      <path
         inkscape:connector-curvature="0"
         id="path4794"
         d="m 3614.39,11127.5 109.691,0 0,44.02 -109.691,0 0,-44.02 z" />
    </clipPath>
    <clipPath
       id="clipPath4806"
       clipPathUnits="userSpaceOnUse">
      <path
         inkscape:connector-curvature="0"
         id="path4808"
         d="m 3817.84,11287.4 -11.52,0 0,32.8 -6.1,-17.4 c -0.64,-2.2 -1.83,-3.9 -3.24,-5.1 -1.55,-1.3 -3.63,-1.9 -6.35,-1.9 -2.72,0 -4.77,0.6 -6.22,1.9 -1.44,1.2 -2.48,3 -3.25,5.1 l -6.08,17.6 0,-33 -11.55,0 0,47.4 c 0,2.5 0.77,4.5 2.2,6 1.43,1.4 3.51,2.2 6.21,2.2 2.48,0 4.43,-0.7 5.98,-1.8 1.54,-1.2 2.71,-2.8 3.38,-4.8 l 9.33,-27.9 9.47,27.9 c 0.62,2 1.81,3.6 3.24,4.8 1.43,1.1 3.5,1.8 5.97,1.8 2.58,0 4.68,-0.8 6.35,-2.2 1.43,-1.6 2.18,-3.5 2.18,-6 l 0,-47.4" />
    </clipPath>
    <clipPath
       id="clipPath4818"
       clipPathUnits="userSpaceOnUse">
      <path
         inkscape:connector-curvature="0"
         id="path4820"
         d="m 3601.96,11287 c -2.59,0 -4.54,0.5 -5.98,1.6 -1.41,1.2 -2.46,2.6 -3.35,4.5 l -14.54,31.3 0,-36.9 -11.54,0 0,47.4 c 0,2.5 0.91,4.6 2.47,6 1.56,1.4 3.77,2.2 6.36,2.2 2.6,0 4.53,-0.6 5.96,-1.7 1.42,-1 2.45,-2.4 3.36,-4.3 l 14.41,-31.1 0,36.6 11.55,0 0,-47.5 c 0,-2.4 -0.79,-4.5 -2.33,-5.9 -1.58,-1.5 -3.65,-2.2 -6.37,-2.2" />
    </clipPath>
    <clipPath
       id="clipPath4830"
       clipPathUnits="userSpaceOnUse">
      <path
         inkscape:connector-curvature="0"
         id="path4832"
         d="m 3562.15,11287.5 -11.42,0 -2.85,14.6 -16.07,0 -2.86,-14.6 -11.4,0 8.94,44.8 c 0.64,3.3 2.19,6 4.42,7.8 2.2,2 5.18,2.9 8.94,2.9 3.62,0 6.62,-0.9 8.82,-2.9 2.21,-1.9 3.63,-4.5 4.4,-7.8 l 9.08,-44.8 m -22.3,45.8 -1.55,-0.8 c -0.55,-0.7 -0.93,-1.6 -1.04,-2.6 l -3.63,-18 12.31,0 -3.64,18 c -0.25,1 -0.5,1.9 -1.03,2.6 l -1.42,0.8" />
    </clipPath>
    <clipPath
       id="clipPath4842"
       clipPathUnits="userSpaceOnUse">
      <path
         inkscape:connector-curvature="0"
         id="path4844"
         d="m 3639.84,11286.8 c -7.65,0 -13.5,2.6 -17.27,7.6 -3.76,4.9 -5.58,11.9 -5.58,20.8 0,9 1.82,15.8 5.46,20.5 3.76,4.7 9.6,7.1 17.39,7.1 7.76,0 13.47,-2.3 17.24,-7.1 3.62,-4.7 5.42,-11.5 5.42,-20.5 0,-8.9 -1.8,-15.9 -5.42,-20.8 -3.77,-5.1 -9.48,-7.6 -17.24,-7.6 m -0.15,46.5 c -4,0 -6.89,-1.5 -8.55,-4.3 -1.81,-3 -2.74,-7.7 -2.74,-13.8 0,-6.1 0.93,-10.7 2.74,-14 1.66,-3.1 4.55,-4.5 8.55,-4.5 4.03,0 6.86,1.4 8.57,4.5 1.81,3.3 2.72,7.9 2.72,14 0,6.1 -0.91,10.8 -2.72,13.8 -1.71,2.8 -4.54,4.3 -8.57,4.3" />
    </clipPath>
    <clipPath
       id="clipPath4854"
       clipPathUnits="userSpaceOnUse">
      <path
         inkscape:connector-curvature="0"
         id="path4856"
         d="m 3489.67,11287.4 -11.53,0 0,46.9 c 0,2.3 0.75,4.3 2.05,5.8 1.45,1.6 3.49,2.4 6.24,2.4 l 11.66,0 c 3.5,0 6.51,-0.4 8.97,-1.2 2.45,-0.9 4.66,-2.1 6.21,-3.5 1.69,-1.4 2.86,-3.2 3.64,-5.5 0.64,-2 1.02,-4.4 0.91,-7 0,-5.1 -1.57,-9.4 -4.67,-12.5 -3.13,-3.3 -8.31,-4.8 -15.17,-4.8 l -8.31,0 0,-20.6 m 0,45.3 0,-14.7 8.31,0 c 3.23,0 5.45,0.6 6.62,1.9 1.16,1.3 1.79,3.2 1.79,5.4 0,2.2 -0.5,4.1 -1.79,5.5 -1.17,1.3 -3.39,1.9 -6.62,1.9 l -8.31,0" />
    </clipPath>
    <clipPath
       id="clipPath4866"
       clipPathUnits="userSpaceOnUse">
      <path
         inkscape:connector-curvature="0"
         id="path4868"
         d="m 3709.45,11287.4 -11.52,0 0,10.4 c 0,3.6 -0.78,6 -2.37,7.7 -1.52,1.7 -3.61,2.5 -6.47,2.5 l -8.02,0 0,-20.6 -11.42,0 0,46.9 c 0,2.3 0.65,4.3 1.96,5.8 1.29,1.6 3.35,2.4 6.08,2.4 l 11.67,0 c 3.37,0 6.35,-0.4 8.81,-1.2 2.47,-0.9 4.55,-2.1 6.24,-3.5 1.68,-1.4 2.83,-3.2 3.61,-5.5 0.66,-2 1.05,-4.4 1.05,-7 0,-1.4 -0.12,-2.8 -0.39,-4.2 -0.28,-1.3 -0.66,-2.8 -1.3,-3.9 -0.51,-1.3 -1.42,-2.4 -2.31,-3.4 l -2.1,-1.4 c 2.1,-1.3 3.62,-3 4.66,-5.2 1.19,-2.7 1.82,-5.6 1.82,-8.7 l 0,-11.1 m -28.65,45.3 0,-14.7 8.43,0 c 3.24,0 5.46,0.6 6.59,1.9 1.18,1.3 1.83,3.2 1.83,5.4 0,2.2 -0.5,4.1 -1.83,5.5 -1.13,1.3 -3.35,1.9 -6.59,1.9 l -8.43,0" />
    </clipPath>
    <clipPath
       id="clipPath4878"
       clipPathUnits="userSpaceOnUse">
      <path
         inkscape:connector-curvature="0"
         id="path4880"
         d="m 3758.48,11287.5 -11.42,0 -2.84,14.6 -15.99,0 -2.82,-14.6 -11.41,0 8.93,44.8 c 0.64,3.3 2.22,6 4.41,7.8 2.23,2 5.19,2.9 8.96,2.9 3.61,0 6.61,-0.9 8.81,-2.9 2.19,-1.9 3.76,-4.5 4.29,-7.8 l 9.08,-44.8 m -22.18,45.6 -1.56,-0.8 c -0.38,-0.6 -0.78,-1.5 -1.04,-2.5 l -3.63,-18.1 12.32,0 -3.61,18.1 c -0.27,1 -0.53,1.9 -1.05,2.5 l -1.43,0.8" />
    </clipPath>
    <clipPath
       id="clipPath4890"
       clipPathUnits="userSpaceOnUse">
      <path
         inkscape:connector-curvature="0"
         id="path4892"
         d="m 3868.18,11287.4 -11.41,0 -2.86,14.6 -16.08,0 -2.86,-14.6 -11.42,0 8.97,44.8 c 0.64,3.3 2.21,6 4.43,7.8 2.19,1.9 5.16,2.8 8.93,2.8 3.62,0 6.6,-0.9 8.79,-2.8 2.22,-1.8 3.78,-4.5 4.42,-7.8 l 9.09,-44.8 m -22.3,45.9 -1.58,-0.8 c -0.49,-0.7 -0.75,-1.6 -1.02,-2.6 l -3.65,-18 12.32,0 -3.6,18 c -0.28,1 -0.55,1.9 -1.05,2.6 l -1.42,0.8" />
    </clipPath>
    <clipPath
       id="clipPath4902"
       clipPathUnits="userSpaceOnUse">
      <path
         inkscape:connector-curvature="0"
         id="path4904"
         d="m 3673.3,11375.1 c -13.24,0 -26.35,2.4 -38.66,6.9 -2.85,1.1 -4.3,4.2 -3.25,7 0.81,2.2 2.89,3.6 5.11,3.6 0.63,0 1.26,-0.1 1.88,-0.3 11.17,-4.1 22.85,-6.1 34.92,-6.1 56.02,0 101.63,45.6 101.63,101.6 0,56 -45.61,101.7 -101.63,101.7 -16.75,0 -33.2,-4.2 -47.87,-11.9 -0.86,-0.5 -1.77,-0.7 -2.66,-0.7 -1.93,0 -3.75,1 -4.72,2.9 -1.44,2.5 -0.53,5.9 2.18,7.3 16.1,8.7 34.52,13.3 52.93,13.3 61.96,0 112.55,-50.6 112.7,-112.7 0,-62 -50.47,-112.6 -112.56,-112.6" />
    </clipPath>
    <clipPath
       id="clipPath4914"
       clipPathUnits="userSpaceOnUse">
      <path
         inkscape:connector-curvature="0"
         id="path4916"
         d="m 3738.13,11437.1 c -1.06,0 -2.21,0.4 -3.12,1.1 -2.48,1.6 -3.13,5 -1.44,7.5 8.57,12.3 13.11,26.8 13.11,42 0,36.7 -26.84,67.2 -61.97,72.7 -2.22,-4.1 -6.64,-7 -11.7,-7 -7.37,0 -13.36,6 -13.36,13.4 0,7.4 5.99,13.3 13.36,13.3 5.83,0 10.77,-3.6 12.6,-8.8 40.73,-6.1 72.07,-41.2 72.07,-83.6 0,-17.4 -5.17,-34 -15.03,-48.2 -1.16,-1.6 -2.86,-2.4 -4.52,-2.4" />
    </clipPath>
    <clipPath
       id="clipPath4926"
       clipPathUnits="userSpaceOnUse">
      <path
         inkscape:connector-curvature="0"
         id="path4928"
         d="m 3673.16,11440 c -26.37,0 -47.73,21.3 -47.73,47.7 0,26.3 21.36,47.7 47.73,47.7 26.35,0 47.7,-21.4 47.7,-47.7 0,-26.4 -21.35,-47.7 -47.7,-47.7" />
    </clipPath>
    <clipPath
       id="clipPath4938"
       clipPathUnits="userSpaceOnUse">
      <path
         inkscape:connector-curvature="0"
         id="path4940"
         d="m 3695.97,11399.4 c -4.02,0 -7.64,1.8 -10.11,4.7 -4.15,-0.7 -8.43,-0.9 -12.7,-0.9 -46.69,0 -84.7,37.9 -84.7,84.6 0,17 4.95,33.3 14.4,47.3 1.14,1.6 2.87,2.4 4.61,2.4 1.06,0 2.12,-0.3 3.03,-0.9 2.46,-1.8 3.14,-5.2 1.45,-7.7 -8.18,-12.2 -12.58,-26.4 -12.58,-41.2 0,-40.6 33.06,-73.7 73.64,-73.7 3.24,0 6.48,0.3 9.74,0.7 0.9,6.5 6.48,11.4 13.22,11.4 7.4,0 13.35,-6 13.35,-13.4 0,-7.4 -5.95,-13.3 -13.35,-13.3" />
    </clipPath>
    <clipPath
       id="clipPath4950"
       clipPathUnits="userSpaceOnUse">
      <path
         inkscape:connector-curvature="0"
         id="path4952"
         d="m 3583.79,11423.1 c -1.68,0 -3.49,0.9 -4.52,2.5 -12.2,18.4 -18.67,39.9 -18.67,62.1 0,18.4 4.4,36.2 12.83,52.2 -1.56,2.3 -2.45,4.8 -2.45,7.7 0,7.4 5.96,13.4 13.33,13.4 7.41,0 13.37,-6 13.37,-13.4 0,-7.4 -5.96,-13.4 -13.37,-13.4 l -1.41,0.2 c -7.52,-14.4 -11.4,-30.4 -11.4,-46.7 0,-20 5.83,-39.4 16.84,-56.2 1.68,-2.4 0.91,-5.8 -1.55,-7.5 -0.92,-0.6 -1.95,-0.9 -3,-0.9" />
    </clipPath>
    <clipPath
       id="clipPath4962"
       clipPathUnits="userSpaceOnUse">
      <path
         inkscape:connector-curvature="0"
         id="path4964"
         d="m 3479.41,11238.4 134.75,0 0,3.777 -134.75,0 0,-3.777 z" />
    </clipPath>
    <clipPath
       id="clipPath4974"
       clipPathUnits="userSpaceOnUse">
      <path
         inkscape:connector-curvature="0"
         id="path4976"
         d="m 3654.86,11221.6 -3.35,0 0,17.5 -21.03,0 0,-17.5 -3.37,0 0,40.3 3.37,0 0,-19.8 21.03,0 0,19.8 3.35,0 0,-40.3" />
    </clipPath>
    <clipPath
       id="clipPath4986"
       clipPathUnits="userSpaceOnUse">
      <path
         inkscape:connector-curvature="0"
         id="path4988"
         d="m 3688.71,11221.6 -20.5,0 c -1.27,0 -2.19,0.4 -2.85,1.2 -0.64,0.7 -0.88,1.8 -0.88,3 l 0,36.1 3.36,0 0,-36.3 1.05,-1 19.82,0 0,-3" />
    </clipPath>
    <clipPath
       id="clipPath4998"
       clipPathUnits="userSpaceOnUse">
      <path
         inkscape:connector-curvature="0"
         id="path5000"
         d="m 3718.79,11221.6 -21.39,0 c -0.9,0 -1.69,0.4 -2.33,0.9 -0.67,0.7 -0.91,1.4 -0.91,2.3 0,3.2 0.53,5.8 1.55,7.8 1.05,2.1 2.46,3.8 4.02,5.1 1.56,1.3 3.38,2.4 5.19,3.4 1.82,0.9 3.65,1.8 5.18,2.5 1.58,1 2.99,2 4.03,3.2 1.04,1.1 1.53,2.6 1.53,4.4 0,2.7 -0.87,4.6 -2.57,6.1 -1.69,1.4 -4.27,2 -7.52,2 -1.81,0 -3.36,-0.2 -4.93,-0.6 -1.54,-0.4 -2.86,-1 -4.14,-2.1 l -1.29,3 1.94,1.2 c 0.78,0.4 1.53,0.6 2.58,0.9 0.91,0.2 1.93,0.4 2.99,0.6 1.04,0.1 1.94,0.3 2.99,0.3 4.27,0 7.65,-0.9 9.95,-3 2.37,-1.9 3.51,-4.7 3.51,-8.3 0,-2.5 -0.51,-4.4 -1.55,-5.8 -1.03,-1.5 -2.45,-2.8 -4,-3.7 -1.57,-1 -3.39,-1.9 -5.22,-2.7 -1.81,-0.8 -3.61,-1.8 -5.17,-2.8 -1.57,-1.1 -3,-2.5 -4.03,-4.1 -1.03,-1.5 -1.55,-3.7 -1.55,-6.3 l 0.41,-0.8 0.5,-0.5 20.23,0 0,-3" />
    </clipPath>
    <clipPath
       id="clipPath5010"
       clipPathUnits="userSpaceOnUse">
      <path
         inkscape:connector-curvature="0"
         id="path5012"
         d="m 3736.56,11238.4 134.734,0 0,3.777 -134.734,0 0,-3.777 z" />
    </clipPath>
    <clipPath
       id="clipPath5374"
       clipPathUnits="userSpaceOnUse">
      <path
         inkscape:connector-curvature="0"
         id="path5376"
         d="m 2606.62,8958.32 c 34.47,0 62.41,-27.93 62.41,-62.39 0,-34.47 -27.94,-62.39 -62.41,-62.39 -34.44,0 -62.39,27.92 -62.39,62.39 0,34.46 27.95,62.39 62.39,62.39 z" />
    </clipPath>
    <linearGradient
       id="linearGradient5378"
       spreadMethod="pad"
       gradientTransform="matrix(-235.73573,-235.73573,235.73573,-235.73573,2694.8059,8984.0906)"
       gradientUnits="userSpaceOnUse"
       y2="0"
       x2="1"
       y1="0"
       x1="0">
      <stop
         id="stop5380"
         offset="0"
         style="stop-opacity:1;stop-color:#249fe0" />
      <stop
         id="stop5382"
         offset="0.2623"
         style="stop-opacity:1;stop-color:#249fe0" />
      <stop
         id="stop5384"
         offset="0.3014"
         style="stop-opacity:1;stop-color:#2194da" />
      <stop
         id="stop5386"
         offset="0.4162"
         style="stop-opacity:1;stop-color:#1b7cc9" />
      <stop
         id="stop5388"
         offset="0.5379"
         style="stop-opacity:1;stop-color:#1a66ba" />
      <stop
         id="stop5390"
         offset="0.668"
         style="stop-opacity:1;stop-color:#2058ac" />
      <stop
         id="stop5392"
         offset="0.8125"
         style="stop-opacity:1;stop-color:#23509f" />
      <stop
         id="stop5394"
         offset="1"
         style="stop-opacity:1;stop-color:#234e9b" />
    </linearGradient>
    <clipPath
       id="clipPath5402"
       clipPathUnits="userSpaceOnUse">
      <path
         inkscape:connector-curvature="0"
         id="path5404"
         d="m 2687.5,8831.15 c 1.2,-0.85 2.71,-1.35 4.07,-1.35 2.21,0 4.41,1.02 5.95,3.03 12.87,18.66 19.66,40.37 19.66,63.1 0,55.43 -41.03,101.39 -94.27,109.35 -2.38,6.8 -8.82,11.54 -16.44,11.54 -9.67,0 -17.48,-7.81 -17.48,-17.46 0,-9.68 7.81,-17.47 17.48,-17.47 6.6,0 12.37,3.72 15.25,9.16 45.94,-7.28 81.05,-47.13 81.05,-95.12 0,-19.85 -5.93,-38.82 -17.11,-54.95 -2.22,-3.2 -1.37,-7.6 1.84,-9.83 z" />
    </clipPath>
    <linearGradient
       id="linearGradient5406"
       spreadMethod="pad"
       gradientTransform="matrix(-209.21353,-209.21353,209.21353,-209.21353,2700.122,8976.528)"
       gradientUnits="userSpaceOnUse"
       y2="0"
       x2="1"
       y1="0"
       x1="0">
      <stop
         id="stop5408"
         offset="0"
         style="stop-opacity:1;stop-color:#249fe0" />
      <stop
         id="stop5410"
         offset="0.2623"
         style="stop-opacity:1;stop-color:#249fe0" />
      <stop
         id="stop5412"
         offset="0.3014"
         style="stop-opacity:1;stop-color:#2194da" />
      <stop
         id="stop5414"
         offset="0.4162"
         style="stop-opacity:1;stop-color:#1b7cc9" />
      <stop
         id="stop5416"
         offset="0.5379"
         style="stop-opacity:1;stop-color:#1a66ba" />
      <stop
         id="stop5418"
         offset="0.668"
         style="stop-opacity:1;stop-color:#2058ac" />
      <stop
         id="stop5420"
         offset="0.8125"
         style="stop-opacity:1;stop-color:#23509f" />
      <stop
         id="stop5422"
         offset="1"
         style="stop-opacity:1;stop-color:#234e9b" />
    </linearGradient>
    <clipPath
       id="clipPath5430"
       clipPathUnits="userSpaceOnUse">
      <path
         inkscape:connector-curvature="0"
         id="path5432"
         d="m 2623.24,8786.57 c 3.22,-3.73 7.99,-6.11 13.22,-6.11 9.69,0 17.47,7.78 17.47,17.47 0,9.66 -7.78,17.45 -17.47,17.45 -8.82,0 -16.1,-6.45 -17.29,-14.93 -4.23,-0.5 -8.47,-0.84 -12.7,-0.84 -53.08,0 -96.32,43.23 -96.32,96.32 0,19.34 5.76,37.98 16.45,53.91 2.21,3.23 1.35,7.63 -1.88,10.01 -3.21,2.2 -7.62,1.35 -9.99,-1.87 -12.37,-18.31 -18.82,-39.68 -18.82,-61.9 0,-61.03 49.68,-110.7 110.71,-110.7 5.61,0 11.2,0.32 16.62,1.19 z" />
    </clipPath>
    <linearGradient
       id="linearGradient5434"
       spreadMethod="pad"
       gradientTransform="matrix(-208.92304,-208.92304,208.92304,-208.92304,2675.488,8965.5473)"
       gradientUnits="userSpaceOnUse"
       y2="0"
       x2="1"
       y1="0"
       x1="0">
      <stop
         id="stop5436"
         offset="0"
         style="stop-opacity:1;stop-color:#249fe0" />
      <stop
         id="stop5438"
         offset="0.2623"
         style="stop-opacity:1;stop-color:#249fe0" />
      <stop
         id="stop5440"
         offset="0.3014"
         style="stop-opacity:1;stop-color:#2194da" />
      <stop
         id="stop5442"
         offset="0.4162"
         style="stop-opacity:1;stop-color:#1b7cc9" />
      <stop
         id="stop5444"
         offset="0.5379"
         style="stop-opacity:1;stop-color:#1a66ba" />
      <stop
         id="stop5446"
         offset="0.668"
         style="stop-opacity:1;stop-color:#2058ac" />
      <stop
         id="stop5448"
         offset="0.8125"
         style="stop-opacity:1;stop-color:#23509f" />
      <stop
         id="stop5450"
         offset="1"
         style="stop-opacity:1;stop-color:#234e9b" />
    </linearGradient>
    <clipPath
       id="clipPath5458"
       clipPathUnits="userSpaceOnUse">
      <path
         inkscape:connector-curvature="0"
         id="path5460"
         d="m 2473.7,8895.93 c 0,21.36 5.09,42.21 14.91,61.03 l 1.87,-0.16 c 9.66,0 17.46,7.79 17.46,17.45 0,9.68 -7.8,17.47 -17.46,17.47 -9.66,0 -17.46,-7.79 -17.46,-17.47 0,-3.72 1.18,-7.1 3.22,-10 -11.03,-21.02 -16.79,-44.24 -16.79,-68.32 0,-29 8.48,-57.15 24.42,-81.23 1.35,-2.03 3.73,-3.21 5.93,-3.21 1.36,0 2.72,0.33 3.9,1.18 3.22,2.2 4.24,6.62 2.03,9.84 -14.41,21.85 -22.03,47.3 -22.03,73.42 z" />
    </clipPath>
    <linearGradient
       id="linearGradient5462"
       spreadMethod="pad"
       gradientTransform="matrix(-215.70319,-215.70319,215.70319,-215.70319,2613.5642,9027.2097)"
       gradientUnits="userSpaceOnUse"
       y2="0"
       x2="1"
       y1="0"
       x1="0">
      <stop
         id="stop5464"
         offset="0"
         style="stop-opacity:1;stop-color:#249fe0" />
      <stop
         id="stop5466"
         offset="0.2623"
         style="stop-opacity:1;stop-color:#249fe0" />
      <stop
         id="stop5468"
         offset="0.3014"
         style="stop-opacity:1;stop-color:#2194da" />
      <stop
         id="stop5470"
         offset="0.4162"
         style="stop-opacity:1;stop-color:#1b7cc9" />
      <stop
         id="stop5472"
         offset="0.5379"
         style="stop-opacity:1;stop-color:#1a66ba" />
      <stop
         id="stop5474"
         offset="0.668"
         style="stop-opacity:1;stop-color:#2058ac" />
      <stop
         id="stop5476"
         offset="0.8125"
         style="stop-opacity:1;stop-color:#23509f" />
      <stop
         id="stop5478"
         offset="1"
         style="stop-opacity:1;stop-color:#234e9b" />
    </linearGradient>
    <clipPath
       id="clipPath5486"
       clipPathUnits="userSpaceOnUse">
      <path
         inkscape:connector-curvature="0"
         id="path5488"
         d="m 2606.62,9043.26 c -24.07,0 -48.15,-5.93 -69.17,-17.29 -3.56,-1.87 -4.74,-6.27 -2.88,-9.66 1.86,-3.56 6.1,-4.75 9.66,-2.89 19.16,10.18 40.69,15.6 62.57,15.6 73.25,0 132.93,-59.68 132.93,-132.94 0,-73.23 -59.68,-132.93 -132.93,-132.93 -15.77,0 -31.03,2.72 -45.61,7.99 -3.74,1.35 -7.8,-0.52 -9.15,-4.26 -1.37,-3.73 0.5,-7.79 4.23,-9.15 16.11,-5.93 33.24,-8.99 50.53,-8.99 81.23,0 147.17,66.13 147.17,147.19 -0.17,81.21 -66.29,147.33 -147.35,147.33 z" />
    </clipPath>
    <linearGradient
       id="linearGradient5490"
       spreadMethod="pad"
       gradientTransform="matrix(-230.61817,-230.61817,230.61817,-230.61817,2697.2752,8982.3089)"
       gradientUnits="userSpaceOnUse"
       y2="0"
       x2="1"
       y1="0"
       x1="0">
      <stop
         id="stop5492"
         offset="0"
         style="stop-opacity:1;stop-color:#249fe0" />
      <stop
         id="stop5494"
         offset="0.2623"
         style="stop-opacity:1;stop-color:#249fe0" />
      <stop
         id="stop5496"
         offset="0.3014"
         style="stop-opacity:1;stop-color:#2194da" />
      <stop
         id="stop5498"
         offset="0.4162"
         style="stop-opacity:1;stop-color:#1b7cc9" />
      <stop
         id="stop5500"
         offset="0.5379"
         style="stop-opacity:1;stop-color:#1a66ba" />
      <stop
         id="stop5502"
         offset="0.668"
         style="stop-opacity:1;stop-color:#2058ac" />
      <stop
         id="stop5504"
         offset="0.8125"
         style="stop-opacity:1;stop-color:#23509f" />
      <stop
         id="stop5506"
         offset="1"
         style="stop-opacity:1;stop-color:#234e9b" />
    </linearGradient>
    <clipPath
       id="clipPath5542"
       clipPathUnits="userSpaceOnUse">
      <path
         inkscape:connector-curvature="0"
         id="path5544"
         d="m 1735.71,8855.09 c 10.6,0 20.52,4.11 27.98,11.57 7.51,7.49 11.62,17.43 11.62,28.02 0,10.58 -4.11,20.51 -11.62,27.98 -7.46,7.51 -17.38,11.61 -27.98,11.61 -10.58,0 -20.51,-4.1 -28.01,-11.61 -7.47,-7.47 -11.59,-17.4 -11.59,-27.98 0,-10.59 4.12,-20.52 11.59,-28.02 7.5,-7.46 17.43,-11.57 28.01,-11.57 z m 0,107.07 c 18.03,0 34.99,-6.99 47.75,-19.76 12.76,-12.73 19.78,-29.69 19.78,-47.72 0,-18.05 -7.02,-35 -19.78,-47.77 -12.76,-12.74 -29.72,-19.76 -47.75,-19.76 -18.03,0 -34.98,7.02 -47.75,19.76 -12.74,12.77 -19.78,29.72 -19.78,47.77 0,18.03 7.04,34.99 19.78,47.72 12.77,12.77 29.74,19.76 47.75,19.76 z" />
    </clipPath>
    <radialGradient
       id="radialGradient5546"
       spreadMethod="pad"
       gradientTransform="matrix(180.11174,0,0,-180.11174,1741.1593,8889.6216)"
       gradientUnits="userSpaceOnUse"
       r="1"
       cy="0"
       cx="0"
       fy="0"
       fx="0">
      <stop
         id="stop5548"
         offset="0"
         style="stop-opacity:1;stop-color:#249fe0" />
      <stop
         id="stop5550"
         offset="0.2623"
         style="stop-opacity:1;stop-color:#249fe0" />
      <stop
         id="stop5552"
         offset="0.3014"
         style="stop-opacity:1;stop-color:#2194da" />
      <stop
         id="stop5554"
         offset="0.4162"
         style="stop-opacity:1;stop-color:#1b7cc9" />
      <stop
         id="stop5556"
         offset="0.5379"
         style="stop-opacity:1;stop-color:#1a66ba" />
      <stop
         id="stop5558"
         offset="0.668"
         style="stop-opacity:1;stop-color:#2058ac" />
      <stop
         id="stop5560"
         offset="0.8125"
         style="stop-opacity:1;stop-color:#23509f" />
      <stop
         id="stop5562"
         offset="1"
         style="stop-opacity:1;stop-color:#234e9b" />
    </radialGradient>
    <clipPath
       id="clipPath5570"
       clipPathUnits="userSpaceOnUse">
      <path
         inkscape:connector-curvature="0"
         id="path5572"
         d="m 1598.34,8994.88 c 4,0 7.96,-1.67 10.72,-4.96 4.98,-5.9 4.21,-14.69 -1.69,-19.67 -2.29,-1.92 -4.53,-3.93 -6.58,-6 -19.45,-19.43 -30.17,-45.37 -30.17,-72.98 0,-27.63 10.72,-53.55 30.17,-73.02 5.48,-5.44 5.48,-14.27 0,-19.73 -5.44,-5.47 -14.27,-5.47 -19.71,0 -51.14,51.15 -51.14,134.33 0,185.46 2.6,2.63 5.4,5.17 8.31,7.64 2.59,2.2 5.81,3.26 8.95,3.26 z" />
    </clipPath>
    <radialGradient
       id="radialGradient5574"
       spreadMethod="pad"
       gradientTransform="matrix(180.12336,0,0,-180.12336,1741.1593,8889.6216)"
       gradientUnits="userSpaceOnUse"
       r="1"
       cy="0"
       cx="0"
       fy="0"
       fx="0">
      <stop
         id="stop5576"
         offset="0"
         style="stop-opacity:1;stop-color:#249fe0" />
      <stop
         id="stop5578"
         offset="0.2623"
         style="stop-opacity:1;stop-color:#249fe0" />
      <stop
         id="stop5580"
         offset="0.3014"
         style="stop-opacity:1;stop-color:#2194da" />
      <stop
         id="stop5582"
         offset="0.4162"
         style="stop-opacity:1;stop-color:#1b7cc9" />
      <stop
         id="stop5584"
         offset="0.5379"
         style="stop-opacity:1;stop-color:#1a66ba" />
      <stop
         id="stop5586"
         offset="0.668"
         style="stop-opacity:1;stop-color:#2058ac" />
      <stop
         id="stop5588"
         offset="0.8125"
         style="stop-opacity:1;stop-color:#23509f" />
      <stop
         id="stop5590"
         offset="1"
         style="stop-opacity:1;stop-color:#234e9b" />
    </radialGradient>
    <clipPath
       id="clipPath5598"
       clipPathUnits="userSpaceOnUse">
      <path
         inkscape:connector-curvature="0"
         id="path5600"
         d="m 1645.95,8972.35 c 4.15,0 8.25,-1.82 10.98,-5.31 4.8,-6.03 3.75,-14.83 -2.31,-19.59 -2.23,-1.77 -4.34,-3.64 -6.31,-5.63 -13.47,-13.46 -20.87,-31.41 -20.87,-50.5 0,-19.1 7.4,-37.06 20.87,-50.5 5.45,-5.46 5.45,-14.29 0,-19.74 -5.47,-5.45 -14.31,-5.45 -19.75,0 -18.72,18.75 -29.06,43.67 -29.06,70.24 0,26.55 10.34,51.49 29.06,70.24 2.73,2.73 5.67,5.35 8.78,7.78 2.54,2.03 5.61,3.01 8.61,3.01 z" />
    </clipPath>
    <radialGradient
       id="radialGradient5602"
       spreadMethod="pad"
       gradientTransform="matrix(180.1224,0,0,-180.1224,1741.1496,8889.6313)"
       gradientUnits="userSpaceOnUse"
       r="1"
       cy="0"
       cx="0"
       fy="0"
       fx="0">
      <stop
         id="stop5604"
         offset="0"
         style="stop-opacity:1;stop-color:#249fe0" />
      <stop
         id="stop5606"
         offset="0.2623"
         style="stop-opacity:1;stop-color:#249fe0" />
      <stop
         id="stop5608"
         offset="0.3014"
         style="stop-opacity:1;stop-color:#2194da" />
      <stop
         id="stop5610"
         offset="0.4162"
         style="stop-opacity:1;stop-color:#1b7cc9" />
      <stop
         id="stop5612"
         offset="0.5379"
         style="stop-opacity:1;stop-color:#1a66ba" />
      <stop
         id="stop5614"
         offset="0.668"
         style="stop-opacity:1;stop-color:#2058ac" />
      <stop
         id="stop5616"
         offset="0.8125"
         style="stop-opacity:1;stop-color:#23509f" />
      <stop
         id="stop5618"
         offset="1"
         style="stop-opacity:1;stop-color:#234e9b" />
    </radialGradient>
    <clipPath
       id="clipPath5626"
       clipPathUnits="userSpaceOnUse">
      <path
         inkscape:connector-curvature="0"
         id="path5628"
         d="m 1873.07,8994.88 c 3.15,0 6.34,-1.06 8.97,-3.26 2.89,-2.45 5.71,-5.01 8.31,-7.64 51.13,-51.12 51.13,-134.31 0,-185.44 -5.44,-5.48 -14.3,-5.48 -19.74,0 -5.44,5.44 -5.44,14.27 0,19.71 19.46,19.49 30.19,45.39 30.19,73.02 0,27.61 -10.73,53.55 -30.19,72.98 -2.05,2.07 -4.27,4.09 -6.55,6.02 -5.9,4.96 -6.67,13.75 -1.68,19.68 2.75,3.26 6.7,4.93 10.69,4.93 z" />
    </clipPath>
    <radialGradient
       id="radialGradient5630"
       spreadMethod="pad"
       gradientTransform="matrix(180.13498,0,0,-180.13498,1741.1399,8889.6313)"
       gradientUnits="userSpaceOnUse"
       r="1"
       cy="0"
       cx="0"
       fy="0"
       fx="0">
      <stop
         id="stop5632"
         offset="0"
         style="stop-opacity:1;stop-color:#249fe0" />
      <stop
         id="stop5634"
         offset="0.2623"
         style="stop-opacity:1;stop-color:#249fe0" />
      <stop
         id="stop5636"
         offset="0.3014"
         style="stop-opacity:1;stop-color:#2194da" />
      <stop
         id="stop5638"
         offset="0.4162"
         style="stop-opacity:1;stop-color:#1b7cc9" />
      <stop
         id="stop5640"
         offset="0.5379"
         style="stop-opacity:1;stop-color:#1a66ba" />
      <stop
         id="stop5642"
         offset="0.668"
         style="stop-opacity:1;stop-color:#2058ac" />
      <stop
         id="stop5644"
         offset="0.8125"
         style="stop-opacity:1;stop-color:#23509f" />
      <stop
         id="stop5646"
         offset="1"
         style="stop-opacity:1;stop-color:#234e9b" />
    </radialGradient>
    <clipPath
       id="clipPath5654"
       clipPathUnits="userSpaceOnUse">
      <path
         inkscape:connector-curvature="0"
         id="path5656"
         d="m 1825.44,8972.35 c 3.03,0 6.07,-0.98 8.64,-3.01 3.09,-2.43 6.04,-5.05 8.78,-7.78 18.74,-18.73 29.05,-43.69 29.05,-70.24 0,-26.57 -10.31,-51.49 -29.05,-70.23 -5.47,-5.46 -14.29,-5.46 -19.75,0 -5.42,5.44 -5.42,14.27 0,19.73 13.48,13.46 20.89,31.4 20.89,50.52 0,19.07 -7.41,37.02 -20.89,50.48 -1.97,1.99 -4.1,3.86 -6.33,5.63 -6.05,4.78 -7.07,13.56 -2.29,19.59 2.75,3.49 6.83,5.31 10.95,5.31 z" />
    </clipPath>
    <radialGradient
       id="radialGradient5658"
       spreadMethod="pad"
       gradientTransform="matrix(180.13014,0,0,-180.13014,1741.1496,8889.6216)"
       gradientUnits="userSpaceOnUse"
       r="1"
       cy="0"
       cx="0"
       fy="0"
       fx="0">
      <stop
         id="stop5660"
         offset="0"
         style="stop-opacity:1;stop-color:#249fe0" />
      <stop
         id="stop5662"
         offset="0.2623"
         style="stop-opacity:1;stop-color:#249fe0" />
      <stop
         id="stop5664"
         offset="0.3014"
         style="stop-opacity:1;stop-color:#2194da" />
      <stop
         id="stop5666"
         offset="0.4162"
         style="stop-opacity:1;stop-color:#1b7cc9" />
      <stop
         id="stop5668"
         offset="0.5379"
         style="stop-opacity:1;stop-color:#1a66ba" />
      <stop
         id="stop5670"
         offset="0.668"
         style="stop-opacity:1;stop-color:#2058ac" />
      <stop
         id="stop5672"
         offset="0.8125"
         style="stop-opacity:1;stop-color:#23509f" />
      <stop
         id="stop5674"
         offset="1"
         style="stop-opacity:1;stop-color:#234e9b" />
    </radialGradient>
    <clipPath
       id="clipPath6412"
       clipPathUnits="userSpaceOnUse">
      <path
         inkscape:connector-curvature="0"
         id="path6414"
         d="m 5059.64,3564.28 c 25.73,0 46.51,-20.82 46.51,-46.48 0,-25.66 -20.78,-46.48 -46.51,-46.48 -25.67,0 -46.45,20.82 -46.45,46.48 0,25.66 20.78,46.48 46.45,46.48 z" />
    </clipPath>
    <linearGradient
       id="linearGradient6416"
       spreadMethod="pad"
       gradientTransform="matrix(-175.65846,-175.65846,175.65846,-175.65846,5125.368,3583.4495)"
       gradientUnits="userSpaceOnUse"
       y2="0"
       x2="1"
       y1="0"
       x1="0">
      <stop
         id="stop6418"
         offset="0"
         style="stop-opacity:1;stop-color:#259cdf" />
      <stop
         id="stop6420"
         offset="0.2623"
         style="stop-opacity:1;stop-color:#259cdf" />
      <stop
         id="stop6422"
         offset="0.3014"
         style="stop-opacity:1;stop-color:#2293d8" />
      <stop
         id="stop6424"
         offset="0.4162"
         style="stop-opacity:1;stop-color:#1b7bc7" />
      <stop
         id="stop6426"
         offset="0.5379"
         style="stop-opacity:1;stop-color:#1c66b7" />
      <stop
         id="stop6428"
         offset="0.668"
         style="stop-opacity:1;stop-color:#2259ab" />
      <stop
         id="stop6430"
         offset="0.8125"
         style="stop-opacity:1;stop-color:#24519e" />
      <stop
         id="stop6432"
         offset="1"
         style="stop-opacity:1;stop-color:#244f98" />
    </linearGradient>
    <clipPath
       id="clipPath6440"
       clipPathUnits="userSpaceOnUse">
      <path
         inkscape:connector-curvature="0"
         id="path6442"
         d="m 5119.95,3469.58 c 0.9,-0.68 1.99,-1.07 3.04,-1.07 1.6,0 3.26,0.78 4.41,2.23 9.59,13.94 14.62,30.11 14.62,47.06 0,41.25 -30.57,75.53 -70.24,81.43 -1.75,5.14 -6.54,8.62 -12.23,8.62 -7.22,0 -13.01,-5.81 -13.01,-12.97 0,-7.27 5.79,-13.08 13.01,-13.08 4.93,0 9.2,2.91 11.38,6.88 34.21,-5.42 60.36,-35.15 60.36,-70.88 0,-14.82 -4.41,-28.95 -12.77,-40.96 -1.61,-2.42 -0.99,-5.71 1.43,-7.26 z" />
    </clipPath>
    <linearGradient
       id="linearGradient6444"
       spreadMethod="pad"
       gradientTransform="matrix(-155.83604,-155.83604,155.83604,-155.83604,5129.3187,3577.8333)"
       gradientUnits="userSpaceOnUse"
       y2="0"
       x2="1"
       y1="0"
       x1="0">
      <stop
         id="stop6446"
         offset="0"
         style="stop-opacity:1;stop-color:#259cdf" />
      <stop
         id="stop6448"
         offset="0.2623"
         style="stop-opacity:1;stop-color:#259cdf" />
      <stop
         id="stop6450"
         offset="0.3014"
         style="stop-opacity:1;stop-color:#2293d8" />
      <stop
         id="stop6452"
         offset="0.4162"
         style="stop-opacity:1;stop-color:#1b7bc7" />
      <stop
         id="stop6454"
         offset="0.5379"
         style="stop-opacity:1;stop-color:#1c66b7" />
      <stop
         id="stop6456"
         offset="0.668"
         style="stop-opacity:1;stop-color:#2259ab" />
      <stop
         id="stop6458"
         offset="0.8125"
         style="stop-opacity:1;stop-color:#24519e" />
      <stop
         id="stop6460"
         offset="1"
         style="stop-opacity:1;stop-color:#244f98" />
    </linearGradient>
    <clipPath
       id="clipPath6468"
       clipPathUnits="userSpaceOnUse">
      <path
         inkscape:connector-curvature="0"
         id="path6470"
         d="m 5072.06,3436.27 c 2.38,-2.81 5.94,-4.46 9.83,-4.46 7.22,0 13,5.71 13,12.98 0,7.16 -5.78,12.97 -13,12.97 -6.54,0 -12,-4.74 -12.91,-11.03 -3.13,-0.39 -6.3,-0.78 -9.43,-0.78 -39.53,0 -71.79,32.25 -71.79,71.85 0,14.33 4.31,28.27 12.28,40.18 1.61,2.33 1,5.62 -1.43,7.46 -2.37,1.65 -5.65,0.97 -7.45,-1.45 -9.2,-13.56 -13.99,-29.54 -13.99,-46.1 0,-45.51 37,-82.5 82.47,-82.5 4.17,0 8.35,0.3 12.42,0.88 z" />
    </clipPath>
    <linearGradient
       id="linearGradient6472"
       spreadMethod="pad"
       gradientTransform="matrix(-155.66175,-155.66175,155.66175,-155.66175,5110.9594,3569.6994)"
       gradientUnits="userSpaceOnUse"
       y2="0"
       x2="1"
       y1="0"
       x1="0">
      <stop
         id="stop6474"
         offset="0"
         style="stop-opacity:1;stop-color:#259cdf" />
      <stop
         id="stop6476"
         offset="0.2623"
         style="stop-opacity:1;stop-color:#259cdf" />
      <stop
         id="stop6478"
         offset="0.3014"
         style="stop-opacity:1;stop-color:#2293d8" />
      <stop
         id="stop6480"
         offset="0.4162"
         style="stop-opacity:1;stop-color:#1b7bc7" />
      <stop
         id="stop6482"
         offset="0.5379"
         style="stop-opacity:1;stop-color:#1c66b7" />
      <stop
         id="stop6484"
         offset="0.668"
         style="stop-opacity:1;stop-color:#2259ab" />
      <stop
         id="stop6486"
         offset="0.8125"
         style="stop-opacity:1;stop-color:#24519e" />
      <stop
         id="stop6488"
         offset="1"
         style="stop-opacity:1;stop-color:#244f98" />
    </linearGradient>
    <clipPath
       id="clipPath6496"
       clipPathUnits="userSpaceOnUse">
      <path
         inkscape:connector-curvature="0"
         id="path6498"
         d="m 4960.61,3517.8 c 0,15.88 3.8,31.47 11.11,45.41 l 1.41,-0.09 c 7.17,0 13,5.81 13,13.07 0,7.17 -5.83,12.97 -13,12.97 -7.2,0 -13.05,-5.8 -13.05,-12.97 0,-2.81 0.91,-5.33 2.42,-7.46 -8.2,-15.68 -12.53,-33.02 -12.53,-50.93 0,-21.59 6.37,-42.61 18.22,-60.52 1.01,-1.55 2.76,-2.42 4.42,-2.42 1,0 2.04,0.29 2.89,0.87 2.42,1.65 3.19,4.94 1.52,7.36 -10.73,16.27 -16.41,35.25 -16.41,54.71 z" />
    </clipPath>
    <linearGradient
       id="linearGradient6500"
       spreadMethod="pad"
       gradientTransform="matrix(-160.68925,-160.68925,160.68925,-160.68925,5064.8094,3615.5976)"
       gradientUnits="userSpaceOnUse"
       y2="0"
       x2="1"
       y1="0"
       x1="0">
      <stop
         id="stop6502"
         offset="0"
         style="stop-opacity:1;stop-color:#259cdf" />
      <stop
         id="stop6504"
         offset="0.2623"
         style="stop-opacity:1;stop-color:#259cdf" />
      <stop
         id="stop6506"
         offset="0.3014"
         style="stop-opacity:1;stop-color:#2293d8" />
      <stop
         id="stop6508"
         offset="0.4162"
         style="stop-opacity:1;stop-color:#1b7bc7" />
      <stop
         id="stop6510"
         offset="0.5379"
         style="stop-opacity:1;stop-color:#1c66b7" />
      <stop
         id="stop6512"
         offset="0.668"
         style="stop-opacity:1;stop-color:#2259ab" />
      <stop
         id="stop6514"
         offset="0.8125"
         style="stop-opacity:1;stop-color:#24519e" />
      <stop
         id="stop6516"
         offset="1"
         style="stop-opacity:1;stop-color:#244f98" />
    </linearGradient>
    <clipPath
       id="clipPath6524"
       clipPathUnits="userSpaceOnUse">
      <path
         inkscape:connector-curvature="0"
         id="path6526"
         d="m 5059.64,3627.51 c -17.94,0 -35.87,-4.36 -51.54,-12.78 -2.66,-1.46 -3.52,-4.75 -2.12,-7.27 1.37,-2.61 4.54,-3.48 7.21,-2.12 14.27,7.55 30.32,11.61 46.58,11.61 54.57,0 99.09,-44.44 99.09,-99.06 0,-54.61 -44.52,-99.05 -99.09,-99.05 -11.72,0 -23.1,2.03 -33.97,5.9 -2.79,1.07 -5.78,-0.29 -6.84,-3.1 -0.98,-2.8 0.39,-5.8 3.2,-6.77 12,-4.46 24.77,-6.78 37.61,-6.78 60.55,0 109.67,49.29 109.67,109.71 -0.08,60.52 -49.4,109.71 -109.8,109.71 z" />
    </clipPath>
    <linearGradient
       id="linearGradient6528"
       spreadMethod="pad"
       gradientTransform="matrix(-171.82392,-171.82392,171.82392,-171.82392,5127.1884,3582.1907)"
       gradientUnits="userSpaceOnUse"
       y2="0"
       x2="1"
       y1="0"
       x1="0">
      <stop
         id="stop6530"
         offset="0"
         style="stop-opacity:1;stop-color:#259cdf" />
      <stop
         id="stop6532"
         offset="0.2623"
         style="stop-opacity:1;stop-color:#259cdf" />
      <stop
         id="stop6534"
         offset="0.3014"
         style="stop-opacity:1;stop-color:#2293d8" />
      <stop
         id="stop6536"
         offset="0.4162"
         style="stop-opacity:1;stop-color:#1b7bc7" />
      <stop
         id="stop6538"
         offset="0.5379"
         style="stop-opacity:1;stop-color:#1c66b7" />
      <stop
         id="stop6540"
         offset="0.668"
         style="stop-opacity:1;stop-color:#2259ab" />
      <stop
         id="stop6542"
         offset="0.8125"
         style="stop-opacity:1;stop-color:#24519e" />
      <stop
         id="stop6544"
         offset="1"
         style="stop-opacity:1;stop-color:#244f98" />
    </linearGradient>
  </defs>
  <sodipodi:namedview
     id="base"
     pagecolor="#ffffff"
     bordercolor="#666666"
     borderopacity="1.0"
     inkscape:pageopacity="0.0"
     inkscape:pageshadow="2"
     inkscape:zoom="1.979899"
     inkscape:cx="77.261552"
     inkscape:cy="-80.844042"
     inkscape:document-units="px"
     inkscape:current-layer="layer1"
     showgrid="false"
     inkscape:window-width="1280"
     inkscape:window-height="695"
     inkscape:window-x="0"
     inkscape:window-y="1"
     inkscape:window-maximized="1"
     fit-margin-top="0"
     fit-margin-left="0"
     fit-margin-right="0"
     fit-margin-bottom="0" />
  <metadata
     id="metadata7">
    <rdf:RDF>
      <cc:Work
         rdf:about="">
        <dc:format>image/svg+xml</dc:format>
        <dc:type
           rdf:resource="http://purl.org/dc/dcmitype/StillImage" />
        <dc:title></dc:title>
      </cc:Work>
    </rdf:RDF>
  </metadata>
  <g
     inkscape:label="Calque 1"
     inkscape:groupmode="layer"
     id="layer1"
     transform="translate(3574.2844,-133.1763)">
    <g
       id="g4751">
      <g
         transform="translate(-1126.3581,-0.74760676)"
         id="g11553">
        <path
           inkscape:connector-curvature="0"
           id="path5108"
           style="fill:#0a9096;fill-opacity:1;fill-rule:nonzero;stroke:none"
           d="m -2401.2744,152.87562 -0.2466,0.99915 0.5151,0 -0.2685,-0.99915 z m -1.2096,2.08222 0.8559,-2.73026 0.7616,0 0.8688,2.73026 -0.719,0 -0.1498,-0.55896 -0.7861,0 -0.1395,0.55896 -0.6919,0" />
        <path
           inkscape:connector-curvature="0"
           id="path5110"
           style="fill:#0a9096;fill-opacity:1;fill-rule:nonzero;stroke:none"
           d="m -2398.1427,153.14412 c 0,-0.24398 -0.087,-0.36532 -0.4015,-0.36532 l -0.3446,0 0,0.77325 0.3563,0 c 0.2349,0 0.3898,-0.10586 0.3898,-0.40793 z m -1.4226,-0.91654 1.0999,0 c 0.7565,0 1.0405,0.38727 1.0405,0.91267 0,0.37436 -0.1511,0.65836 -0.448,0.81843 l 0.5319,0.99916 -0.7965,0 -0.4118,-0.86491 -0.3395,0 0,0.86491 -0.6765,0 0,-2.73026" />
        <path
           inkscape:connector-curvature="0"
           id="path5112"
           style="fill:#0a9096;fill-opacity:1;fill-rule:nonzero;stroke:none"
           d="m -2396.2012,152.7788 0,1.62008 0.2556,0 c 0.559,0 0.599,-0.33951 0.599,-0.80036 0,-0.53314 -0.054,-0.81972 -0.6584,-0.81972 l -0.1962,0 z m -0.6764,-0.55122 0.892,0 c 1.0224,0 1.3632,0.48409 1.3632,1.33996 0,0.64674 -0.2001,1.3903 -1.358,1.3903 l -0.8972,0 0,-2.73026" />
        <path
           inkscape:connector-curvature="0"
           id="path5114"
           style="fill:#0a9096;fill-opacity:1;fill-rule:nonzero;stroke:none"
           d="m -2392.6241,152.22758 0.6493,0 0,1.79436 c 0,0.80552 -0.617,0.9785 -1.0985,0.9785 -0.466,0 -1.0624,-0.15491 -1.0624,-0.98238 l 0,-1.79048 0.6751,0 0,1.66397 c 0,0.45311 0.1601,0.55896 0.4157,0.55896 0.3072,0 0.4208,-0.13941 0.4208,-0.55508 l 0,-1.66785" />
        <path
           inkscape:connector-curvature="0"
           id="path5116"
           style="fill:#0a9096;fill-opacity:1;fill-rule:nonzero;stroke:none"
           d="m -2391.3693,154.39888 0.7048,0 0,-1.61105 -0.7048,0 0,-0.56025 2.0912,0 0,0.56025 -0.71,0 0,1.61105 0.71,0 0,0.55896 -2.0912,0 0,-0.55896" />
        <path
           inkscape:connector-curvature="0"
           id="path5118"
           style="fill:#0a9096;fill-opacity:1;fill-rule:nonzero;stroke:none"
           d="m -2388.0814,154.95784 -0.6377,0 0,-2.73026 0.7332,0 0.8869,1.63945 0,-1.63945 0.6299,0 0,2.73026 -0.6842,0 -0.932,-1.74659 0,1.74659" />
        <path
           inkscape:connector-curvature="0"
           id="path5120"
           style="fill:#0a9096;fill-opacity:1;fill-rule:nonzero;stroke:none"
           d="m -2384.4243,153.59336 c 0,-0.66869 -0.054,-0.85329 -0.4531,-0.85329 -0.3615,0 -0.426,0.21558 -0.426,0.88427 0,0.54863 0.04,0.82617 0.4286,0.82617 0.3963,0 0.4505,-0.22719 0.4505,-0.85715 z m 0.719,0 c 0,0.79003 -0.2904,1.40708 -1.1695,1.40708 -0.7849,0 -1.1463,-0.47505 -1.1463,-1.3761 0,-0.82489 0.3162,-1.4329 1.1437,-1.4329 0.7758,0 1.1721,0.36016 1.1721,1.40192" />
        <path
           inkscape:connector-curvature="0"
           id="path5122"
           style="fill:#90705c;fill-opacity:1;fill-rule:nonzero;stroke:none"
           d="m -2400.6651,157.6016 c 0,-0.68547 -0.102,-0.95397 -0.5809,-0.95397 -0.457,0 -0.5706,0.27754 -0.5706,0.97592 0,0.60801 0.085,0.9359 0.5654,0.9359 0.4725,0 0.5861,-0.3124 0.5861,-0.95785 z m 0.5732,0 c 0,0.79778 -0.3266,1.40708 -1.1593,1.40708 -0.7913,0 -1.1411,-0.49958 -1.1411,-1.38513 0,-0.83263 0.3382,-1.42516 1.1463,-1.42516 0.7849,0 1.1541,0.4118 1.1541,1.40321" />
        <path
           inkscape:connector-curvature="0"
           id="path5124"
           style="fill:#90705c;fill-opacity:1;fill-rule:nonzero;stroke:none"
           d="m -2398.0084,157.17302 c 0,-0.28529 -0.1007,-0.48667 -0.4815,-0.48667 l -0.4338,0 0,0.96172 0.4492,0 c 0.2957,0 0.4661,-0.12134 0.4661,-0.47505 z m -1.4575,-0.9359 1.0302,0 c 0.7306,0 1.0043,0.38211 1.0043,0.91396 0,0.57187 -0.3679,0.94494 -1.025,0.94494 l -0.4673,0 0,0.87135 -0.5422,0 0,-2.73025" />
        <path
           inkscape:connector-curvature="0"
           id="path5126"
           style="fill:#90705c;fill-opacity:1;fill-rule:nonzero;stroke:none"
           d="m -2394.8044,156.23712 0,0.44923 -1.389,0 0,0.66353 1.2586,0 0,0.44406 -1.2586,0 0,0.71904 1.3851,0 0,0.45439 -1.926,0 0,-2.73025 1.9299,0" />
        <path
           inkscape:connector-curvature="0"
           id="path5128"
           style="fill:#90705c;fill-opacity:1;fill-rule:nonzero;stroke:none"
           d="m -2393.6207,158.96737 -0.5112,0 0,-2.73025 0.5926,0 1.0611,1.85631 0,-1.85631 0.5034,0 0,2.73025 -0.5486,0 -1.1011,-1.94151 0,1.94151" />
        <path
           inkscape:connector-curvature="0"
           id="path5130"
           style="fill:#90705c;fill-opacity:1;fill-rule:nonzero;stroke:none"
           d="m -2390.8982,158.12183 1.1497,0 0,-0.44022 -1.1497,0 0,0.44022 z" />
        <path
           inkscape:connector-curvature="0"
           id="path5132"
           style="fill:#90705c;fill-opacity:1;fill-rule:nonzero;stroke:none"
           d="m -2388.5423,156.95873 c 0,-0.44407 0.448,-0.76034 1.0108,-0.76034 0.3072,0 0.5796,0.0633 0.8365,0.20655 l -0.1536,0.50345 c -0.1756,-0.15491 -0.4015,-0.26076 -0.679,-0.26076 -0.2556,0 -0.4389,0.08 -0.4389,0.27367 0,0.49054 1.3799,0.32789 1.3799,1.28057 0,0.57058 -0.5253,0.80681 -1.1037,0.80681 -0.2995,0 -0.6299,-0.0684 -0.9062,-0.24785 l 0.1743,-0.49958 c 0.2156,0.18718 0.4789,0.30207 0.7849,0.30207 0.2659,0 0.4711,-0.0891 0.4711,-0.30594 0,-0.57962 -1.3761,-0.37049 -1.3761,-1.29865" />
        <path
           inkscape:connector-curvature="0"
           id="path5134"
           style="fill:#90705c;fill-opacity:1;fill-rule:nonzero;stroke:none"
           d="m -2384.2888,157.6016 c 0,-0.68547 -0.1006,-0.95397 -0.5809,-0.95397 -0.4569,0 -0.5705,0.27754 -0.5705,0.97592 0,0.60801 0.084,0.9359 0.5628,0.9359 0.4751,0 0.5886,-0.3124 0.5886,-0.95785 z m 0.5745,0 c 0,0.79778 -0.3292,1.40708 -1.1631,1.40708 -0.7887,0 -1.1386,-0.49958 -1.1386,-1.38513 0,-0.83263 0.3357,-1.42516 1.1463,-1.42516 0.7849,0 1.1554,0.4118 1.1554,1.40321" />
        <path
           inkscape:connector-curvature="0"
           id="path5136"
           style="fill:#90705c;fill-opacity:1;fill-rule:nonzero;stroke:none"
           d="m -2381.6153,156.23712 0.5254,0 0,1.7595 c 0,0.73452 -0.466,1.01206 -1.0624,1.01206 -0.5796,0 -1.0314,-0.24011 -1.0314,-0.99915 l 0,-1.77241 0.5408,0 0,1.67946 c 0,0.50732 0.1717,0.64674 0.5112,0.64674 0.386,0 0.5164,-0.17685 0.5164,-0.65449 l 0,-1.67171" />
        <path
           inkscape:connector-curvature="0"
           id="path5138"
           style="fill:#90705c;fill-opacity:1;fill-rule:nonzero;stroke:none"
           d="m -2378.9599,157.12784 c 0,-0.30723 -0.1278,-0.44149 -0.4841,-0.44149 l -0.4195,0 0,0.8946 0.4311,0 c 0.2737,0 0.4725,-0.11231 0.4725,-0.45311 z m -1.4471,-0.89072 1.0133,0 c 0.7294,0 1.0082,0.34983 1.0082,0.88039 0,0.37566 -0.1639,0.65191 -0.4711,0.79907 l 0.577,1.05079 -0.6442,0 -0.4789,-0.94623 -0.4608,0 0,0.94623 -0.5435,0 0,-2.73025" />
        <path
           inkscape:connector-curvature="0"
           id="path5140"
           style="fill:#90705c;fill-opacity:1;fill-rule:nonzero;stroke:none"
           d="m -2375.6282,158.79439 c -0.2775,0.14587 -0.546,0.21429 -0.8558,0.21429 -0.7849,0 -1.2354,-0.46601 -1.2354,-1.40321 0,-0.89846 0.5138,-1.40708 1.3077,-1.40708 0.2801,0 0.5447,0.0723 0.7577,0.20267 l -0.1794,0.46086 c -0.1988,-0.15491 -0.3911,-0.21429 -0.6054,-0.21429 -0.4622,0 -0.7049,0.31498 -0.7049,0.94493 0,0.639 0.2221,0.97076 0.71,0.97076 0.266,0 0.4996,-0.08 0.6803,-0.20138 l 0.1252,0.43245" />
        <path
           inkscape:connector-curvature="0"
           id="path5142"
           style="fill:#90705c;fill-opacity:1;fill-rule:nonzero;stroke:none"
           d="m -2372.9676,156.23712 0,0.44923 -1.3929,0 0,0.66353 1.2599,0 0,0.44406 -1.2599,0 0,0.71904 1.3877,0 0,0.45439 -1.9286,0 0,-2.73025 1.9338,0" />
        <path
           inkscape:connector-curvature="0"
           id="path5144"
           style="fill:#f14d22;fill-opacity:1;fill-rule:nonzero;stroke:none"
           d="m -2400.1913,162.80135 c -0.2763,0.14716 -0.5461,0.21558 -0.8572,0.21558 -0.7836,0 -1.2328,-0.46602 -1.2328,-1.40321 0,-0.89847 0.5125,-1.40708 1.3038,-1.40708 0.284,0 0.5473,0.0723 0.7616,0.20267 l -0.182,0.46085 c -0.1962,-0.15491 -0.3886,-0.213 -0.6028,-0.213 -0.4622,0 -0.7075,0.31498 -0.7075,0.94494 0,0.63641 0.2247,0.96947 0.71,0.96947 0.266,0 0.5009,-0.08 0.6816,-0.20138 l 0.1253,0.43116" />
        <path
           inkscape:connector-curvature="0"
           id="path5146"
           style="fill:#f14d22;fill-opacity:1;fill-rule:nonzero;stroke:none"
           d="m -2397.9361,161.60855 c 0,-0.68288 -0.1007,-0.95139 -0.5797,-0.95139 -0.4569,0 -0.5705,0.27625 -0.5705,0.97463 0,0.60672 0.084,0.93461 0.5615,0.93461 0.4738,0 0.5887,-0.30981 0.5887,-0.95785 z m 0.5744,0 c 0,0.79778 -0.3266,1.40838 -1.1631,1.40838 -0.7874,0 -1.1373,-0.49958 -1.1373,-1.38514 0,-0.83263 0.3369,-1.42515 1.1463,-1.42515 0.7849,0 1.1541,0.41308 1.1541,1.40191" />
        <path
           inkscape:connector-curvature="0"
           id="path5148"
           style="fill:#f14d22;fill-opacity:1;fill-rule:nonzero;stroke:none"
           d="m -2395.1104,161.08703 -0.4647,0.94236 -0.386,0 -0.506,-0.9785 0,1.92344 -0.4363,0 0,-2.72897 0.4789,0 0.6545,1.25089 0.639,-1.25089 0.466,0 0,2.72897 -0.4454,0 0,-1.8873" />
        <path
           inkscape:connector-curvature="0"
           id="path5150"
           style="fill:#f14d22;fill-opacity:1;fill-rule:nonzero;stroke:none"
           d="m -2392.3827,161.08703 -0.4634,0.94236 -0.3873,0 -0.5047,-0.9785 0,1.92344 -0.4364,0 0,-2.72897 0.479,0 0.6557,1.25089 0.6377,-1.25089 0.4661,0 0,2.72897 -0.4467,0 0,-1.8873" />
        <path
           inkscape:connector-curvature="0"
           id="path5152"
           style="fill:#f14d22;fill-opacity:1;fill-rule:nonzero;stroke:none"
           d="m -2389.8035,160.24536 0.5254,0 0,1.75821 c 0,0.73581 -0.466,1.01336 -1.0637,1.01336 -0.5783,0 -1.0327,-0.23882 -1.0327,-1.00045 l 0,-1.77112 0.5422,0 0,1.67946 c 0,0.50862 0.1717,0.64675 0.5125,0.64675 0.3872,0 0.5163,-0.17686 0.5163,-0.65449 l 0,-1.67172" />
        <path
           inkscape:connector-curvature="0"
           id="path5154"
           style="fill:#f14d22;fill-opacity:1;fill-rule:nonzero;stroke:none"
           d="m -2388.1615,162.97433 -0.5124,0 0,-2.72897 0.5925,0 1.0624,1.85503 0,-1.85503 0.5034,0 0,2.72897 -0.5499,0 -1.0998,-1.94023 0,1.94023" />
        <path
           inkscape:connector-curvature="0"
           id="path5156"
           style="fill:#f14d22;fill-opacity:1;fill-rule:nonzero;stroke:none"
           d="m -2385.8636,162.51993 0.7241,0 0,-1.82146 -0.7241,0 0,-0.45311 2.0073,0 0,0.45311 -0.7397,0 0,1.82146 0.7397,0 0,0.4544 -2.0073,0 0,-0.4544" />
        <path
           inkscape:connector-curvature="0"
           id="path5158"
           style="fill:#f14d22;fill-opacity:1;fill-rule:nonzero;stroke:none"
           d="m -2381.0073,160.6946 -0.861,0 0,2.27973 -0.5409,0 0,-2.27973 -0.861,0 0,-0.44924 2.2629,0 0,0.44924" />
        <path
           inkscape:connector-curvature="0"
           id="path5160"
           style="fill:#f14d22;fill-opacity:1;fill-rule:nonzero;stroke:none"
           d="m -2379.3601,161.46656 0.5615,-1.2212 0.5422,0 -0.8558,1.65494 0,1.07403 -0.5474,0 0,-1.06241 -0.8972,-1.66656 0.5822,0 0.6145,1.2212" />
        <path
           inkscape:connector-curvature="0"
           id="path5162"
           style="fill:#3ebab2;fill-opacity:1;fill-rule:nonzero;stroke:none"
           d="m -2428.6647,140.92059 0.1278,-0.23623 c -1.1799,-0.62867 -2.3959,-1.04176 -3.6158,-1.21474 -0.5048,-0.0736 -1.016,-0.11102 -1.5143,-0.11102 -4.0289,0 -7.6318,2.4256 -8.9691,6.03109 l 1.2973,0.48021 c 1.136,-3.06589 4.2187,-5.12616 7.6718,-5.12616 0.4351,0 0.8791,0.031 1.3206,0.0942 2.3404,0.33564 4.5905,1.61105 6.6843,3.79525 l 0.7642,-0.73323 c -1.0327,-1.10243 -2.29,-2.18033 -3.7668,-2.9794" />
        <path
           inkscape:connector-curvature="0"
           id="path5164"
           style="fill:#3ebab2;fill-opacity:1;fill-rule:nonzero;stroke:none"
           d="m -2438.118,157.06717 c -3.4712,-1.61621 -5.7148,-5.02935 -5.7148,-8.69809 0,-1.85502 0.5448,-3.65324 1.5723,-5.19329 0.3912,-0.58994 0.8533,-1.13857 1.3748,-1.63815 l 0.6364,0.66611 c -0.4711,0.4531 -0.8894,0.95139 -1.2431,1.48195 -0.9295,1.3903 -1.42,3.00909 -1.42,4.68338 0,3.36409 1.9867,6.37447 5.1843,7.86288 l -0.3899,0.83521" />
        <path
           inkscape:connector-curvature="0"
           id="path5166"
           style="fill:#3ebab2;fill-opacity:1;fill-rule:nonzero;stroke:none"
           d="m -2421.202,149.5012 -0.3989,-0.93203 c -0.038,-0.0723 -0.087,-0.1691 -0.1485,-0.2827 -0.6984,1.32575 -4.3813,7.79703 -10.4356,8.66323 -0.4957,0.0697 -1.0043,0.23107 -1.4884,0.23107 -1.4097,0 -2.7613,-0.2982 -4.0199,-0.88298 l -0.4608,0.84554 c 1.4032,0.6532 2.9096,0.98496 4.482,0.98625 0.5344,0 1.0804,-0.0413 1.6252,-0.11876 5.8413,-0.83393 9.5294,-6.17696 10.8875,-8.52769 l -0.043,0.0181" />
        <path
           inkscape:connector-curvature="0"
           id="path5168"
           style="fill:#f14d22;fill-opacity:1;fill-rule:nonzero;stroke:none"
           d="m -2419.9202,154.00515 c -1.185,1.60976 -2.4914,3.00393 -3.8946,4.1425 l 0.3382,0.41567 c 1.3877,-1.12437 2.6838,-2.49144 3.8598,-4.06375 2.4101,3.28792 6.4183,7.18773 12.2313,8.01778 l 0.1381,-0.9643 c -5.9407,-0.84813 -9.9206,-5.04871 -12.2842,-8.62322 -0.111,-0.1691 -0.3886,1.07532 -0.3886,1.07532" />
        <path
           inkscape:connector-curvature="0"
           id="path5170"
           style="fill:#f8a00e;fill-opacity:1;fill-rule:nonzero;stroke:none"
           d="m -2404.3971,158.01211 c -0.7655,0.0516 -1.5478,0.0219 -2.3314,-0.0891 -1.784,-0.25688 -3.5151,-0.96817 -5.1416,-2.11836 l -0.5061,0.71387 c 1.7428,1.23151 3.6004,1.99573 5.5238,2.27069 0.5809,0.0826 1.1644,0.12522 1.735,0.12522 0.2427,0 0.4828,-0.0103 0.7203,-0.0258 l 0,-0.87652" />
        <path
           inkscape:connector-curvature="0"
           id="path5172"
           style="fill:#f14d22;fill-opacity:1;fill-rule:nonzero;stroke:none"
           d="m -2420.7399,149.3024 -0.4621,0.1988 -0.3989,-0.93203 c -0.2995,-0.58994 -1.42,-2.6657 -3.297,-4.66918 l -0.7642,0.73323 c 1.6446,1.71302 2.6334,3.41185 2.982,4.06375 l 1.4032,2.44884 1.1992,-0.68934 -0.6622,-1.15407" />
        <path
           inkscape:connector-curvature="0"
           id="path5174"
           style="fill:#3ebab2;fill-opacity:1;fill-rule:nonzero;stroke:none"
           d="m -2405.1174,157.2324 c -0.497,0 -0.9992,-0.0349 -1.4962,-0.10585 -6.2492,-0.8933 -9.9051,-7.23808 -10.5737,-8.50058 l 0.9668,-0.51248 c 0.3834,0.72419 3.9166,7.09478 9.7618,7.92999 0.4454,0.0633 0.8972,0.0968 1.3413,0.0968 l 0,1.0921" />
        <path
           inkscape:connector-curvature="0"
           id="path5176"
           style="fill:#0a9096;fill-opacity:1;fill-rule:nonzero;stroke:none"
           d="m -2396.4077,145.93186 c -0.4183,-1.35286 -1.1941,-2.59987 -2.2475,-3.60935 -1.3825,-1.3193 -3.1369,-2.16484 -5.0732,-2.44109 l 0.1781,-1.24572 c 2.1971,0.32272 4.1877,1.28057 5.7587,2.78318 1.207,1.15535 2.1003,2.58696 2.5793,4.14508 l -1.1954,0.3679" />
        <path
           inkscape:connector-curvature="0"
           id="path5178"
           style="fill:#0a9096;fill-opacity:1;fill-rule:nonzero;stroke:none"
           d="m -2413.1365,141.94944 -0.5899,-0.67256 c 2.1248,-1.86793 4.4368,-2.98973 6.874,-3.33827 0.5745,-0.0774 1.1567,-0.11618 1.7324,-0.11618 2.9652,0 5.7445,1.08436 7.8241,3.0788 l -0.6183,0.64674 c -1.9144,-1.8305 -4.473,-2.83482 -7.2058,-2.83482 -0.5331,0 -1.074,0.0387 -1.6072,0.11618 -2.259,0.32273 -4.4161,1.36836 -6.4093,3.12011" />
        <path
           inkscape:connector-curvature="0"
           id="path5180"
           style="fill:#f8a00e;fill-opacity:1;fill-rule:nonzero;stroke:none"
           d="m -2417.6805,150.65914 -3.1007,-1.47679 0.7371,-1.55037 c 0.4789,-1.0069 2.2901,-4.5104 5.4786,-7.31037 l 1.2909,-1.13083 2.2668,2.57922 -1.2896,1.13212 c -2.7651,2.42948 -4.3542,5.59605 -4.6447,6.20536 l -0.7384,1.55166" />
        <path
           inkscape:connector-curvature="0"
           id="path5182"
           style="fill:#0a9096;fill-opacity:1;fill-rule:nonzero;stroke:none"
           d="m -2443.9387,152.51158 c -0.5731,-1.30768 -0.8649,-2.70056 -0.8649,-4.1425 0,-2.85418 1.1541,-5.52892 3.2466,-7.53111 0.7333,-0.69966 1.5595,-1.29735 2.4553,-1.77628 l 0.5035,0.94882 c -0.8081,0.43116 -1.5555,0.97075 -2.2165,1.602 -1.8795,1.79952 -2.9161,4.19801 -2.9161,6.75657 0,1.29219 0.262,2.54179 0.7732,3.71134 l -0.9811,0.43116" />
        <path
           inkscape:connector-curvature="0"
           id="path5184"
           style="fill:#f8a00e;fill-opacity:1;fill-rule:nonzero;stroke:none"
           d="m -2440.2428,142.2102 -0.648,-0.67772 c 1.9169,-1.83308 4.4845,-2.84515 7.2238,-2.84515 0.5345,0 1.0753,0.0387 1.6098,0.11618 1.3077,0.18073 2.5999,0.62222 3.8391,1.2922 l -0.4466,0.82488 c -1.1399,-0.61834 -2.3262,-1.01723 -3.5242,-1.18763 -0.4918,-0.0697 -0.9862,-0.10456 -1.4781,-0.10456 -2.4992,0 -4.8331,0.91525 -6.5758,2.5818" />
        <path
           inkscape:connector-curvature="0"
           id="path5186"
           style="fill:#f8a00e;fill-opacity:1;fill-rule:nonzero;stroke:none"
           d="m -2446.6638,148.36908 -0.5731,0 c 0,-3.52415 1.42,-6.82498 4.0005,-9.29448 l 0.395,0.41826 c -2.4656,2.35718 -3.8224,5.50827 -3.8224,8.87622" />
        <path
           inkscape:connector-curvature="0"
           id="path5188"
           style="fill:#0a9096;fill-opacity:1;fill-rule:nonzero;stroke:none"
           d="m -2424.0097,138.58406 c -2.3133,-1.84599 -4.8487,-2.98198 -7.5363,-3.36925 -0.7036,-0.10327 -1.4174,-0.142 -2.121,-0.142 -2.7844,0 -5.4566,0.77454 -7.7312,2.25908 l -0.4156,-0.64545 c 2.3959,-1.56199 5.2152,-2.38817 8.1468,-2.38817 0.7397,0 1.4897,0.0645 2.2294,0.16782 2.8232,0.40018 5.4838,1.58781 7.9042,3.52416 l -0.4763,0.59381" />
        <path
           inkscape:connector-curvature="0"
           id="path5190"
           style="fill:#0a9096;fill-opacity:1;fill-rule:nonzero;stroke:none"
           d="m -2418.6409,143.53854 -1.5065,-1.06241 c 2.4101,-3.41444 6.5733,-7.67441 12.7218,-8.55222 l 0.2595,1.83308 c -5.4966,0.77454 -9.2738,4.66273 -11.4748,7.78155" />
        <path
           inkscape:connector-curvature="0"
           id="path5192"
           style="fill:#3ebab2;fill-opacity:1;fill-rule:nonzero;stroke:none"
           d="m -2416.915,143.75928 -1.065,-0.80681 c 2.1068,-2.78964 5.6994,-6.26603 10.8449,-7.00184 0.6687,-0.0904 1.3464,-0.142 2.0151,-0.142 1.7337,0 3.4118,0.30981 4.9893,0.94235 l -0.4918,1.23927 c -1.42,-0.568 -2.9342,-0.852 -4.4975,-0.852 -0.6067,0 -1.2212,0.0516 -1.8279,0.12909 -4.6924,0.67127 -8.0101,3.9011 -9.9671,6.49194" />
        <path
           inkscape:connector-curvature="0"
           id="path5194"
           style="fill:#3ebab2;fill-opacity:1;fill-rule:nonzero;stroke:none"
           d="m -2419.0643,145.93445 -1.4923,-0.60802 0.4441,-1.08823 0.039,-0.062 c 1.9247,-3.04652 6.146,-8.30307 12.7902,-9.24543 0.7178,-0.10327 1.4459,-0.1549 2.1636,-0.1549 l 0,1.61362 c -0.6416,0 -1.2922,0.0387 -1.9364,0.12909 -5.6696,0.81327 -9.4429,5.03451 -11.6193,8.45798 l -0.3886,0.95785" />
        <path
           inkscape:connector-curvature="0"
           id="path5196"
           style="fill:#3ebab2;fill-opacity:1;fill-rule:nonzero;stroke:none"
           d="m -2419.0888,144.28468 -0.772,-0.94752 c -1.2819,-1.8163 -2.7186,-3.36538 -4.269,-4.6111 l 0.7164,-0.89072 c 1.6292,1.30381 3.1356,2.92776 4.4756,4.82538 l 0.7345,0.89847 -0.8855,0.72549" />
        <path
           inkscape:connector-curvature="0"
           id="path5198"
           style="fill:#f14d22;fill-opacity:1;fill-rule:nonzero;stroke:none"
           d="m -2395.3969,138.9197 c -2.5922,-2.49144 -6.0453,-3.84689 -9.7231,-3.84689 -0.7048,0 -1.4174,0.0387 -2.1197,0.142 l -0.1097,-0.74872 c 0.7384,-0.10327 1.4897,-0.16782 2.2294,-0.16782 3.8727,0 7.5156,1.44581 10.2523,4.06634 l -0.5292,0.55509" />
        <path
           inkscape:connector-curvature="0"
           id="path5200"
           style="fill:#0a9096;fill-opacity:1;fill-rule:nonzero;stroke:none"
           d="m -2431.7319,160.21567 -0.2788,-1.94926 c 7.7905,-1.11275 11.671,-10.1852 11.7097,-10.27556 0.1717,-0.41438 4.3361,-10.19424 13.2446,-11.47223 l 0.2802,1.94926 c -7.8138,1.11792 -11.6711,10.18778 -11.7098,10.28073 -0.1717,0.41438 -4.3374,10.19424 -13.2459,11.46706" />
        <path
           inkscape:connector-curvature="0"
           id="path5202"
           style="fill:#0a9096;fill-opacity:1;fill-rule:nonzero;stroke:none"
           d="m -2439.9162,158.24576 0.8546,-1.47034 c 2.0964,1.21732 4.5246,1.67301 7.0263,1.31543 l 0.2414,1.68075 c 1.6291,-0.23236 3.2195,-0.78874 4.7299,-1.65751 l -1.4265,-2.48111 c -1.194,0.68547 -2.4423,1.12437 -3.71,1.30639 -0.4906,0.0697 -0.985,0.10456 -1.4729,0.10456 -2.476,0 -4.7944,-0.91137 -6.5242,-2.56502 -0.8365,-0.80165 -1.4884,-1.72851 -1.9377,-2.75736 l -2.4591,1.07661 c 0.586,1.33867 1.4419,2.5676 2.543,3.61969 l -0.1239,0.12909 c 0.6881,0.65835 1.4471,1.22635 2.2591,1.69882" />
        <path
           inkscape:connector-curvature="0"
           id="path5204"
           style="fill:#0a9096;fill-opacity:1;fill-rule:nonzero;stroke:none"
           d="m -2433.6721,160.65587 c -3.4119,0 -6.6172,-1.26766 -9.0208,-3.56805 l 0.5396,-0.56541 c 2.259,2.16097 5.272,3.35117 8.4799,3.35117 0.6196,0 1.2496,-0.0452 1.8731,-0.13425 6.4248,-0.91654 10.3078,-6.35381 12.0544,-9.52555 l 0.4441,-1.0495 0.7203,0.30465 -0.4699,1.10372 c -1.8124,3.29696 -5.8671,8.97434 -12.6379,9.94122 -0.6597,0.0942 -1.3271,0.142 -1.9828,0.142" />
        <path
           inkscape:connector-curvature="0"
           id="path5206"
           style="fill:#0a9096;fill-opacity:1;fill-rule:nonzero;stroke:none"
           d="m -2433.6721,162.76907 c -3.9592,0 -7.6835,-1.4755 -10.4821,-4.1554 l 0.9901,-1.03272 c 2.5314,2.42172 5.902,3.75522 9.4907,3.75522 0.6906,0 1.389,-0.0478 2.0796,-0.14716 2.6786,-0.3821 5.1998,-1.52326 7.4976,-3.38861 l 0.9023,1.11017 c -2.5018,2.03188 -5.2591,3.27502 -8.1972,3.69456 -0.7565,0.10843 -1.5246,0.16394 -2.281,0.16394" />
        <path
           inkscape:connector-curvature="0"
           id="path5208"
           style="fill:#f8a00e;fill-opacity:1;fill-rule:nonzero;stroke:none"
           d="m -2431.5305,161.63179 -0.1769,-1.24055 c 5.7716,-0.82489 9.5901,-5.11713 11.7782,-8.57803 0.066,-0.11748 0.6558,-1.13858 0.8817,-1.56845 l 1.1089,0.58349 c -0.2505,0.47505 -0.8856,1.5749 -0.9127,1.62137 l -0.013,0.0219 c -2.3288,3.68681 -6.4145,8.26822 -12.6663,9.16023" />
        <path
           inkscape:connector-curvature="0"
           id="path5210"
           style="fill:#3ebab2;fill-opacity:1;fill-rule:nonzero;stroke:none"
           d="m -2439.8697,158.16701 c -3.5939,-2.08609 -5.7381,-5.74966 -5.7381,-9.79793 0,-0.58865 0.047,-1.17988 0.1381,-1.75562 l 0.8843,0.13942 c -0.087,0.53185 -0.1291,1.07403 -0.1291,1.6162 0,3.72554 1.9802,7.09995 5.2927,9.02469 l -0.4479,0.77324" />
        <path
           inkscape:connector-curvature="0"
           id="path5212"
           style="fill:#f14d22;fill-opacity:1;fill-rule:nonzero;stroke:none"
           d="m -2444.1814,146.81742 -1.6949,-0.26851 c 0.4905,-3.09299 2.201,-5.82712 4.8151,-7.69376 2.6553,-1.89762 5.96,-2.68507 9.3125,-2.20744 0.7539,0.10327 1.5052,0.284 2.2346,0.51636 l -0.5358,1.63944 c -0.6338,-0.20654 -1.2883,-0.36145 -1.9415,-0.45181 -5.9446,-0.85199 -11.3005,2.86838 -12.19,8.46572" />
        <path
           inkscape:connector-curvature="0"
           id="path5214"
           style="fill:#f8a00e;fill-opacity:1;fill-rule:nonzero;stroke:none"
           d="m -2444.4008,158.87314 c -1.5672,-1.49874 -2.7522,-3.25953 -3.5255,-5.23073 l 1.9971,-0.78487 c 0.6583,1.68076 1.673,3.18336 3.0129,4.46394 l -1.4845,1.55166" />
        <path
           inkscape:connector-curvature="0"
           id="path5216"
           style="fill:#3ebab2;fill-opacity:1;fill-rule:nonzero;stroke:none"
           d="m -2433.6721,161.78541 c -3.7062,-0.001 -7.1865,-1.37997 -9.8018,-3.88174 -2.3805,-2.27844 -3.8237,-5.31076 -4.0664,-8.54059 l 0,-0.0232 -0.035,-0.94623 1.2509,-0.0478 0.035,0.9359 c 0.2208,2.91614 1.5284,5.65801 3.6817,7.717 2.3804,2.27973 5.5547,3.53448 8.9343,3.53448 0.6519,0 1.3115,-0.0478 1.966,-0.14199 l 0.1794,1.24055 c -0.7138,0.10069 -1.4354,0.15362 -2.1441,0.15362" />
        <path
           inkscape:connector-curvature="0"
           id="path5218"
           style="fill:#f8a00e;fill-opacity:1;fill-rule:nonzero;stroke:none"
           d="m -2427.9225,157.40667 -0.3885,-0.67772 0.3395,-0.19363 c 4.4187,-2.53791 6.8856,-7.38782 7.3375,-8.33276 l 0.1665,-0.35371 0.7061,0.33693 -0.1678,0.35241 c -0.4686,0.98496 -3.0336,6.02334 -7.6538,8.67485 l -0.3395,0.19363" />
        <path
           inkscape:connector-curvature="0"
           id="path5220"
           style="fill:#0a9096;fill-opacity:1;fill-rule:nonzero;stroke:none"
           d="m -2418.1607,147.85789 c -0.039,-0.0968 -0.3175,-0.7526 -0.8468,-1.71432 l 0.2001,-0.10972 c -1.8447,-3.34344 -5.9627,-9.10214 -12.8432,-10.08322 -0.6687,-0.0904 -1.3477,-0.142 -2.0164,-0.142 l 0,1.32962 c 0.6055,0 1.2212,0.0516 1.8292,0.12909 0.7436,0.11618 1.451,0.284 2.1261,0.50345 l -0.4905,1.48454 c 6.3512,2.08739 9.5462,9.55395 9.5759,9.62753 0.1756,0.42084 4.4162,10.38142 13.5209,11.68136 l 0.3769,-2.64506 c -7.5866,-1.08435 -11.3935,-9.97349 -11.4322,-10.06127" />
        <path
           inkscape:connector-curvature="0"
           id="path5222"
           style="fill:#f8a00e;fill-opacity:1;fill-rule:nonzero;stroke:none"
           d="m -2393.0927,148.36908 -1.074,0 c 0,-2.95616 -1.3038,-5.78323 -3.5784,-7.75443 -2.4437,-2.12095 -5.7574,-3.06331 -9.0957,-2.58568 l -0.151,-1.05853 c 3.6455,-0.52927 7.2729,0.50345 9.9502,2.83223 2.5083,2.17775 3.9489,5.29915 3.9489,8.56641" />
        <path
           inkscape:connector-curvature="0"
           id="path5224"
           style="fill:#f8a00e;fill-opacity:1;fill-rule:nonzero;stroke:none"
           d="m -2435.025,152.87432 2.9025,0 0,-9.00755 -2.9025,0 0,9.00755 z" />
        <path
           inkscape:connector-curvature="0"
           id="path5226"
           style="fill:#0a9096;fill-opacity:1;fill-rule:nonzero;stroke:none"
           d="m -2438.078,149.82135 9.0066,0 0,-2.90251 -9.0066,0 0,2.90251 z" />
        <path
           inkscape:connector-curvature="0"
           id="path5228"
           style="fill:#3ebab2;fill-opacity:1;fill-rule:nonzero;stroke:none"
           d="m -2390.4321,149.68193 -1.1464,-0.10844 c 0.036,-0.3963 0.056,-0.79906 0.056,-1.20441 0,-3.53319 -1.4238,-6.84048 -4.0069,-9.30739 l 0.7952,-0.83908 c 2.8141,2.69282 4.3645,6.29572 4.3645,10.14647 0,0.4402 -0.021,0.8804 -0.062,1.31285" />
        <path
           inkscape:connector-curvature="0"
           id="path5230"
           style="fill:#0a9096;fill-opacity:1;fill-rule:nonzero;stroke:none"
           d="m -2394.3784,150.35191 -0.75,-0.14975 c 0.1213,-0.60414 0.1833,-1.22635 0.1833,-1.84857 0,-2.60116 -1.0521,-5.04096 -2.9652,-6.86888 l 0.5267,-0.55121 c 2.0654,1.97379 3.2001,4.6098 3.2001,7.42009 0,0.67127 -0.066,1.34383 -0.1949,1.99832" />
        <path
           inkscape:connector-curvature="0"
           id="path5232"
           style="fill:#f14d22;fill-opacity:1;fill-rule:nonzero;stroke:none"
           d="m -2395.69,150.53521 -1.7349,-0.44148 c 0.1432,-0.56025 0.2155,-1.13987 0.2168,-1.72465 0,-4.09215 -3.55,-7.42396 -7.9119,-7.42396 -0.426,0 -0.8597,0.0323 -1.2922,0.0942 -0.1149,0.0168 -0.2285,0.0349 -0.3408,0.0555 l -0.3253,-1.76208 c 0.1394,-0.0258 0.2763,-0.0387 0.4144,-0.0645 0.5163,-0.0775 1.0353,-0.11618 1.5439,-0.11618 5.3495,0 9.7024,4.13862 9.7024,9.21702 0,0.73453 -0.093,1.46259 -0.2724,2.16613" />
        <path
           inkscape:connector-curvature="0"
           id="path5234"
           style="fill:#0a9096;fill-opacity:1;fill-rule:nonzero;stroke:none"
           d="m -2410.0216,141.35046 -0.2078,-0.37307 c -4.1063,2.27715 -6.5113,6.73463 -6.9515,7.60469 l -0.4337,0.88427 -0.4596,-0.22462 -0.1898,0.42084 1.633,0.73323 0.7307,-1.63041 c 0.4299,-0.79778 3.7694,-6.68041 9.1473,-7.67053 l -0.1626,-0.87781 c -1.0547,0.19493 -2.099,0.57445 -3.106,1.13341" />
        <path
           inkscape:connector-curvature="0"
           id="path5236"
           style="fill:#3ebab2;fill-opacity:1;fill-rule:nonzero;stroke:none"
           d="m -2405.1174,161.06896 c -0.6713,0 -1.3593,-0.0491 -2.0409,-0.14587 -3.0362,-0.43375 -5.8543,-1.84599 -8.3741,-4.19414 l 1.0973,-1.1773 c 2.2758,2.11966 4.8008,3.3912 7.5065,3.77717 0.7204,0.10328 1.4484,0.14329 2.161,0.12651 l 0.037,1.60976 c -0.1278,0.003 -0.2569,0.004 -0.3873,0.004" />
      </g>
    </g>
  </g>
</svg>
