<?xml version="1.0" encoding="UTF-8" standalone="no"?>
<!-- Created with Inkscape (http://www.inkscape.org/) -->

<svg
   xmlns:dc="http://purl.org/dc/elements/1.1/"
   xmlns:cc="http://creativecommons.org/ns#"
   xmlns:rdf="http://www.w3.org/1999/02/22-rdf-syntax-ns#"
   xmlns:svg="http://www.w3.org/2000/svg"
   xmlns="http://www.w3.org/2000/svg"
   xmlns:sodipodi="http://sodipodi.sourceforge.net/DTD/sodipodi-0.dtd"
   xmlns:inkscape="http://www.inkscape.org/namespaces/inkscape"
   width="19.74946mm"
   height="15.307296mm"
   viewBox="0 0 69.978403 54.23845"
   id="svg2"
   version="1.1"
   inkscape:version="0.91 r13725"
   sodipodi:docname="operator.svg"
   inkscape:export-filename="U:\hl2\kickstarter\images\features2.png"
   inkscape:export-xdpi="234"
   inkscape:export-ydpi="234">
  <defs
     id="defs4">
    <clipPath
       id="clipPath4154"
       clipPathUnits="userSpaceOnUse">
      <path
         inkscape:connector-curvature="0"
         id="path4156"
         d="m 0,0 0,14664 6039,0 L 6039,0 0,0 Z" />
    </clipPath>
    <clipPath
       id="clipPath4160"
       clipPathUnits="userSpaceOnUse">
      <path
         inkscape:connector-curvature="0"
         id="path4162"
         d="M 3097.78,7586.17 C 2005.02,7586.17 960.301,7791.06 0,8164.22 l 0,3223.38 0,3276.7 6038.65,0 0,-6559.37 0,0 C 5121.86,7769.37 4131.28,7586.17 3097.78,7586.17 m -1226.16,4494.63 0,-1306.9 509.53,0 0,1306.9 -362.97,0 c -2.53,4 -6.97,6.6 -12.02,6.6 -5.05,0 -9.48,-2.6 -12.02,-6.6 l -122.52,0 m 1738.98,-1033 0,-186.5 124.35,0 0,186.5 436.28,0 0,634.8 -996.16,0 0,-634.8 435.53,0" />
    </clipPath>
    <linearGradient
       id="linearGradient4164"
       spreadMethod="pad"
       gradientTransform="matrix(2.90495e-7,-7012.9851,-7012.9851,-2.90495e-7,3019.3276,14644.144)"
       gradientUnits="userSpaceOnUse"
       y2="0"
       x2="1"
       y1="0"
       x1="0">
      <stop
         id="stop4166"
         offset="0"
         style="stop-opacity:1;stop-color:#193871" />
      <stop
         id="stop4168"
         offset="0.950495"
         style="stop-opacity:1;stop-color:#234e9b" />
      <stop
         id="stop4170"
         offset="1"
         style="stop-opacity:1;stop-color:#234e9b" />
    </linearGradient>
    <clipPath
       id="clipPath4356"
       clipPathUnits="userSpaceOnUse">
      <path
         inkscape:connector-curvature="0"
         id="path4358"
         d="m 2381.15,10773.9 -509.53,0 0,1306.9 122.52,0 c -1.4,-2.2 -2.23,-4.8 -2.23,-7.6 0,0 0,-20.2 0,-58.7 0,-38.5 -11.86,-160.5 -11.86,-511 l -4.09,0 c -15.57,0 -28.31,-12.7 -28.31,-28.3 l 0,-114.1 117.01,0 0,114.1 c 0,15.6 -12.74,28.3 -28.28,28.3 l -4.11,0 c 0,350.5 -11.87,472.5 -11.87,511 0,38.5 0,58.7 0,58.7 0,2.8 -0.81,5.4 -2.22,7.6 l 362.97,0 0,-1306.9 m -434.95,183.7 0,-114.1 c 0,-15.6 12.73,-28.3 28.3,-28.3 l 60.43,0 c 15.56,0 28.27,12.7 28.27,28.3 l 0,114.1 181.03,0 c 18.27,0 33.22,15 33.22,33.2 l 0,337.1 c 0,18.2 -14.95,33.2 -33.22,33.2 l -337.04,0 c -18.28,0 -33.24,-15 -33.24,-33.2 l 0,-337.1 c 0,-18.2 14.96,-33.2 33.24,-33.2 l 39.01,0" />
    </clipPath>
    <clipPath
       id="clipPath4362"
       clipPathUnits="userSpaceOnUse">
      <path
         inkscape:connector-curvature="0"
         id="path4364"
         d="m 1870.7,12081.6 0,-327.9 255.98,0 0,327.9 -255.98,0 z" />
    </clipPath>
    <clipPath
       id="clipPath4374"
       clipPathUnits="userSpaceOnUse">
      <path
         inkscape:connector-curvature="0"
         id="path4376"
         d="m 2381.15,10773.9 -509.53,0 0,1306.9 122.52,0 c -1.4,-2.2 -2.23,-4.8 -2.23,-7.6 0,0 0,-20.2 0,-58.7 0,-38.5 -11.86,-160.5 -11.86,-511 l -4.09,0 c -15.57,0 -28.31,-12.7 -28.31,-28.3 l 0,-114.1 117.01,0 0,114.1 c 0,15.6 -12.74,28.3 -28.28,28.3 l -4.11,0 c 0,350.5 -11.87,472.5 -11.87,511 0,38.5 0,58.7 0,58.7 0,2.8 -0.81,5.4 -2.22,7.6 l 362.97,0 0,-1306.9 m -434.95,183.7 0,-114.1 c 0,-15.6 12.73,-28.3 28.3,-28.3 l 60.43,0 c 15.56,0 28.27,12.7 28.27,28.3 l 0,114.1 181.03,0 c 18.27,0 33.22,15 33.22,33.2 l 0,337.1 c 0,18.2 -14.95,33.2 -33.22,33.2 l -337.04,0 c -18.28,0 -33.24,-15 -33.24,-33.2 l 0,-337.1 c 0,-18.2 14.96,-33.2 33.24,-33.2 l 39.01,0" />
    </clipPath>
    <clipPath
       id="clipPath4380"
       clipPathUnits="userSpaceOnUse">
      <path
         inkscape:connector-curvature="0"
         id="path4382"
         d="m 2125.85,12081.6 0,-327.9 255.98,0 0,327.9 -255.98,0 z" />
    </clipPath>
    <clipPath
       id="clipPath4392"
       clipPathUnits="userSpaceOnUse">
      <path
         inkscape:connector-curvature="0"
         id="path4394"
         d="m 2381.15,10773.9 -509.53,0 0,1306.9 122.52,0 c -1.4,-2.2 -2.23,-4.8 -2.23,-7.6 0,0 0,-20.2 0,-58.7 0,-38.5 -11.86,-160.5 -11.86,-511 l -4.09,0 c -15.57,0 -28.31,-12.7 -28.31,-28.3 l 0,-114.1 117.01,0 0,114.1 c 0,15.6 -12.74,28.3 -28.28,28.3 l -4.11,0 c 0,350.5 -11.87,472.5 -11.87,511 0,38.5 0,58.7 0,58.7 0,2.8 -0.81,5.4 -2.22,7.6 l 362.97,0 0,-1306.9 m -434.95,183.7 0,-114.1 c 0,-15.6 12.73,-28.3 28.3,-28.3 l 60.43,0 c 15.56,0 28.27,12.7 28.27,28.3 l 0,114.1 181.03,0 c 18.27,0 33.22,15 33.22,33.2 l 0,337.1 c 0,18.2 -14.95,33.2 -33.22,33.2 l -337.04,0 c -18.28,0 -33.24,-15 -33.24,-33.2 l 0,-337.1 c 0,-18.2 14.96,-33.2 33.24,-33.2 l 39.01,0" />
    </clipPath>
    <clipPath
       id="clipPath4398"
       clipPathUnits="userSpaceOnUse">
      <path
         inkscape:connector-curvature="0"
         id="path4400"
         d="m 1870.7,11754.5 0,-327.5 255.98,0 0,327.5 -255.98,0 z" />
    </clipPath>
    <clipPath
       id="clipPath4410"
       clipPathUnits="userSpaceOnUse">
      <path
         inkscape:connector-curvature="0"
         id="path4412"
         d="m 2381.15,10773.9 -509.53,0 0,1306.9 122.52,0 c -1.4,-2.2 -2.23,-4.8 -2.23,-7.6 0,0 0,-20.2 0,-58.7 0,-38.5 -11.86,-160.5 -11.86,-511 l -4.09,0 c -15.57,0 -28.31,-12.7 -28.31,-28.3 l 0,-114.1 117.01,0 0,114.1 c 0,15.6 -12.74,28.3 -28.28,28.3 l -4.11,0 c 0,350.5 -11.87,472.5 -11.87,511 0,38.5 0,58.7 0,58.7 0,2.8 -0.81,5.4 -2.22,7.6 l 362.97,0 0,-1306.9 m -434.95,183.7 0,-114.1 c 0,-15.6 12.73,-28.3 28.3,-28.3 l 60.43,0 c 15.56,0 28.27,12.7 28.27,28.3 l 0,114.1 181.03,0 c 18.27,0 33.22,15 33.22,33.2 l 0,337.1 c 0,18.2 -14.95,33.2 -33.22,33.2 l -337.04,0 c -18.28,0 -33.24,-15 -33.24,-33.2 l 0,-337.1 c 0,-18.2 14.96,-33.2 33.24,-33.2 l 39.01,0" />
    </clipPath>
    <clipPath
       id="clipPath4416"
       clipPathUnits="userSpaceOnUse">
      <path
         inkscape:connector-curvature="0"
         id="path4418"
         d="m 2125.85,11754.5 0,-327.5 255.98,0 0,327.5 -255.98,0 z" />
    </clipPath>
    <clipPath
       id="clipPath4428"
       clipPathUnits="userSpaceOnUse">
      <path
         inkscape:connector-curvature="0"
         id="path4430"
         d="m 2381.15,10773.9 -509.53,0 0,1306.9 122.52,0 c -1.4,-2.2 -2.23,-4.8 -2.23,-7.6 0,0 0,-20.2 0,-58.7 0,-38.5 -11.86,-160.5 -11.86,-511 l -4.09,0 c -15.57,0 -28.31,-12.7 -28.31,-28.3 l 0,-114.1 117.01,0 0,114.1 c 0,15.6 -12.74,28.3 -28.28,28.3 l -4.11,0 c 0,350.5 -11.87,472.5 -11.87,511 0,38.5 0,58.7 0,58.7 0,2.8 -0.81,5.4 -2.22,7.6 l 362.97,0 0,-1306.9 m -434.95,183.7 0,-114.1 c 0,-15.6 12.73,-28.3 28.3,-28.3 l 60.43,0 c 15.56,0 28.27,12.7 28.27,28.3 l 0,114.1 181.03,0 c 18.27,0 33.22,15 33.22,33.2 l 0,337.1 c 0,18.2 -14.95,33.2 -33.22,33.2 l -337.04,0 c -18.28,0 -33.24,-15 -33.24,-33.2 l 0,-337.1 c 0,-18.2 14.96,-33.2 33.24,-33.2 l 39.01,0" />
    </clipPath>
    <clipPath
       id="clipPath4434"
       clipPathUnits="userSpaceOnUse">
      <path
         inkscape:connector-curvature="0"
         id="path4436"
         d="m 1870.7,11427.8 0,-327.9 255.98,0 0,327.9 -255.98,0 z" />
    </clipPath>
    <clipPath
       id="clipPath4446"
       clipPathUnits="userSpaceOnUse">
      <path
         inkscape:connector-curvature="0"
         id="path4448"
         d="m 2381.15,10773.9 -509.53,0 0,1306.9 122.52,0 c -1.4,-2.2 -2.23,-4.8 -2.23,-7.6 0,0 0,-20.2 0,-58.7 0,-38.5 -11.86,-160.5 -11.86,-511 l -4.09,0 c -15.57,0 -28.31,-12.7 -28.31,-28.3 l 0,-114.1 117.01,0 0,114.1 c 0,15.6 -12.74,28.3 -28.28,28.3 l -4.11,0 c 0,350.5 -11.87,472.5 -11.87,511 0,38.5 0,58.7 0,58.7 0,2.8 -0.81,5.4 -2.22,7.6 l 362.97,0 0,-1306.9 m -434.95,183.7 0,-114.1 c 0,-15.6 12.73,-28.3 28.3,-28.3 l 60.43,0 c 15.56,0 28.27,12.7 28.27,28.3 l 0,114.1 181.03,0 c 18.27,0 33.22,15 33.22,33.2 l 0,337.1 c 0,18.2 -14.95,33.2 -33.22,33.2 l -337.04,0 c -18.28,0 -33.24,-15 -33.24,-33.2 l 0,-337.1 c 0,-18.2 14.96,-33.2 33.24,-33.2 l 39.01,0" />
    </clipPath>
    <clipPath
       id="clipPath4452"
       clipPathUnits="userSpaceOnUse">
      <path
         inkscape:connector-curvature="0"
         id="path4454"
         d="m 2125.85,11427.8 0,-327.9 255.98,0 0,327.9 -255.98,0 z" />
    </clipPath>
    <clipPath
       id="clipPath4464"
       clipPathUnits="userSpaceOnUse">
      <path
         inkscape:connector-curvature="0"
         id="path4466"
         d="m 2381.15,10773.9 -509.53,0 0,1306.9 122.52,0 c -1.4,-2.2 -2.23,-4.8 -2.23,-7.6 0,0 0,-20.2 0,-58.7 0,-38.5 -11.86,-160.5 -11.86,-511 l -4.09,0 c -15.57,0 -28.31,-12.7 -28.31,-28.3 l 0,-114.1 117.01,0 0,114.1 c 0,15.6 -12.74,28.3 -28.28,28.3 l -4.11,0 c 0,350.5 -11.87,472.5 -11.87,511 0,38.5 0,58.7 0,58.7 0,2.8 -0.81,5.4 -2.22,7.6 l 362.97,0 0,-1306.9 m -434.95,183.7 0,-114.1 c 0,-15.6 12.73,-28.3 28.3,-28.3 l 60.43,0 c 15.56,0 28.27,12.7 28.27,28.3 l 0,114.1 181.03,0 c 18.27,0 33.22,15 33.22,33.2 l 0,337.1 c 0,18.2 -14.95,33.2 -33.22,33.2 l -337.04,0 c -18.28,0 -33.24,-15 -33.24,-33.2 l 0,-337.1 c 0,-18.2 14.96,-33.2 33.24,-33.2 l 39.01,0" />
    </clipPath>
    <clipPath
       id="clipPath4470"
       clipPathUnits="userSpaceOnUse">
      <path
         inkscape:connector-curvature="0"
         id="path4472"
         d="m 1870.7,11100.7 0,-327.5 255.98,0 0,327.5 -255.98,0 z" />
    </clipPath>
    <clipPath
       id="clipPath4482"
       clipPathUnits="userSpaceOnUse">
      <path
         inkscape:connector-curvature="0"
         id="path4484"
         d="m 2381.15,10773.9 -509.53,0 0,1306.9 122.52,0 c -1.4,-2.2 -2.23,-4.8 -2.23,-7.6 0,0 0,-20.2 0,-58.7 0,-38.5 -11.86,-160.5 -11.86,-511 l -4.09,0 c -15.57,0 -28.31,-12.7 -28.31,-28.3 l 0,-114.1 117.01,0 0,114.1 c 0,15.6 -12.74,28.3 -28.28,28.3 l -4.11,0 c 0,350.5 -11.87,472.5 -11.87,511 0,38.5 0,58.7 0,58.7 0,2.8 -0.81,5.4 -2.22,7.6 l 362.97,0 0,-1306.9 m -434.95,183.7 0,-114.1 c 0,-15.6 12.73,-28.3 28.3,-28.3 l 60.43,0 c 15.56,0 28.27,12.7 28.27,28.3 l 0,114.1 181.03,0 c 18.27,0 33.22,15 33.22,33.2 l 0,337.1 c 0,18.2 -14.95,33.2 -33.22,33.2 l -337.04,0 c -18.28,0 -33.24,-15 -33.24,-33.2 l 0,-337.1 c 0,-18.2 14.96,-33.2 33.24,-33.2 l 39.01,0" />
    </clipPath>
    <clipPath
       id="clipPath4488"
       clipPathUnits="userSpaceOnUse">
      <path
         inkscape:connector-curvature="0"
         id="path4490"
         d="m 2125.85,11100.7 0,-327.5 255.98,0 0,327.5 -255.98,0 z" />
    </clipPath>
    <clipPath
       id="clipPath4500"
       clipPathUnits="userSpaceOnUse">
      <path
         inkscape:connector-curvature="0"
         id="path4502"
         d="m 2064.66,11361.1 -117.01,0 0,114.1 c 0,15.6 12.74,28.3 28.31,28.3 l 4.09,0 0,0 52.22,0 0,0 0,0 4.11,0 c 15.54,0 28.28,-12.7 28.28,-28.3 l 0,-114.1" />
    </clipPath>
    <clipPath
       id="clipPath4512"
       clipPathUnits="userSpaceOnUse">
      <path
         inkscape:connector-curvature="0"
         id="path4514"
         d="m 2034.93,10815.2 -60.43,0 c -15.57,0 -28.3,12.7 -28.3,28.3 l 0,114.1 117,0 0,-114.1 c 0,-15.6 -12.71,-28.3 -28.27,-28.3" />
    </clipPath>
    <clipPath
       id="clipPath4524"
       clipPathUnits="userSpaceOnUse">
      <path
         inkscape:connector-curvature="0"
         id="path4526"
         d="m 2244.23,10957.6 -181.03,0 -117,0 -39.01,0 c -18.28,0 -33.24,15 -33.24,33.2 l 0,337.1 c 0,18.2 14.96,33.2 33.24,33.2 l 337.04,0 c 18.27,0 33.22,-15 33.22,-33.2 l 0,-337.1 c 0,-18.2 -14.95,-33.2 -33.22,-33.2 m -346.54,201.7 0,0 c 0,-98.3 79.7,-178 178.02,-178 98.33,0 178.01,79.7 178.01,178 l 0,0 0,0 c 0,98.4 -79.68,178.1 -178.01,178.1 -98.32,0 -178.02,-79.7 -178.02,-178.1 l 0,0" />
    </clipPath>
    <clipPath
       id="clipPath4530"
       clipPathUnits="userSpaceOnUse">
      <path
         inkscape:connector-curvature="0"
         id="path4532"
         d="m 1873.19,11362.1 0,-203.1 405.25,0 0,203.1 -405.25,0 z" />
    </clipPath>
    <clipPath
       id="clipPath4542"
       clipPathUnits="userSpaceOnUse">
      <path
         inkscape:connector-curvature="0"
         id="path4544"
         d="m 2244.23,10957.6 -181.03,0 -117,0 -39.01,0 c -18.28,0 -33.24,15 -33.24,33.2 l 0,337.1 c 0,18.2 14.96,33.2 33.24,33.2 l 337.04,0 c 18.27,0 33.22,-15 33.22,-33.2 l 0,-337.1 c 0,-18.2 -14.95,-33.2 -33.22,-33.2 m -346.54,201.7 0,0 c 0,-98.3 79.7,-178 178.02,-178 98.33,0 178.01,79.7 178.01,178 l 0,0 0,0 c 0,98.4 -79.68,178.1 -178.01,178.1 -98.32,0 -178.02,-79.7 -178.02,-178.1 l 0,0" />
    </clipPath>
    <clipPath
       id="clipPath4548"
       clipPathUnits="userSpaceOnUse">
      <path
         inkscape:connector-curvature="0"
         id="path4550"
         d="m 1873.19,11159.9 0,-203.1 405.25,0 0,203.1 -405.25,0 z" />
    </clipPath>
    <clipPath
       id="clipPath4560"
       clipPathUnits="userSpaceOnUse">
      <path
         inkscape:connector-curvature="0"
         id="path4562"
         d="m 2075.71,10981.3 c -98.32,0 -178.02,79.7 -178.02,178 0,98.4 79.7,178.1 178.02,178.1 98.33,0 178.01,-79.7 178.01,-178.1 0,-98.3 -79.68,-178 -178.01,-178" />
    </clipPath>
    <clipPath
       id="clipPath4578"
       clipPathUnits="userSpaceOnUse">
      <path
         inkscape:connector-curvature="0"
         id="path4580"
         d="m 2018.18,12080.8 -24.04,0 c 2.54,4 6.97,6.6 12.02,6.6 5.05,0 9.49,-2.6 12.02,-6.6" />
    </clipPath>
    <linearGradient
       id="linearGradient4582"
       spreadMethod="pad"
       gradientTransform="matrix(2.90495e-7,-7012.9851,-7012.9851,-2.90495e-7,3019.3276,14644.144)"
       gradientUnits="userSpaceOnUse"
       y2="0"
       x2="1"
       y1="0"
       x1="0">
      <stop
         id="stop4584"
         offset="0"
         style="stop-opacity:1;stop-color:#747bac" />
      <stop
         id="stop4586"
         offset="0.950495"
         style="stop-opacity:1;stop-color:#858dc6" />
      <stop
         id="stop4588"
         offset="1"
         style="stop-opacity:1;stop-color:#858dc6" />
    </linearGradient>
    <clipPath
       id="clipPath4596"
       clipPathUnits="userSpaceOnUse">
      <path
         inkscape:connector-curvature="0"
         id="path4598"
         d="m 2032.27,11503.5 -52.22,0 c 0,350.5 11.86,472.5 11.86,511 0,38.5 0,58.7 0,58.7 0,2.8 0.83,5.4 2.23,7.6 l 24.04,0 c 1.41,-2.2 2.22,-4.8 2.22,-7.6 0,0 0,-20.2 0,-58.7 0,-38.5 11.87,-160.5 11.87,-511" />
    </clipPath>
    <clipPath
       id="clipPath4672"
       clipPathUnits="userSpaceOnUse">
      <path
         inkscape:connector-curvature="0"
         id="path4674"
         d="m 4171.23,11047.8 -436.28,0 0,17.2 417.73,0 0,600.4 -959.18,0 0,-600.4 417.1,0 0,-17.2 -435.53,0 0,634.8 996.16,0 0,-634.8" />
    </clipPath>
    <clipPath
       id="clipPath4684"
       clipPathUnits="userSpaceOnUse">
      <path
         inkscape:connector-curvature="0"
         id="path4686"
         d="m 3610.6,11047.8 124.352,0 0,17.207 -124.352,0 0,-17.207 z" />
    </clipPath>
    <clipPath
       id="clipPath4696"
       clipPathUnits="userSpaceOnUse">
      <path
         inkscape:connector-curvature="0"
         id="path4698"
         d="m 4152.68,11065 -417.73,0 -124.35,0 -417.1,0 0,600.4 959.18,0 0,-600.4 m -668.93,123.3 0,-70.8 378.67,0 0,70.8 -378.67,0 m 221.82,71 c 3.25,0 5.83,-0.6 7.52,-2 1.7,-1.5 2.57,-3.4 2.57,-6.1 0,-1.8 -0.49,-3.3 -1.53,-4.4 -1.04,-1.2 -2.45,-2.2 -4.03,-3.2 -1.53,-0.7 -3.36,-1.6 -5.18,-2.5 -1.81,-1 -3.63,-2.1 -5.19,-3.4 -1.56,-1.3 -2.97,-3 -4.02,-5.1 -1.02,-2 -1.55,-4.6 -1.55,-7.8 0,-0.9 0.24,-1.6 0.91,-2.3 0.64,-0.5 1.43,-0.9 2.33,-0.9 l 21.39,0 0,3 -20.23,0 -0.5,0.5 -0.41,0.8 c 0,2.6 0.52,4.8 1.55,6.3 1.03,1.6 2.46,3 4.03,4.1 1.56,1 3.36,2 5.17,2.8 1.83,0.8 3.65,1.7 5.22,2.7 1.55,0.9 2.97,2.2 4,3.7 1.04,1.4 1.55,3.3 1.55,5.8 0,3.6 -1.14,6.4 -3.51,8.3 -2.3,2.1 -5.68,3 -9.95,3 -1.05,0 -1.95,-0.2 -2.99,-0.3 -1.06,-0.2 -2.08,-0.4 -2.99,-0.6 -1.05,-0.3 -1.8,-0.5 -2.58,-0.9 l -1.94,-1.2 1.29,-3 c 1.28,1.1 2.6,1.7 4.14,2.1 1.57,0.4 3.12,0.6 4.93,0.6 m -41.09,2.6 0,-36.1 c 0,-1.2 0.24,-2.3 0.88,-3 0.66,-0.8 1.58,-1.2 2.85,-1.2 l 20.5,0 0,3 -19.82,0 -1.05,1 0,36.3 -3.36,0 m -34,-22.8 21.03,0 0,-17.5 3.35,0 0,40.3 -3.35,0 0,-19.8 -21.03,0 0,19.8 -3.37,0 0,-40.3 3.37,0 0,17.5 m 106.08,3.1 0,-3.8 134.73,0 0,3.8 -134.73,0 m -257.15,0 0,-3.8 134.75,0 0,3.8 -134.75,0 m 160.43,100.6 c -7.79,0 -13.63,-2.4 -17.39,-7.1 -3.64,-4.7 -5.46,-11.5 -5.46,-20.5 0,-8.9 1.82,-15.9 5.58,-20.8 3.77,-5 9.62,-7.6 17.27,-7.6 7.76,0 13.47,2.5 17.24,7.6 3.62,4.9 5.42,11.9 5.42,20.8 0,9 -1.8,15.8 -5.42,20.5 -3.77,4.8 -9.48,7.1 -17.24,7.1 m -61.75,-18.4 14.54,-31.3 c 0.89,-1.9 1.94,-3.3 3.35,-4.5 1.44,-1.1 3.39,-1.6 5.98,-1.6 2.72,0 4.79,0.7 6.37,2.2 1.54,1.4 2.33,3.5 2.33,5.9 l 0,47.5 -11.55,0 0,-36.6 -14.41,31.1 c -0.91,1.9 -1.94,3.3 -3.36,4.3 -1.43,1.1 -3.36,1.7 -5.96,1.7 -2.59,0 -4.8,-0.8 -6.36,-2.2 -1.56,-1.4 -2.47,-3.5 -2.47,-6 l 0,-47.4 11.54,0 0,36.9 m 259.74,-22.4 16.08,0 2.86,-14.6 11.41,0 -9.09,44.8 c -0.64,3.3 -2.2,6 -4.42,7.8 -2.19,1.9 -5.17,2.8 -8.79,2.8 -3.77,0 -6.74,-0.9 -8.93,-2.8 -2.22,-1.8 -3.79,-4.5 -4.43,-7.8 l -8.97,-44.8 11.42,0 2.86,14.6 m -31.51,18.2 0,-32.8 11.52,0 0,47.4 c 0,2.5 -0.75,4.4 -2.18,6 -1.67,1.4 -3.77,2.2 -6.35,2.2 -2.47,0 -4.54,-0.7 -5.97,-1.8 -1.43,-1.2 -2.62,-2.8 -3.24,-4.8 l -9.47,-27.9 -9.33,27.9 c -0.67,2 -1.84,3.6 -3.38,4.8 -1.55,1.1 -3.5,1.8 -5.98,1.8 -2.7,0 -4.78,-0.8 -6.21,-2.2 -1.43,-1.5 -2.2,-3.5 -2.2,-6 l 0,-47.4 11.55,0 0,33 6.08,-17.6 c 0.77,-2.1 1.81,-3.9 3.25,-5.1 1.45,-1.3 3.5,-1.9 6.22,-1.9 2.72,0 4.8,0.6 6.35,1.9 1.41,1.2 2.6,2.9 3.24,5.1 l 6.1,17.4 m -125.25,-12.2 8.02,0 c 2.86,0 4.95,-0.8 6.47,-2.5 1.59,-1.7 2.37,-4.1 2.37,-7.7 l 0,-10.4 11.52,0 0,11.1 c 0,3.1 -0.63,6 -1.82,8.7 -1.04,2.2 -2.56,3.9 -4.66,5.2 l 2.1,1.4 c 0.89,1 1.8,2.1 2.31,3.4 0.64,1.1 1.02,2.6 1.3,3.9 0.27,1.4 0.39,2.8 0.39,4.2 0,2.6 -0.39,5 -1.05,7 -0.78,2.3 -1.93,4.1 -3.61,5.5 -1.69,1.4 -3.77,2.6 -6.24,3.5 -2.46,0.8 -5.44,1.2 -8.81,1.2 l -11.67,0 c -2.73,0 -4.79,-0.8 -6.08,-2.4 -1.31,-1.5 -1.96,-3.5 -1.96,-5.8 l 0,-46.9 11.42,0 0,20.6 m -194.64,34.5 c -2.75,0 -4.79,-0.8 -6.24,-2.4 -1.3,-1.5 -2.05,-3.5 -2.05,-5.8 l 0,-46.9 11.53,0 0,20.6 8.31,0 c 6.86,0 12.04,1.5 15.17,4.8 3.1,3.1 4.67,7.4 4.67,12.5 0.11,2.6 -0.27,5 -0.91,7 -0.78,2.3 -1.95,4.1 -3.64,5.5 -1.55,1.4 -3.76,2.6 -6.21,3.5 -2.46,0.8 -5.47,1.2 -8.97,1.2 l -11.66,0 m 241.8,-40.4 15.99,0 2.84,-14.6 11.42,0 -9.08,44.8 c -0.53,3.3 -2.1,5.9 -4.29,7.8 -2.2,2 -5.2,2.9 -8.81,2.9 -3.77,0 -6.73,-0.9 -8.96,-2.9 -2.19,-1.8 -3.77,-4.5 -4.41,-7.8 l -8.93,-44.8 11.41,0 2.82,14.6 m -196.42,0 16.07,0 2.85,-14.6 11.42,0 -9.08,44.8 c -0.77,3.3 -2.19,5.9 -4.4,7.8 -2.2,2 -5.2,2.9 -8.82,2.9 -3.76,0 -6.74,-0.9 -8.94,-2.9 -2.23,-1.8 -3.78,-4.5 -4.42,-7.8 l -8.94,-44.8 11.4,0 2.86,14.6 m 104.69,90.5 c -2.22,0 -4.3,-1.4 -5.11,-3.6 -1.05,-2.8 0.4,-5.9 3.25,-7 12.31,-4.5 25.42,-6.9 38.66,-6.9 62.09,0 112.56,50.6 112.56,112.6 -0.15,62.1 -50.74,112.7 -112.7,112.7 -18.41,0 -36.83,-4.6 -52.93,-13.3 -2.71,-1.4 -3.62,-4.8 -2.18,-7.3 0.97,-1.9 2.79,-2.9 4.72,-2.9 0.89,0 1.8,0.2 2.66,0.7 14.67,7.7 31.12,11.9 47.87,11.9 56.02,0 101.63,-45.7 101.63,-101.7 0,-56 -45.61,-101.6 -101.63,-101.6 -12.07,0 -23.75,2 -34.92,6.1 -0.62,0.2 -1.25,0.3 -1.88,0.3 m 49.36,11.5 c 2.47,-2.9 6.09,-4.7 10.11,-4.7 7.4,0 13.35,5.9 13.35,13.3 0,7.4 -5.95,13.4 -13.35,13.4 -6.74,0 -12.32,-4.9 -13.22,-11.4 -3.26,-0.4 -6.5,-0.7 -9.74,-0.7 -40.58,0 -73.64,33.1 -73.64,73.7 0,14.8 4.4,29 12.58,41.2 1.69,2.5 1.01,5.9 -1.45,7.7 -0.91,0.6 -1.97,0.9 -3.03,0.9 -1.74,0 -3.47,-0.8 -4.61,-2.4 -9.45,-14 -14.4,-30.3 -14.4,-47.3 0,-46.7 38.01,-84.6 84.7,-84.6 4.27,0 8.55,0.2 12.7,0.9 m -101.55,156.9 c -7.37,0 -13.33,-6 -13.33,-13.4 0,-2.9 0.89,-5.4 2.45,-7.7 -8.43,-16 -12.83,-33.8 -12.83,-52.2 0,-22.2 6.47,-43.7 18.67,-62.1 1.03,-1.6 2.84,-2.5 4.52,-2.5 1.05,0 2.08,0.3 3,0.9 2.46,1.7 3.23,5.1 1.55,7.5 -11.01,16.8 -16.84,36.2 -16.84,56.2 0,16.3 3.88,32.3 11.4,46.7 l 1.41,-0.2 c 7.41,0 13.37,6 13.37,13.4 0,7.4 -5.96,13.4 -13.37,13.4 m 100.4,-0.6 c 35.13,-5.5 61.97,-36 61.97,-72.7 0,-15.2 -4.54,-29.7 -13.11,-42 -1.69,-2.5 -1.04,-5.9 1.44,-7.5 0.91,-0.7 2.06,-1.1 3.12,-1.1 1.66,0 3.36,0.8 4.52,2.4 9.86,14.2 15.03,30.8 15.03,48.2 0,42.4 -31.34,77.5 -72.07,83.6 -1.83,5.2 -6.77,8.8 -12.6,8.8 -7.37,0 -13.36,-5.9 -13.36,-13.3 0,-7.4 5.99,-13.4 13.36,-13.4 5.06,0 9.48,2.9 11.7,7 m -11.55,-25 c -26.37,0 -47.73,-21.4 -47.73,-47.7 0,-26.4 21.36,-47.7 47.73,-47.7 26.35,0 47.7,21.3 47.7,47.7 0,26.3 -21.35,47.7 -47.7,47.7 m -33.47,-238.7 c -4,0 -6.89,1.4 -8.55,4.5 -1.81,3.3 -2.74,7.9 -2.74,14 0,6.1 0.93,10.8 2.74,13.8 1.66,2.8 4.55,4.3 8.55,4.3 4.03,0 6.86,-1.5 8.57,-4.3 1.81,-3 2.72,-7.7 2.72,-13.8 0,-6.1 -0.91,-10.7 -2.72,-14 -1.71,-3.1 -4.54,-4.5 -8.57,-4.5 m 102.7,15 -12.32,0 3.63,18.1 c 0.26,1 0.66,1.9 1.04,2.5 l 1.56,0.8 1.43,-0.8 c 0.52,-0.6 0.78,-1.5 1.05,-2.5 l 3.61,-18.1 m 109.56,0.2 -12.32,0 3.65,18 c 0.27,1 0.53,1.9 1.02,2.6 l 1.58,0.8 1.42,-0.8 c 0.5,-0.7 0.77,-1.6 1.05,-2.6 l 3.6,-18 m -306.01,0 -12.31,0 3.63,18 c 0.11,1 0.49,1.9 1.04,2.6 l 1.55,0.8 1.42,-0.8 c 0.53,-0.7 0.78,-1.6 1.03,-2.6 l 3.64,-18 m 143.29,6.1 -8.43,0 0,14.7 8.43,0 c 3.24,0 5.46,-0.6 6.59,-1.9 1.33,-1.4 1.83,-3.3 1.83,-5.5 0,-2.2 -0.65,-4.1 -1.83,-5.4 -1.13,-1.3 -3.35,-1.9 -6.59,-1.9 m -191.25,0 -8.31,0 0,14.7 8.31,0 c 3.23,0 5.45,-0.6 6.62,-1.9 1.29,-1.4 1.79,-3.3 1.79,-5.5 0,-2.2 -0.63,-4.1 -1.79,-5.4 -1.17,-1.3 -3.39,-1.9 -6.62,-1.9" />
    </clipPath>
    <clipPath
       id="clipPath4708"
       clipPathUnits="userSpaceOnUse">
      <path
         inkscape:connector-curvature="0"
         id="path4710"
         d="m 3862.42,11117.5 -378.67,0 0,70.8 378.67,0 0,-70.8 m -248.03,54 0,-44 109.69,0 0,44 -109.69,0" />
    </clipPath>
    <clipPath
       id="clipPath4720"
       clipPathUnits="userSpaceOnUse">
      <path
         inkscape:connector-curvature="0"
         id="path4722"
         d="m 3614.39,11127.5 109.691,0 0,44.02 -109.691,0 0,-44.02 z" />
    </clipPath>
    <clipPath
       id="clipPath4732"
       clipPathUnits="userSpaceOnUse">
      <path
         inkscape:connector-curvature="0"
         id="path4734"
         d="m 3724.08,11127.5 -109.69,0 0,44 109.69,0 0,-44" />
    </clipPath>
    <clipPath
       id="clipPath4738"
       clipPathUnits="userSpaceOnUse">
      <path
         style="clip-rule:evenodd"
         inkscape:connector-curvature="0"
         id="path4740"
         d="m 3611.82,11178.3 0,-55.6 36.31,0 0,4.8 -4.84,0 0,7.3 -2.42,0 0,2.4 -2.42,0 0,2.4 -2.42,0 0,2.4 -2.42,0 0,7.3 -2.42,0 0,2.4 -2.42,0 0,2.4 -2.42,0 0,4.9 -2.42,0 0,4.8 -4.84,0 0,9.7 -2.43,0 0,4.8 -4.84,0" />
    </clipPath>
    <clipPath
       id="clipPath4752"
       clipPathUnits="userSpaceOnUse">
      <path
         inkscape:connector-curvature="0"
         id="path4754"
         d="m 3724.08,11127.5 -109.69,0 0,44 109.69,0 0,-44" />
    </clipPath>
    <clipPath
       id="clipPath4758"
       clipPathUnits="userSpaceOnUse">
      <path
         style="clip-rule:evenodd"
         inkscape:connector-curvature="0"
         id="path4760"
         d="m 3616.66,11178.3 0,-4.8 2.43,0 0,-9.7 4.84,0 0,-4.8 2.42,0 0,-4.9 2.42,0 0,-2.4 2.42,0 0,-2.4 2.42,0 0,-7.3 2.42,0 0,-2.4 2.42,0 0,-2.4 2.42,0 0,-2.4 2.42,0 0,-7.3 4.84,0 0,-4.8 50.84,0 0,12.1 -2.42,0 0,2.4 -2.42,0 0,2.4 -2.42,0 0,2.4 -2.42,0 0,7.3 -2.42,0 0,2.4 -2.42,0 0,2.4 -2.43,0 0,2.5 -2.41,0 0,7.2 -4.85,0 0,4.9 -2.42,0 0,9.6 -55.68,0" />
    </clipPath>
    <clipPath
       id="clipPath4772"
       clipPathUnits="userSpaceOnUse">
      <path
         inkscape:connector-curvature="0"
         id="path4774"
         d="m 3724.08,11127.5 -109.69,0 0,44 109.69,0 0,-44" />
    </clipPath>
    <clipPath
       id="clipPath4778"
       clipPathUnits="userSpaceOnUse">
      <path
         style="clip-rule:evenodd"
         inkscape:connector-curvature="0"
         id="path4780"
         d="m 3672.34,11178.3 0,-9.6 2.42,0 0,-4.9 4.85,0 0,-7.2 2.41,0 0,-2.5 2.43,0 0,-2.4 2.42,0 0,-2.4 2.42,0 0,-7.3 2.42,0 0,-2.4 2.42,0 0,-2.4 2.42,0 0,-2.4 2.42,0 0,43.5 -26.63,0" />
    </clipPath>
    <clipPath
       id="clipPath4792"
       clipPathUnits="userSpaceOnUse">
      <path
         inkscape:connector-curvature="0"
         id="path4794"
         d="m 3614.39,11127.5 109.691,0 0,44.02 -109.691,0 0,-44.02 z" />
    </clipPath>
    <clipPath
       id="clipPath4806"
       clipPathUnits="userSpaceOnUse">
      <path
         inkscape:connector-curvature="0"
         id="path4808"
         d="m 3817.84,11287.4 -11.52,0 0,32.8 -6.1,-17.4 c -0.64,-2.2 -1.83,-3.9 -3.24,-5.1 -1.55,-1.3 -3.63,-1.9 -6.35,-1.9 -2.72,0 -4.77,0.6 -6.22,1.9 -1.44,1.2 -2.48,3 -3.25,5.1 l -6.08,17.6 0,-33 -11.55,0 0,47.4 c 0,2.5 0.77,4.5 2.2,6 1.43,1.4 3.51,2.2 6.21,2.2 2.48,0 4.43,-0.7 5.98,-1.8 1.54,-1.2 2.71,-2.8 3.38,-4.8 l 9.33,-27.9 9.47,27.9 c 0.62,2 1.81,3.6 3.24,4.8 1.43,1.1 3.5,1.8 5.97,1.8 2.58,0 4.68,-0.8 6.35,-2.2 1.43,-1.6 2.18,-3.5 2.18,-6 l 0,-47.4" />
    </clipPath>
    <clipPath
       id="clipPath4818"
       clipPathUnits="userSpaceOnUse">
      <path
         inkscape:connector-curvature="0"
         id="path4820"
         d="m 3601.96,11287 c -2.59,0 -4.54,0.5 -5.98,1.6 -1.41,1.2 -2.46,2.6 -3.35,4.5 l -14.54,31.3 0,-36.9 -11.54,0 0,47.4 c 0,2.5 0.91,4.6 2.47,6 1.56,1.4 3.77,2.2 6.36,2.2 2.6,0 4.53,-0.6 5.96,-1.7 1.42,-1 2.45,-2.4 3.36,-4.3 l 14.41,-31.1 0,36.6 11.55,0 0,-47.5 c 0,-2.4 -0.79,-4.5 -2.33,-5.9 -1.58,-1.5 -3.65,-2.2 -6.37,-2.2" />
    </clipPath>
    <clipPath
       id="clipPath4830"
       clipPathUnits="userSpaceOnUse">
      <path
         inkscape:connector-curvature="0"
         id="path4832"
         d="m 3562.15,11287.5 -11.42,0 -2.85,14.6 -16.07,0 -2.86,-14.6 -11.4,0 8.94,44.8 c 0.64,3.3 2.19,6 4.42,7.8 2.2,2 5.18,2.9 8.94,2.9 3.62,0 6.62,-0.9 8.82,-2.9 2.21,-1.9 3.63,-4.5 4.4,-7.8 l 9.08,-44.8 m -22.3,45.8 -1.55,-0.8 c -0.55,-0.7 -0.93,-1.6 -1.04,-2.6 l -3.63,-18 12.31,0 -3.64,18 c -0.25,1 -0.5,1.9 -1.03,2.6 l -1.42,0.8" />
    </clipPath>
    <clipPath
       id="clipPath4842"
       clipPathUnits="userSpaceOnUse">
      <path
         inkscape:connector-curvature="0"
         id="path4844"
         d="m 3639.84,11286.8 c -7.65,0 -13.5,2.6 -17.27,7.6 -3.76,4.9 -5.58,11.9 -5.58,20.8 0,9 1.82,15.8 5.46,20.5 3.76,4.7 9.6,7.1 17.39,7.1 7.76,0 13.47,-2.3 17.24,-7.1 3.62,-4.7 5.42,-11.5 5.42,-20.5 0,-8.9 -1.8,-15.9 -5.42,-20.8 -3.77,-5.1 -9.48,-7.6 -17.24,-7.6 m -0.15,46.5 c -4,0 -6.89,-1.5 -8.55,-4.3 -1.81,-3 -2.74,-7.7 -2.74,-13.8 0,-6.1 0.93,-10.7 2.74,-14 1.66,-3.1 4.55,-4.5 8.55,-4.5 4.03,0 6.86,1.4 8.57,4.5 1.81,3.3 2.72,7.9 2.72,14 0,6.1 -0.91,10.8 -2.72,13.8 -1.71,2.8 -4.54,4.3 -8.57,4.3" />
    </clipPath>
    <clipPath
       id="clipPath4854"
       clipPathUnits="userSpaceOnUse">
      <path
         inkscape:connector-curvature="0"
         id="path4856"
         d="m 3489.67,11287.4 -11.53,0 0,46.9 c 0,2.3 0.75,4.3 2.05,5.8 1.45,1.6 3.49,2.4 6.24,2.4 l 11.66,0 c 3.5,0 6.51,-0.4 8.97,-1.2 2.45,-0.9 4.66,-2.1 6.21,-3.5 1.69,-1.4 2.86,-3.2 3.64,-5.5 0.64,-2 1.02,-4.4 0.91,-7 0,-5.1 -1.57,-9.4 -4.67,-12.5 -3.13,-3.3 -8.31,-4.8 -15.17,-4.8 l -8.31,0 0,-20.6 m 0,45.3 0,-14.7 8.31,0 c 3.23,0 5.45,0.6 6.62,1.9 1.16,1.3 1.79,3.2 1.79,5.4 0,2.2 -0.5,4.1 -1.79,5.5 -1.17,1.3 -3.39,1.9 -6.62,1.9 l -8.31,0" />
    </clipPath>
    <clipPath
       id="clipPath4866"
       clipPathUnits="userSpaceOnUse">
      <path
         inkscape:connector-curvature="0"
         id="path4868"
         d="m 3709.45,11287.4 -11.52,0 0,10.4 c 0,3.6 -0.78,6 -2.37,7.7 -1.52,1.7 -3.61,2.5 -6.47,2.5 l -8.02,0 0,-20.6 -11.42,0 0,46.9 c 0,2.3 0.65,4.3 1.96,5.8 1.29,1.6 3.35,2.4 6.08,2.4 l 11.67,0 c 3.37,0 6.35,-0.4 8.81,-1.2 2.47,-0.9 4.55,-2.1 6.24,-3.5 1.68,-1.4 2.83,-3.2 3.61,-5.5 0.66,-2 1.05,-4.4 1.05,-7 0,-1.4 -0.12,-2.8 -0.39,-4.2 -0.28,-1.3 -0.66,-2.8 -1.3,-3.9 -0.51,-1.3 -1.42,-2.4 -2.31,-3.4 l -2.1,-1.4 c 2.1,-1.3 3.62,-3 4.66,-5.2 1.19,-2.7 1.82,-5.6 1.82,-8.7 l 0,-11.1 m -28.65,45.3 0,-14.7 8.43,0 c 3.24,0 5.46,0.6 6.59,1.9 1.18,1.3 1.83,3.2 1.83,5.4 0,2.2 -0.5,4.1 -1.83,5.5 -1.13,1.3 -3.35,1.9 -6.59,1.9 l -8.43,0" />
    </clipPath>
    <clipPath
       id="clipPath4878"
       clipPathUnits="userSpaceOnUse">
      <path
         inkscape:connector-curvature="0"
         id="path4880"
         d="m 3758.48,11287.5 -11.42,0 -2.84,14.6 -15.99,0 -2.82,-14.6 -11.41,0 8.93,44.8 c 0.64,3.3 2.22,6 4.41,7.8 2.23,2 5.19,2.9 8.96,2.9 3.61,0 6.61,-0.9 8.81,-2.9 2.19,-1.9 3.76,-4.5 4.29,-7.8 l 9.08,-44.8 m -22.18,45.6 -1.56,-0.8 c -0.38,-0.6 -0.78,-1.5 -1.04,-2.5 l -3.63,-18.1 12.32,0 -3.61,18.1 c -0.27,1 -0.53,1.9 -1.05,2.5 l -1.43,0.8" />
    </clipPath>
    <clipPath
       id="clipPath4890"
       clipPathUnits="userSpaceOnUse">
      <path
         inkscape:connector-curvature="0"
         id="path4892"
         d="m 3868.18,11287.4 -11.41,0 -2.86,14.6 -16.08,0 -2.86,-14.6 -11.42,0 8.97,44.8 c 0.64,3.3 2.21,6 4.43,7.8 2.19,1.9 5.16,2.8 8.93,2.8 3.62,0 6.6,-0.9 8.79,-2.8 2.22,-1.8 3.78,-4.5 4.42,-7.8 l 9.09,-44.8 m -22.3,45.9 -1.58,-0.8 c -0.49,-0.7 -0.75,-1.6 -1.02,-2.6 l -3.65,-18 12.32,0 -3.6,18 c -0.28,1 -0.55,1.9 -1.05,2.6 l -1.42,0.8" />
    </clipPath>
    <clipPath
       id="clipPath4902"
       clipPathUnits="userSpaceOnUse">
      <path
         inkscape:connector-curvature="0"
         id="path4904"
         d="m 3673.3,11375.1 c -13.24,0 -26.35,2.4 -38.66,6.9 -2.85,1.1 -4.3,4.2 -3.25,7 0.81,2.2 2.89,3.6 5.11,3.6 0.63,0 1.26,-0.1 1.88,-0.3 11.17,-4.1 22.85,-6.1 34.92,-6.1 56.02,0 101.63,45.6 101.63,101.6 0,56 -45.61,101.7 -101.63,101.7 -16.75,0 -33.2,-4.2 -47.87,-11.9 -0.86,-0.5 -1.77,-0.7 -2.66,-0.7 -1.93,0 -3.75,1 -4.72,2.9 -1.44,2.5 -0.53,5.9 2.18,7.3 16.1,8.7 34.52,13.3 52.93,13.3 61.96,0 112.55,-50.6 112.7,-112.7 0,-62 -50.47,-112.6 -112.56,-112.6" />
    </clipPath>
    <clipPath
       id="clipPath4914"
       clipPathUnits="userSpaceOnUse">
      <path
         inkscape:connector-curvature="0"
         id="path4916"
         d="m 3738.13,11437.1 c -1.06,0 -2.21,0.4 -3.12,1.1 -2.48,1.6 -3.13,5 -1.44,7.5 8.57,12.3 13.11,26.8 13.11,42 0,36.7 -26.84,67.2 -61.97,72.7 -2.22,-4.1 -6.64,-7 -11.7,-7 -7.37,0 -13.36,6 -13.36,13.4 0,7.4 5.99,13.3 13.36,13.3 5.83,0 10.77,-3.6 12.6,-8.8 40.73,-6.1 72.07,-41.2 72.07,-83.6 0,-17.4 -5.17,-34 -15.03,-48.2 -1.16,-1.6 -2.86,-2.4 -4.52,-2.4" />
    </clipPath>
    <clipPath
       id="clipPath4926"
       clipPathUnits="userSpaceOnUse">
      <path
         inkscape:connector-curvature="0"
         id="path4928"
         d="m 3673.16,11440 c -26.37,0 -47.73,21.3 -47.73,47.7 0,26.3 21.36,47.7 47.73,47.7 26.35,0 47.7,-21.4 47.7,-47.7 0,-26.4 -21.35,-47.7 -47.7,-47.7" />
    </clipPath>
    <clipPath
       id="clipPath4938"
       clipPathUnits="userSpaceOnUse">
      <path
         inkscape:connector-curvature="0"
         id="path4940"
         d="m 3695.97,11399.4 c -4.02,0 -7.64,1.8 -10.11,4.7 -4.15,-0.7 -8.43,-0.9 -12.7,-0.9 -46.69,0 -84.7,37.9 -84.7,84.6 0,17 4.95,33.3 14.4,47.3 1.14,1.6 2.87,2.4 4.61,2.4 1.06,0 2.12,-0.3 3.03,-0.9 2.46,-1.8 3.14,-5.2 1.45,-7.7 -8.18,-12.2 -12.58,-26.4 -12.58,-41.2 0,-40.6 33.06,-73.7 73.64,-73.7 3.24,0 6.48,0.3 9.74,0.7 0.9,6.5 6.48,11.4 13.22,11.4 7.4,0 13.35,-6 13.35,-13.4 0,-7.4 -5.95,-13.3 -13.35,-13.3" />
    </clipPath>
    <clipPath
       id="clipPath4950"
       clipPathUnits="userSpaceOnUse">
      <path
         inkscape:connector-curvature="0"
         id="path4952"
         d="m 3583.79,11423.1 c -1.68,0 -3.49,0.9 -4.52,2.5 -12.2,18.4 -18.67,39.9 -18.67,62.1 0,18.4 4.4,36.2 12.83,52.2 -1.56,2.3 -2.45,4.8 -2.45,7.7 0,7.4 5.96,13.4 13.33,13.4 7.41,0 13.37,-6 13.37,-13.4 0,-7.4 -5.96,-13.4 -13.37,-13.4 l -1.41,0.2 c -7.52,-14.4 -11.4,-30.4 -11.4,-46.7 0,-20 5.83,-39.4 16.84,-56.2 1.68,-2.4 0.91,-5.8 -1.55,-7.5 -0.92,-0.6 -1.95,-0.9 -3,-0.9" />
    </clipPath>
    <clipPath
       id="clipPath4962"
       clipPathUnits="userSpaceOnUse">
      <path
         inkscape:connector-curvature="0"
         id="path4964"
         d="m 3479.41,11238.4 134.75,0 0,3.777 -134.75,0 0,-3.777 z" />
    </clipPath>
    <clipPath
       id="clipPath4974"
       clipPathUnits="userSpaceOnUse">
      <path
         inkscape:connector-curvature="0"
         id="path4976"
         d="m 3654.86,11221.6 -3.35,0 0,17.5 -21.03,0 0,-17.5 -3.37,0 0,40.3 3.37,0 0,-19.8 21.03,0 0,19.8 3.35,0 0,-40.3" />
    </clipPath>
    <clipPath
       id="clipPath4986"
       clipPathUnits="userSpaceOnUse">
      <path
         inkscape:connector-curvature="0"
         id="path4988"
         d="m 3688.71,11221.6 -20.5,0 c -1.27,0 -2.19,0.4 -2.85,1.2 -0.64,0.7 -0.88,1.8 -0.88,3 l 0,36.1 3.36,0 0,-36.3 1.05,-1 19.82,0 0,-3" />
    </clipPath>
    <clipPath
       id="clipPath4998"
       clipPathUnits="userSpaceOnUse">
      <path
         inkscape:connector-curvature="0"
         id="path5000"
         d="m 3718.79,11221.6 -21.39,0 c -0.9,0 -1.69,0.4 -2.33,0.9 -0.67,0.7 -0.91,1.4 -0.91,2.3 0,3.2 0.53,5.8 1.55,7.8 1.05,2.1 2.46,3.8 4.02,5.1 1.56,1.3 3.38,2.4 5.19,3.4 1.82,0.9 3.65,1.8 5.18,2.5 1.58,1 2.99,2 4.03,3.2 1.04,1.1 1.53,2.6 1.53,4.4 0,2.7 -0.87,4.6 -2.57,6.1 -1.69,1.4 -4.27,2 -7.52,2 -1.81,0 -3.36,-0.2 -4.93,-0.6 -1.54,-0.4 -2.86,-1 -4.14,-2.1 l -1.29,3 1.94,1.2 c 0.78,0.4 1.53,0.6 2.58,0.9 0.91,0.2 1.93,0.4 2.99,0.6 1.04,0.1 1.94,0.3 2.99,0.3 4.27,0 7.65,-0.9 9.95,-3 2.37,-1.9 3.51,-4.7 3.51,-8.3 0,-2.5 -0.51,-4.4 -1.55,-5.8 -1.03,-1.5 -2.45,-2.8 -4,-3.7 -1.57,-1 -3.39,-1.9 -5.22,-2.7 -1.81,-0.8 -3.61,-1.8 -5.17,-2.8 -1.57,-1.1 -3,-2.5 -4.03,-4.1 -1.03,-1.5 -1.55,-3.7 -1.55,-6.3 l 0.41,-0.8 0.5,-0.5 20.23,0 0,-3" />
    </clipPath>
    <clipPath
       id="clipPath5010"
       clipPathUnits="userSpaceOnUse">
      <path
         inkscape:connector-curvature="0"
         id="path5012"
         d="m 3736.56,11238.4 134.734,0 0,3.777 -134.734,0 0,-3.777 z" />
    </clipPath>
    <clipPath
       id="clipPath5374"
       clipPathUnits="userSpaceOnUse">
      <path
         inkscape:connector-curvature="0"
         id="path5376"
         d="m 2606.62,8958.32 c 34.47,0 62.41,-27.93 62.41,-62.39 0,-34.47 -27.94,-62.39 -62.41,-62.39 -34.44,0 -62.39,27.92 -62.39,62.39 0,34.46 27.95,62.39 62.39,62.39 z" />
    </clipPath>
    <linearGradient
       id="linearGradient5378"
       spreadMethod="pad"
       gradientTransform="matrix(-235.73573,-235.73573,235.73573,-235.73573,2694.8059,8984.0906)"
       gradientUnits="userSpaceOnUse"
       y2="0"
       x2="1"
       y1="0"
       x1="0">
      <stop
         id="stop5380"
         offset="0"
         style="stop-opacity:1;stop-color:#249fe0" />
      <stop
         id="stop5382"
         offset="0.2623"
         style="stop-opacity:1;stop-color:#249fe0" />
      <stop
         id="stop5384"
         offset="0.3014"
         style="stop-opacity:1;stop-color:#2194da" />
      <stop
         id="stop5386"
         offset="0.4162"
         style="stop-opacity:1;stop-color:#1b7cc9" />
      <stop
         id="stop5388"
         offset="0.5379"
         style="stop-opacity:1;stop-color:#1a66ba" />
      <stop
         id="stop5390"
         offset="0.668"
         style="stop-opacity:1;stop-color:#2058ac" />
      <stop
         id="stop5392"
         offset="0.8125"
         style="stop-opacity:1;stop-color:#23509f" />
      <stop
         id="stop5394"
         offset="1"
         style="stop-opacity:1;stop-color:#234e9b" />
    </linearGradient>
    <clipPath
       id="clipPath5402"
       clipPathUnits="userSpaceOnUse">
      <path
         inkscape:connector-curvature="0"
         id="path5404"
         d="m 2687.5,8831.15 c 1.2,-0.85 2.71,-1.35 4.07,-1.35 2.21,0 4.41,1.02 5.95,3.03 12.87,18.66 19.66,40.37 19.66,63.1 0,55.43 -41.03,101.39 -94.27,109.35 -2.38,6.8 -8.82,11.54 -16.44,11.54 -9.67,0 -17.48,-7.81 -17.48,-17.46 0,-9.68 7.81,-17.47 17.48,-17.47 6.6,0 12.37,3.72 15.25,9.16 45.94,-7.28 81.05,-47.13 81.05,-95.12 0,-19.85 -5.93,-38.82 -17.11,-54.95 -2.22,-3.2 -1.37,-7.6 1.84,-9.83 z" />
    </clipPath>
    <linearGradient
       id="linearGradient5406"
       spreadMethod="pad"
       gradientTransform="matrix(-209.21353,-209.21353,209.21353,-209.21353,2700.122,8976.528)"
       gradientUnits="userSpaceOnUse"
       y2="0"
       x2="1"
       y1="0"
       x1="0">
      <stop
         id="stop5408"
         offset="0"
         style="stop-opacity:1;stop-color:#249fe0" />
      <stop
         id="stop5410"
         offset="0.2623"
         style="stop-opacity:1;stop-color:#249fe0" />
      <stop
         id="stop5412"
         offset="0.3014"
         style="stop-opacity:1;stop-color:#2194da" />
      <stop
         id="stop5414"
         offset="0.4162"
         style="stop-opacity:1;stop-color:#1b7cc9" />
      <stop
         id="stop5416"
         offset="0.5379"
         style="stop-opacity:1;stop-color:#1a66ba" />
      <stop
         id="stop5418"
         offset="0.668"
         style="stop-opacity:1;stop-color:#2058ac" />
      <stop
         id="stop5420"
         offset="0.8125"
         style="stop-opacity:1;stop-color:#23509f" />
      <stop
         id="stop5422"
         offset="1"
         style="stop-opacity:1;stop-color:#234e9b" />
    </linearGradient>
    <clipPath
       id="clipPath5430"
       clipPathUnits="userSpaceOnUse">
      <path
         inkscape:connector-curvature="0"
         id="path5432"
         d="m 2623.24,8786.57 c 3.22,-3.73 7.99,-6.11 13.22,-6.11 9.69,0 17.47,7.78 17.47,17.47 0,9.66 -7.78,17.45 -17.47,17.45 -8.82,0 -16.1,-6.45 -17.29,-14.93 -4.23,-0.5 -8.47,-0.84 -12.7,-0.84 -53.08,0 -96.32,43.23 -96.32,96.32 0,19.34 5.76,37.98 16.45,53.91 2.21,3.23 1.35,7.63 -1.88,10.01 -3.21,2.2 -7.62,1.35 -9.99,-1.87 -12.37,-18.31 -18.82,-39.68 -18.82,-61.9 0,-61.03 49.68,-110.7 110.71,-110.7 5.61,0 11.2,0.32 16.62,1.19 z" />
    </clipPath>
    <linearGradient
       id="linearGradient5434"
       spreadMethod="pad"
       gradientTransform="matrix(-208.92304,-208.92304,208.92304,-208.92304,2675.488,8965.5473)"
       gradientUnits="userSpaceOnUse"
       y2="0"
       x2="1"
       y1="0"
       x1="0">
      <stop
         id="stop5436"
         offset="0"
         style="stop-opacity:1;stop-color:#249fe0" />
      <stop
         id="stop5438"
         offset="0.2623"
         style="stop-opacity:1;stop-color:#249fe0" />
      <stop
         id="stop5440"
         offset="0.3014"
         style="stop-opacity:1;stop-color:#2194da" />
      <stop
         id="stop5442"
         offset="0.4162"
         style="stop-opacity:1;stop-color:#1b7cc9" />
      <stop
         id="stop5444"
         offset="0.5379"
         style="stop-opacity:1;stop-color:#1a66ba" />
      <stop
         id="stop5446"
         offset="0.668"
         style="stop-opacity:1;stop-color:#2058ac" />
      <stop
         id="stop5448"
         offset="0.8125"
         style="stop-opacity:1;stop-color:#23509f" />
      <stop
         id="stop5450"
         offset="1"
         style="stop-opacity:1;stop-color:#234e9b" />
    </linearGradient>
    <clipPath
       id="clipPath5458"
       clipPathUnits="userSpaceOnUse">
      <path
         inkscape:connector-curvature="0"
         id="path5460"
         d="m 2473.7,8895.93 c 0,21.36 5.09,42.21 14.91,61.03 l 1.87,-0.16 c 9.66,0 17.46,7.79 17.46,17.45 0,9.68 -7.8,17.47 -17.46,17.47 -9.66,0 -17.46,-7.79 -17.46,-17.47 0,-3.72 1.18,-7.1 3.22,-10 -11.03,-21.02 -16.79,-44.24 -16.79,-68.32 0,-29 8.48,-57.15 24.42,-81.23 1.35,-2.03 3.73,-3.21 5.93,-3.21 1.36,0 2.72,0.33 3.9,1.18 3.22,2.2 4.24,6.62 2.03,9.84 -14.41,21.85 -22.03,47.3 -22.03,73.42 z" />
    </clipPath>
    <linearGradient
       id="linearGradient5462"
       spreadMethod="pad"
       gradientTransform="matrix(-215.70319,-215.70319,215.70319,-215.70319,2613.5642,9027.2097)"
       gradientUnits="userSpaceOnUse"
       y2="0"
       x2="1"
       y1="0"
       x1="0">
      <stop
         id="stop5464"
         offset="0"
         style="stop-opacity:1;stop-color:#249fe0" />
      <stop
         id="stop5466"
         offset="0.2623"
         style="stop-opacity:1;stop-color:#249fe0" />
      <stop
         id="stop5468"
         offset="0.3014"
         style="stop-opacity:1;stop-color:#2194da" />
      <stop
         id="stop5470"
         offset="0.4162"
         style="stop-opacity:1;stop-color:#1b7cc9" />
      <stop
         id="stop5472"
         offset="0.5379"
         style="stop-opacity:1;stop-color:#1a66ba" />
      <stop
         id="stop5474"
         offset="0.668"
         style="stop-opacity:1;stop-color:#2058ac" />
      <stop
         id="stop5476"
         offset="0.8125"
         style="stop-opacity:1;stop-color:#23509f" />
      <stop
         id="stop5478"
         offset="1"
         style="stop-opacity:1;stop-color:#234e9b" />
    </linearGradient>
    <clipPath
       id="clipPath5486"
       clipPathUnits="userSpaceOnUse">
      <path
         inkscape:connector-curvature="0"
         id="path5488"
         d="m 2606.62,9043.26 c -24.07,0 -48.15,-5.93 -69.17,-17.29 -3.56,-1.87 -4.74,-6.27 -2.88,-9.66 1.86,-3.56 6.1,-4.75 9.66,-2.89 19.16,10.18 40.69,15.6 62.57,15.6 73.25,0 132.93,-59.68 132.93,-132.94 0,-73.23 -59.68,-132.93 -132.93,-132.93 -15.77,0 -31.03,2.72 -45.61,7.99 -3.74,1.35 -7.8,-0.52 -9.15,-4.26 -1.37,-3.73 0.5,-7.79 4.23,-9.15 16.11,-5.93 33.24,-8.99 50.53,-8.99 81.23,0 147.17,66.13 147.17,147.19 -0.17,81.21 -66.29,147.33 -147.35,147.33 z" />
    </clipPath>
    <linearGradient
       id="linearGradient5490"
       spreadMethod="pad"
       gradientTransform="matrix(-230.61817,-230.61817,230.61817,-230.61817,2697.2752,8982.3089)"
       gradientUnits="userSpaceOnUse"
       y2="0"
       x2="1"
       y1="0"
       x1="0">
      <stop
         id="stop5492"
         offset="0"
         style="stop-opacity:1;stop-color:#249fe0" />
      <stop
         id="stop5494"
         offset="0.2623"
         style="stop-opacity:1;stop-color:#249fe0" />
      <stop
         id="stop5496"
         offset="0.3014"
         style="stop-opacity:1;stop-color:#2194da" />
      <stop
         id="stop5498"
         offset="0.4162"
         style="stop-opacity:1;stop-color:#1b7cc9" />
      <stop
         id="stop5500"
         offset="0.5379"
         style="stop-opacity:1;stop-color:#1a66ba" />
      <stop
         id="stop5502"
         offset="0.668"
         style="stop-opacity:1;stop-color:#2058ac" />
      <stop
         id="stop5504"
         offset="0.8125"
         style="stop-opacity:1;stop-color:#23509f" />
      <stop
         id="stop5506"
         offset="1"
         style="stop-opacity:1;stop-color:#234e9b" />
    </linearGradient>
    <clipPath
       id="clipPath5542"
       clipPathUnits="userSpaceOnUse">
      <path
         inkscape:connector-curvature="0"
         id="path5544"
         d="m 1735.71,8855.09 c 10.6,0 20.52,4.11 27.98,11.57 7.51,7.49 11.62,17.43 11.62,28.02 0,10.58 -4.11,20.51 -11.62,27.98 -7.46,7.51 -17.38,11.61 -27.98,11.61 -10.58,0 -20.51,-4.1 -28.01,-11.61 -7.47,-7.47 -11.59,-17.4 -11.59,-27.98 0,-10.59 4.12,-20.52 11.59,-28.02 7.5,-7.46 17.43,-11.57 28.01,-11.57 z m 0,107.07 c 18.03,0 34.99,-6.99 47.75,-19.76 12.76,-12.73 19.78,-29.69 19.78,-47.72 0,-18.05 -7.02,-35 -19.78,-47.77 -12.76,-12.74 -29.72,-19.76 -47.75,-19.76 -18.03,0 -34.98,7.02 -47.75,19.76 -12.74,12.77 -19.78,29.72 -19.78,47.77 0,18.03 7.04,34.99 19.78,47.72 12.77,12.77 29.74,19.76 47.75,19.76 z" />
    </clipPath>
    <radialGradient
       id="radialGradient5546"
       spreadMethod="pad"
       gradientTransform="matrix(180.11174,0,0,-180.11174,1741.1593,8889.6216)"
       gradientUnits="userSpaceOnUse"
       r="1"
       cy="0"
       cx="0"
       fy="0"
       fx="0">
      <stop
         id="stop5548"
         offset="0"
         style="stop-opacity:1;stop-color:#249fe0" />
      <stop
         id="stop5550"
         offset="0.2623"
         style="stop-opacity:1;stop-color:#249fe0" />
      <stop
         id="stop5552"
         offset="0.3014"
         style="stop-opacity:1;stop-color:#2194da" />
      <stop
         id="stop5554"
         offset="0.4162"
         style="stop-opacity:1;stop-color:#1b7cc9" />
      <stop
         id="stop5556"
         offset="0.5379"
         style="stop-opacity:1;stop-color:#1a66ba" />
      <stop
         id="stop5558"
         offset="0.668"
         style="stop-opacity:1;stop-color:#2058ac" />
      <stop
         id="stop5560"
         offset="0.8125"
         style="stop-opacity:1;stop-color:#23509f" />
      <stop
         id="stop5562"
         offset="1"
         style="stop-opacity:1;stop-color:#234e9b" />
    </radialGradient>
    <clipPath
       id="clipPath5570"
       clipPathUnits="userSpaceOnUse">
      <path
         inkscape:connector-curvature="0"
         id="path5572"
         d="m 1598.34,8994.88 c 4,0 7.96,-1.67 10.72,-4.96 4.98,-5.9 4.21,-14.69 -1.69,-19.67 -2.29,-1.92 -4.53,-3.93 -6.58,-6 -19.45,-19.43 -30.17,-45.37 -30.17,-72.98 0,-27.63 10.72,-53.55 30.17,-73.02 5.48,-5.44 5.48,-14.27 0,-19.73 -5.44,-5.47 -14.27,-5.47 -19.71,0 -51.14,51.15 -51.14,134.33 0,185.46 2.6,2.63 5.4,5.17 8.31,7.64 2.59,2.2 5.81,3.26 8.95,3.26 z" />
    </clipPath>
    <radialGradient
       id="radialGradient5574"
       spreadMethod="pad"
       gradientTransform="matrix(180.12336,0,0,-180.12336,1741.1593,8889.6216)"
       gradientUnits="userSpaceOnUse"
       r="1"
       cy="0"
       cx="0"
       fy="0"
       fx="0">
      <stop
         id="stop5576"
         offset="0"
         style="stop-opacity:1;stop-color:#249fe0" />
      <stop
         id="stop5578"
         offset="0.2623"
         style="stop-opacity:1;stop-color:#249fe0" />
      <stop
         id="stop5580"
         offset="0.3014"
         style="stop-opacity:1;stop-color:#2194da" />
      <stop
         id="stop5582"
         offset="0.4162"
         style="stop-opacity:1;stop-color:#1b7cc9" />
      <stop
         id="stop5584"
         offset="0.5379"
         style="stop-opacity:1;stop-color:#1a66ba" />
      <stop
         id="stop5586"
         offset="0.668"
         style="stop-opacity:1;stop-color:#2058ac" />
      <stop
         id="stop5588"
         offset="0.8125"
         style="stop-opacity:1;stop-color:#23509f" />
      <stop
         id="stop5590"
         offset="1"
         style="stop-opacity:1;stop-color:#234e9b" />
    </radialGradient>
    <clipPath
       id="clipPath5598"
       clipPathUnits="userSpaceOnUse">
      <path
         inkscape:connector-curvature="0"
         id="path5600"
         d="m 1645.95,8972.35 c 4.15,0 8.25,-1.82 10.98,-5.31 4.8,-6.03 3.75,-14.83 -2.31,-19.59 -2.23,-1.77 -4.34,-3.64 -6.31,-5.63 -13.47,-13.46 -20.87,-31.41 -20.87,-50.5 0,-19.1 7.4,-37.06 20.87,-50.5 5.45,-5.46 5.45,-14.29 0,-19.74 -5.47,-5.45 -14.31,-5.45 -19.75,0 -18.72,18.75 -29.06,43.67 -29.06,70.24 0,26.55 10.34,51.49 29.06,70.24 2.73,2.73 5.67,5.35 8.78,7.78 2.54,2.03 5.61,3.01 8.61,3.01 z" />
    </clipPath>
    <radialGradient
       id="radialGradient5602"
       spreadMethod="pad"
       gradientTransform="matrix(180.1224,0,0,-180.1224,1741.1496,8889.6313)"
       gradientUnits="userSpaceOnUse"
       r="1"
       cy="0"
       cx="0"
       fy="0"
       fx="0">
      <stop
         id="stop5604"
         offset="0"
         style="stop-opacity:1;stop-color:#249fe0" />
      <stop
         id="stop5606"
         offset="0.2623"
         style="stop-opacity:1;stop-color:#249fe0" />
      <stop
         id="stop5608"
         offset="0.3014"
         style="stop-opacity:1;stop-color:#2194da" />
      <stop
         id="stop5610"
         offset="0.4162"
         style="stop-opacity:1;stop-color:#1b7cc9" />
      <stop
         id="stop5612"
         offset="0.5379"
         style="stop-opacity:1;stop-color:#1a66ba" />
      <stop
         id="stop5614"
         offset="0.668"
         style="stop-opacity:1;stop-color:#2058ac" />
      <stop
         id="stop5616"
         offset="0.8125"
         style="stop-opacity:1;stop-color:#23509f" />
      <stop
         id="stop5618"
         offset="1"
         style="stop-opacity:1;stop-color:#234e9b" />
    </radialGradient>
    <clipPath
       id="clipPath5626"
       clipPathUnits="userSpaceOnUse">
      <path
         inkscape:connector-curvature="0"
         id="path5628"
         d="m 1873.07,8994.88 c 3.15,0 6.34,-1.06 8.97,-3.26 2.89,-2.45 5.71,-5.01 8.31,-7.64 51.13,-51.12 51.13,-134.31 0,-185.44 -5.44,-5.48 -14.3,-5.48 -19.74,0 -5.44,5.44 -5.44,14.27 0,19.71 19.46,19.49 30.19,45.39 30.19,73.02 0,27.61 -10.73,53.55 -30.19,72.98 -2.05,2.07 -4.27,4.09 -6.55,6.02 -5.9,4.96 -6.67,13.75 -1.68,19.68 2.75,3.26 6.7,4.93 10.69,4.93 z" />
    </clipPath>
    <radialGradient
       id="radialGradient5630"
       spreadMethod="pad"
       gradientTransform="matrix(180.13498,0,0,-180.13498,1741.1399,8889.6313)"
       gradientUnits="userSpaceOnUse"
       r="1"
       cy="0"
       cx="0"
       fy="0"
       fx="0">
      <stop
         id="stop5632"
         offset="0"
         style="stop-opacity:1;stop-color:#249fe0" />
      <stop
         id="stop5634"
         offset="0.2623"
         style="stop-opacity:1;stop-color:#249fe0" />
      <stop
         id="stop5636"
         offset="0.3014"
         style="stop-opacity:1;stop-color:#2194da" />
      <stop
         id="stop5638"
         offset="0.4162"
         style="stop-opacity:1;stop-color:#1b7cc9" />
      <stop
         id="stop5640"
         offset="0.5379"
         style="stop-opacity:1;stop-color:#1a66ba" />
      <stop
         id="stop5642"
         offset="0.668"
         style="stop-opacity:1;stop-color:#2058ac" />
      <stop
         id="stop5644"
         offset="0.8125"
         style="stop-opacity:1;stop-color:#23509f" />
      <stop
         id="stop5646"
         offset="1"
         style="stop-opacity:1;stop-color:#234e9b" />
    </radialGradient>
    <clipPath
       id="clipPath5654"
       clipPathUnits="userSpaceOnUse">
      <path
         inkscape:connector-curvature="0"
         id="path5656"
         d="m 1825.44,8972.35 c 3.03,0 6.07,-0.98 8.64,-3.01 3.09,-2.43 6.04,-5.05 8.78,-7.78 18.74,-18.73 29.05,-43.69 29.05,-70.24 0,-26.57 -10.31,-51.49 -29.05,-70.23 -5.47,-5.46 -14.29,-5.46 -19.75,0 -5.42,5.44 -5.42,14.27 0,19.73 13.48,13.46 20.89,31.4 20.89,50.52 0,19.07 -7.41,37.02 -20.89,50.48 -1.97,1.99 -4.1,3.86 -6.33,5.63 -6.05,4.78 -7.07,13.56 -2.29,19.59 2.75,3.49 6.83,5.31 10.95,5.31 z" />
    </clipPath>
    <radialGradient
       id="radialGradient5658"
       spreadMethod="pad"
       gradientTransform="matrix(180.13014,0,0,-180.13014,1741.1496,8889.6216)"
       gradientUnits="userSpaceOnUse"
       r="1"
       cy="0"
       cx="0"
       fy="0"
       fx="0">
      <stop
         id="stop5660"
         offset="0"
         style="stop-opacity:1;stop-color:#249fe0" />
      <stop
         id="stop5662"
         offset="0.2623"
         style="stop-opacity:1;stop-color:#249fe0" />
      <stop
         id="stop5664"
         offset="0.3014"
         style="stop-opacity:1;stop-color:#2194da" />
      <stop
         id="stop5666"
         offset="0.4162"
         style="stop-opacity:1;stop-color:#1b7cc9" />
      <stop
         id="stop5668"
         offset="0.5379"
         style="stop-opacity:1;stop-color:#1a66ba" />
      <stop
         id="stop5670"
         offset="0.668"
         style="stop-opacity:1;stop-color:#2058ac" />
      <stop
         id="stop5672"
         offset="0.8125"
         style="stop-opacity:1;stop-color:#23509f" />
      <stop
         id="stop5674"
         offset="1"
         style="stop-opacity:1;stop-color:#234e9b" />
    </radialGradient>
    <clipPath
       id="clipPath6412"
       clipPathUnits="userSpaceOnUse">
      <path
         inkscape:connector-curvature="0"
         id="path6414"
         d="m 5059.64,3564.28 c 25.73,0 46.51,-20.82 46.51,-46.48 0,-25.66 -20.78,-46.48 -46.51,-46.48 -25.67,0 -46.45,20.82 -46.45,46.48 0,25.66 20.78,46.48 46.45,46.48 z" />
    </clipPath>
    <linearGradient
       id="linearGradient6416"
       spreadMethod="pad"
       gradientTransform="matrix(-175.65846,-175.65846,175.65846,-175.65846,5125.368,3583.4495)"
       gradientUnits="userSpaceOnUse"
       y2="0"
       x2="1"
       y1="0"
       x1="0">
      <stop
         id="stop6418"
         offset="0"
         style="stop-opacity:1;stop-color:#259cdf" />
      <stop
         id="stop6420"
         offset="0.2623"
         style="stop-opacity:1;stop-color:#259cdf" />
      <stop
         id="stop6422"
         offset="0.3014"
         style="stop-opacity:1;stop-color:#2293d8" />
      <stop
         id="stop6424"
         offset="0.4162"
         style="stop-opacity:1;stop-color:#1b7bc7" />
      <stop
         id="stop6426"
         offset="0.5379"
         style="stop-opacity:1;stop-color:#1c66b7" />
      <stop
         id="stop6428"
         offset="0.668"
         style="stop-opacity:1;stop-color:#2259ab" />
      <stop
         id="stop6430"
         offset="0.8125"
         style="stop-opacity:1;stop-color:#24519e" />
      <stop
         id="stop6432"
         offset="1"
         style="stop-opacity:1;stop-color:#244f98" />
    </linearGradient>
    <clipPath
       id="clipPath6440"
       clipPathUnits="userSpaceOnUse">
      <path
         inkscape:connector-curvature="0"
         id="path6442"
         d="m 5119.95,3469.58 c 0.9,-0.68 1.99,-1.07 3.04,-1.07 1.6,0 3.26,0.78 4.41,2.23 9.59,13.94 14.62,30.11 14.62,47.06 0,41.25 -30.57,75.53 -70.24,81.43 -1.75,5.14 -6.54,8.62 -12.23,8.62 -7.22,0 -13.01,-5.81 -13.01,-12.97 0,-7.27 5.79,-13.08 13.01,-13.08 4.93,0 9.2,2.91 11.38,6.88 34.21,-5.42 60.36,-35.15 60.36,-70.88 0,-14.82 -4.41,-28.95 -12.77,-40.96 -1.61,-2.42 -0.99,-5.71 1.43,-7.26 z" />
    </clipPath>
    <linearGradient
       id="linearGradient6444"
       spreadMethod="pad"
       gradientTransform="matrix(-155.83604,-155.83604,155.83604,-155.83604,5129.3187,3577.8333)"
       gradientUnits="userSpaceOnUse"
       y2="0"
       x2="1"
       y1="0"
       x1="0">
      <stop
         id="stop6446"
         offset="0"
         style="stop-opacity:1;stop-color:#259cdf" />
      <stop
         id="stop6448"
         offset="0.2623"
         style="stop-opacity:1;stop-color:#259cdf" />
      <stop
         id="stop6450"
         offset="0.3014"
         style="stop-opacity:1;stop-color:#2293d8" />
      <stop
         id="stop6452"
         offset="0.4162"
         style="stop-opacity:1;stop-color:#1b7bc7" />
      <stop
         id="stop6454"
         offset="0.5379"
         style="stop-opacity:1;stop-color:#1c66b7" />
      <stop
         id="stop6456"
         offset="0.668"
         style="stop-opacity:1;stop-color:#2259ab" />
      <stop
         id="stop6458"
         offset="0.8125"
         style="stop-opacity:1;stop-color:#24519e" />
      <stop
         id="stop6460"
         offset="1"
         style="stop-opacity:1;stop-color:#244f98" />
    </linearGradient>
    <clipPath
       id="clipPath6468"
       clipPathUnits="userSpaceOnUse">
      <path
         inkscape:connector-curvature="0"
         id="path6470"
         d="m 5072.06,3436.27 c 2.38,-2.81 5.94,-4.46 9.83,-4.46 7.22,0 13,5.71 13,12.98 0,7.16 -5.78,12.97 -13,12.97 -6.54,0 -12,-4.74 -12.91,-11.03 -3.13,-0.39 -6.3,-0.78 -9.43,-0.78 -39.53,0 -71.79,32.25 -71.79,71.85 0,14.33 4.31,28.27 12.28,40.18 1.61,2.33 1,5.62 -1.43,7.46 -2.37,1.65 -5.65,0.97 -7.45,-1.45 -9.2,-13.56 -13.99,-29.54 -13.99,-46.1 0,-45.51 37,-82.5 82.47,-82.5 4.17,0 8.35,0.3 12.42,0.88 z" />
    </clipPath>
    <linearGradient
       id="linearGradient6472"
       spreadMethod="pad"
       gradientTransform="matrix(-155.66175,-155.66175,155.66175,-155.66175,5110.9594,3569.6994)"
       gradientUnits="userSpaceOnUse"
       y2="0"
       x2="1"
       y1="0"
       x1="0">
      <stop
         id="stop6474"
         offset="0"
         style="stop-opacity:1;stop-color:#259cdf" />
      <stop
         id="stop6476"
         offset="0.2623"
         style="stop-opacity:1;stop-color:#259cdf" />
      <stop
         id="stop6478"
         offset="0.3014"
         style="stop-opacity:1;stop-color:#2293d8" />
      <stop
         id="stop6480"
         offset="0.4162"
         style="stop-opacity:1;stop-color:#1b7bc7" />
      <stop
         id="stop6482"
         offset="0.5379"
         style="stop-opacity:1;stop-color:#1c66b7" />
      <stop
         id="stop6484"
         offset="0.668"
         style="stop-opacity:1;stop-color:#2259ab" />
      <stop
         id="stop6486"
         offset="0.8125"
         style="stop-opacity:1;stop-color:#24519e" />
      <stop
         id="stop6488"
         offset="1"
         style="stop-opacity:1;stop-color:#244f98" />
    </linearGradient>
    <clipPath
       id="clipPath6496"
       clipPathUnits="userSpaceOnUse">
      <path
         inkscape:connector-curvature="0"
         id="path6498"
         d="m 4960.61,3517.8 c 0,15.88 3.8,31.47 11.11,45.41 l 1.41,-0.09 c 7.17,0 13,5.81 13,13.07 0,7.17 -5.83,12.97 -13,12.97 -7.2,0 -13.05,-5.8 -13.05,-12.97 0,-2.81 0.91,-5.33 2.42,-7.46 -8.2,-15.68 -12.53,-33.02 -12.53,-50.93 0,-21.59 6.37,-42.61 18.22,-60.52 1.01,-1.55 2.76,-2.42 4.42,-2.42 1,0 2.04,0.29 2.89,0.87 2.42,1.65 3.19,4.94 1.52,7.36 -10.73,16.27 -16.41,35.25 -16.41,54.71 z" />
    </clipPath>
    <linearGradient
       id="linearGradient6500"
       spreadMethod="pad"
       gradientTransform="matrix(-160.68925,-160.68925,160.68925,-160.68925,5064.8094,3615.5976)"
       gradientUnits="userSpaceOnUse"
       y2="0"
       x2="1"
       y1="0"
       x1="0">
      <stop
         id="stop6502"
         offset="0"
         style="stop-opacity:1;stop-color:#259cdf" />
      <stop
         id="stop6504"
         offset="0.2623"
         style="stop-opacity:1;stop-color:#259cdf" />
      <stop
         id="stop6506"
         offset="0.3014"
         style="stop-opacity:1;stop-color:#2293d8" />
      <stop
         id="stop6508"
         offset="0.4162"
         style="stop-opacity:1;stop-color:#1b7bc7" />
      <stop
         id="stop6510"
         offset="0.5379"
         style="stop-opacity:1;stop-color:#1c66b7" />
      <stop
         id="stop6512"
         offset="0.668"
         style="stop-opacity:1;stop-color:#2259ab" />
      <stop
         id="stop6514"
         offset="0.8125"
         style="stop-opacity:1;stop-color:#24519e" />
      <stop
         id="stop6516"
         offset="1"
         style="stop-opacity:1;stop-color:#244f98" />
    </linearGradient>
    <clipPath
       id="clipPath6524"
       clipPathUnits="userSpaceOnUse">
      <path
         inkscape:connector-curvature="0"
         id="path6526"
         d="m 5059.64,3627.51 c -17.94,0 -35.87,-4.36 -51.54,-12.78 -2.66,-1.46 -3.52,-4.75 -2.12,-7.27 1.37,-2.61 4.54,-3.48 7.21,-2.12 14.27,7.55 30.32,11.61 46.58,11.61 54.57,0 99.09,-44.44 99.09,-99.06 0,-54.61 -44.52,-99.05 -99.09,-99.05 -11.72,0 -23.1,2.03 -33.97,5.9 -2.79,1.07 -5.78,-0.29 -6.84,-3.1 -0.98,-2.8 0.39,-5.8 3.2,-6.77 12,-4.46 24.77,-6.78 37.61,-6.78 60.55,0 109.67,49.29 109.67,109.71 -0.08,60.52 -49.4,109.71 -109.8,109.71 z" />
    </clipPath>
    <linearGradient
       id="linearGradient6528"
       spreadMethod="pad"
       gradientTransform="matrix(-171.82392,-171.82392,171.82392,-171.82392,5127.1884,3582.1907)"
       gradientUnits="userSpaceOnUse"
       y2="0"
       x2="1"
       y1="0"
       x1="0">
      <stop
         id="stop6530"
         offset="0"
         style="stop-opacity:1;stop-color:#259cdf" />
      <stop
         id="stop6532"
         offset="0.2623"
         style="stop-opacity:1;stop-color:#259cdf" />
      <stop
         id="stop6534"
         offset="0.3014"
         style="stop-opacity:1;stop-color:#2293d8" />
      <stop
         id="stop6536"
         offset="0.4162"
         style="stop-opacity:1;stop-color:#1b7bc7" />
      <stop
         id="stop6538"
         offset="0.5379"
         style="stop-opacity:1;stop-color:#1c66b7" />
      <stop
         id="stop6540"
         offset="0.668"
         style="stop-opacity:1;stop-color:#2259ab" />
      <stop
         id="stop6542"
         offset="0.8125"
         style="stop-opacity:1;stop-color:#24519e" />
      <stop
         id="stop6544"
         offset="1"
         style="stop-opacity:1;stop-color:#244f98" />
    </linearGradient>
  </defs>
  <sodipodi:namedview
     id="base"
     pagecolor="#ffffff"
     bordercolor="#666666"
     borderopacity="1.0"
     inkscape:pageopacity="0.0"
     inkscape:pageshadow="2"
     inkscape:zoom="8"
     inkscape:cx="62.773275"
     inkscape:cy="14.482874"
     inkscape:document-units="px"
     inkscape:current-layer="layer1"
     showgrid="false"
     inkscape:window-width="1280"
     inkscape:window-height="695"
     inkscape:window-x="-4"
     inkscape:window-y="7"
     inkscape:window-maximized="0"
     fit-margin-top="0"
     fit-margin-left="0"
     fit-margin-right="0"
     fit-margin-bottom="0" />
  <metadata
     id="metadata7">
    <rdf:RDF>
      <cc:Work
         rdf:about="">
        <dc:format>image/svg+xml</dc:format>
        <dc:type
           rdf:resource="http://purl.org/dc/dcmitype/StillImage" />
        <dc:title></dc:title>
      </cc:Work>
    </rdf:RDF>
  </metadata>
  <g
     inkscape:label="Calque 1"
     inkscape:groupmode="layer"
     id="layer1"
     transform="translate(3456.6006,150.62017)">
    <g
       id="g8352">
      <path
         d="m -3443.5471,-132.00927 10.184,17.63112 27.9454,-7.48722 -0.2879,-1.07016 -27.1231,7.26777 -9.7579,-16.89272 -0.9605,0.55121"
         style="fill:#ef2e32;fill-opacity:1;fill-rule:nonzero;stroke:none"
         id="path5240"
         inkscape:connector-curvature="0" />
      <path
         d="m -3446.9473,-150.62017 c 5.3263,0 9.6482,4.32451 9.6482,9.64302 0,5.33142 -4.3219,9.65722 -9.6482,9.65722 -5.3353,0 -9.6533,-4.3258 -9.6533,-9.65722 0,-5.31851 4.318,-9.64302 9.6533,-9.64302"
         style="fill:#ef2e32;fill-opacity:1;fill-rule:nonzero;stroke:none"
         id="path5242"
         inkscape:connector-curvature="0" />
      <path
         d="m -3444.239,-142.60368 c 0.4505,-0.51636 0.6777,-1.18763 0.6777,-1.87181 0,-0.67127 -0.2272,-1.34253 -0.6777,-1.85889 l -0.9023,0.73581 c 0.2246,0.21945 0.4492,0.61963 0.4492,1.12308 0,0.51636 -0.2246,0.90363 -0.4492,1.136 l 0.9023,0.73581"
         style="fill:#ffffff;fill-opacity:1;fill-rule:nonzero;stroke:none"
         id="path5244"
         inkscape:connector-curvature="0" />
      <path
         d="m -3444.239,-142.60368 0.068,0.0516 c 0.4686,-0.51636 0.6997,-1.21344 0.6997,-1.92344 0,-0.69708 -0.2311,-1.39417 -0.6997,-1.92344 l -0.059,-0.0645 -1.0495,0.85199 0.072,0.0775 c 0.2091,0.20654 0.4234,0.5809 0.4221,1.05853 0,0.49055 -0.213,0.86491 -0.4234,1.07145 l -0.071,0.0774 1.0495,0.852 0.059,-0.0775 -0.068,-0.0516 0.057,-0.0775 -0.901,-0.73581 -0.058,0.0775 0.064,0.0645 c 0.2401,-0.24527 0.4776,-0.65836 0.4776,-1.20054 0,-0.52927 -0.2375,-0.94235 -0.4776,-1.18763 l -0.064,0.0645 0.058,0.0774 0.901,-0.73581 -0.057,-0.0775 -0.071,0.0645 c 0.4351,0.49054 0.6558,1.13599 0.6558,1.79435 0,0.65836 -0.2207,1.31672 -0.6558,1.80726 l 0.071,0.0645 0.057,-0.0775 -0.057,0.0775"
         style="fill:#ffffff;fill-opacity:1;fill-rule:nonzero;stroke:none"
         id="path5246"
         inkscape:connector-curvature="0" />
      <path
         d="m -3448.7571,-143.3395 c -0.2246,-0.23236 -0.4506,-0.61963 -0.4506,-1.13599 0,-0.50345 0.226,-0.90363 0.4506,-1.12308 l -0.9024,-0.73581 c -0.4531,0.51636 -0.6764,1.18762 -0.6764,1.85889 0,0.68418 0.2233,1.35545 0.6764,1.87181 l 0.9024,-0.73582"
         style="fill:#ffffff;fill-opacity:1;fill-rule:nonzero;stroke:none"
         id="path5248"
         inkscape:connector-curvature="0" />
      <path
         d="m -3448.7571,-143.3395 0.067,-0.0645 c -0.2117,-0.20654 -0.426,-0.58091 -0.426,-1.07145 0,-0.47763 0.2143,-0.85199 0.426,-1.05854 l 0.072,-0.0774 -1.0521,-0.85199 -0.058,0.0645 c -0.4699,0.52927 -0.701,1.22636 -0.701,1.92344 0,0.71 0.2311,1.40708 0.701,1.92344 l 0.058,0.0775 1.0508,-0.852 -0.071,-0.0774 -0.067,0.0645 -0.057,-0.0774 -0.9049,0.73581 0.059,0.0775 0.068,-0.0645 c -0.4364,-0.49054 -0.6532,-1.1489 -0.6532,-1.80726 0,-0.65836 0.2168,-1.30381 0.6532,-1.79435 l -0.068,-0.0645 -0.059,0.0775 0.9049,0.73581 0.057,-0.0774 -0.064,-0.0645 c -0.2414,0.24528 -0.4789,0.65836 -0.4789,1.18763 0,0.54218 0.2375,0.95527 0.4789,1.20054 l 0.064,-0.0645 -0.057,-0.0774 0.057,0.0774"
         style="fill:#ffffff;fill-opacity:1;fill-rule:nonzero;stroke:none"
         id="path5250"
         inkscape:connector-curvature="0" />
      <path
         d="m -3445.0303,-136.62682 -2.8787,-2.53016 0.9617,-2.65925 1.917,5.18941 z m -3.8378,0 0.5073,-1.40708 0.5654,0.45182 -1.0727,0.95526 z m 3.0465,-7.84867 c 0,-0.61963 -0.5073,-1.12308 -1.1257,-1.12308 -0.6222,0 -1.1321,0.50345 -1.1321,1.12308 0,0.40018 0.2259,0.80036 0.5667,0.96818 l -3.3886,9.20411 1.185,0 0,-0.0645 2.769,-2.42689 2.7638,2.42689 0,0.0645 1.1864,0 -3.3861,-9.20411 c 0.337,-0.16782 0.5616,-0.568 0.5616,-0.96818"
         style="fill:#ffffff;fill-opacity:1;fill-rule:nonzero;stroke:none"
         id="path5252"
         inkscape:connector-curvature="0" />
      <path
         d="m -3445.0303,-136.62682 0.061,-0.0645 -2.8309,-2.50435 0.8532,-2.34943 1.8292,4.95705 0.088,-0.0387 0.061,-0.0645 -0.061,0.0645 0.085,-0.0258 -2.0047,-5.43469 -1.0676,2.95616 2.9252,2.5818 0.1471,-0.10327 -0.085,0.0258 z m -3.8378,0 0.087,0.0387 0.4634,-1.2909 0.3795,0.29691 -0.9914,0.89072 0.062,0.0645 0.087,0.0387 -0.087,-0.0387 0.061,0.0775 1.1541,-1.03272 -0.6494,-0.52927 -0.1019,-0.0774 -0.5513,1.53617 0.1485,0.10327 -0.061,-0.0775 z m 3.0465,-7.84867 0.092,0 c 0,-0.67127 -0.5487,-1.21344 -1.2173,-1.21344 -0.6752,0 -1.2238,0.54218 -1.2251,1.21344 0,0.43891 0.2414,0.86491 0.6183,1.04563 l 0.041,-0.0774 -0.088,-0.0387 -3.4325,9.33321 1.4097,0 0,-0.11618 2.676,-2.33653 2.6709,2.33653 0,0.11618 1.4122,0 -3.4325,-9.33321 -0.086,0.0387 0.041,0.0774 c 0.3744,-0.18072 0.6106,-0.60672 0.6119,-1.04563 l -0.1846,0 c 0,0.36145 -0.2104,0.73582 -0.5099,0.87781 l -0.074,0.0387 3.3693,9.15248 -1.0547,0 0,0.10327 0.092,0 0,-0.10327 -2.8555,-2.50434 -2.8606,2.50434 0,0 -0.9617,0 3.3718,-9.15248 -0.076,-0.0387 c -0.3008,-0.14199 -0.5138,-0.51636 -0.5125,-0.87781 10e-4,-0.56799 0.4686,-1.03272 1.0392,-1.03272 0.5654,0 1.0314,0.46473 1.0327,1.03272 l 0.093,0"
         style="fill:#ffffff;fill-opacity:1;fill-rule:nonzero;stroke:none"
         id="path5254"
         inkscape:connector-curvature="0" />
      <path
         d="m -3442.5479,-147.63819 -0.8468,0.73581 c 0.6222,0.80036 0.9617,1.58781 0.9617,2.42689 0,0.852 -0.3395,1.63945 -1.0172,2.49144 l 0.8468,0.73581 c 0.9036,-1.07144 1.2986,-2.14289 1.2986,-3.22725 0,-1.07144 -0.395,-2.14289 -1.2431,-3.1627"
         style="fill:#ffffff;fill-opacity:1;fill-rule:nonzero;stroke:none"
         id="path5256"
         inkscape:connector-curvature="0" />
      <path
         d="m -3442.5479,-147.63819 -0.061,-0.0645 -0.8455,0.73582 -0.066,0.0645 0.053,0.0645 c 0.6131,0.77454 0.941,1.54908 0.941,2.36234 0,0.82618 -0.3279,1.60072 -0.9966,2.42689 l -0.057,0.0775 0.9863,0.85199 0.061,-0.0774 c 0.914,-1.08436 1.3206,-2.18162 1.3206,-3.27889 0,-1.08435 -0.4054,-2.18162 -1.2651,-3.21434 l -0.059,-0.0774 -0.072,0.0645 0.061,0.0645 -0.071,0.0645 c 0.8365,1.0069 1.2225,2.05253 1.2225,3.09816 0,1.05854 -0.386,2.10417 -1.2767,3.16271 l 0.07,0.0645 0.062,-0.0774 -0.8494,-0.73581 -0.059,0.0774 0.071,0.0516 c 0.6867,-0.852 1.0392,-1.66527 1.0392,-2.54308 0,-0.8649 -0.3525,-1.67817 -0.9811,-2.47853 l -0.074,0.0516 0.062,0.0774 0.8455,-0.73581 -0.061,-0.0774 -0.071,0.0645 0.071,-0.0645"
         style="fill:#ffffff;fill-opacity:1;fill-rule:nonzero;stroke:none"
         id="path5258"
         inkscape:connector-curvature="0" />
      <path
         d="m -3451.4641,-144.47549 c 0,-0.83908 0.3356,-1.62653 1.0146,-2.47853 l -0.9036,-0.68417 c -0.8456,1.01981 -1.2419,2.09126 -1.2419,3.1627 0,1.08436 0.3963,2.15581 1.2419,3.16271 l 0.8455,-0.73582 c -0.6209,-0.78744 -0.9565,-1.57489 -0.9565,-2.42689"
         style="fill:#ffffff;fill-opacity:1;fill-rule:nonzero;stroke:none"
         id="path5260"
         inkscape:connector-curvature="0" />
      <path
         d="m -3451.4641,-144.47549 0.093,0 c 0,-0.81326 0.3227,-1.5878 0.9927,-2.41398 l 0.061,-0.0774 -1.0508,-0.78745 -0.055,0.0645 c -0.8585,1.03272 -1.2625,2.12999 -1.2625,3.21434 0,1.09727 0.404,2.19453 1.2625,3.22725 l 0.061,0.0775 0.9836,-0.86491 -0.054,-0.0645 c -0.6132,-0.77454 -0.9372,-1.54908 -0.9372,-2.37526 l -0.1859,0 c 0,0.87781 0.3473,1.69108 0.9772,2.49144 l 0.072,-0.0645 -0.061,-0.0645 -0.8442,0.73581 0.059,0.0645 0.071,-0.0516 c -0.8352,-1.0069 -1.2199,-2.05253 -1.2199,-3.11107 0,-1.04563 0.3847,-2.09126 1.2199,-3.09816 l -0.071,-0.0645 -0.055,0.0774 0.9036,0.68418 0.056,-0.0775 -0.072,-0.0516 c -0.6867,0.85199 -1.0353,1.66526 -1.0353,2.53016 l 0.093,0"
         style="fill:#ffffff;fill-opacity:1;fill-rule:nonzero;stroke:none"
         id="path5262"
         inkscape:connector-curvature="0" />
      <path
         d="m -3396.2704,-134.05792 c 5.3288,0 9.6482,4.31418 9.6482,9.64431 0,5.32884 -4.3194,9.64948 -9.6482,9.64948 -5.3314,0 -9.6521,-4.32064 -9.6521,-9.64948 0,-5.33013 4.3207,-9.64431 9.6521,-9.64431"
         style="fill:#ef2e32;fill-opacity:1;fill-rule:nonzero;stroke:none"
         id="path5264"
         inkscape:connector-curvature="0" />
      <path
         d="m -3393.5621,-126.04918 c 0.4531,-0.50732 0.6777,-1.18634 0.6777,-1.86277 0,-0.67643 -0.2246,-1.35674 -0.6777,-1.86406 l -0.9037,0.73581 c 0.2272,0.22591 0.4532,0.62093 0.4532,1.12825 0,0.50862 -0.226,0.90234 -0.4532,1.13083 l 0.9037,0.73194"
         style="fill:#ffffff;fill-opacity:1;fill-rule:nonzero;stroke:none"
         id="path5266"
         inkscape:connector-curvature="0" />
      <path
         d="m -3393.5621,-126.04918 0.07,0.0633 c 0.4699,-0.52927 0.6997,-1.22893 0.6997,-1.92602 0,-0.69709 -0.2298,-1.39675 -0.6997,-1.92473 l -0.059,-0.0645 -1.0508,0.85329 0.072,0.0723 c 0.2104,0.21171 0.426,0.58478 0.4247,1.0637 0,0.48022 -0.2143,0.85329 -0.4247,1.0637 l -0.072,0.0723 1.0508,0.85458 0.059,-0.0645 -0.07,-0.0633 0.058,-0.071 -0.9037,-0.73452 -0.058,0.0736 0.065,0.0645 c 0.2427,-0.24268 0.4802,-0.65965 0.4802,-1.19537 0,-0.53572 -0.2375,-0.95268 -0.4802,-1.19537 l -0.065,0.0671 0.058,0.071 0.9037,-0.73323 -0.058,-0.0736 -0.068,0.0633 c 0.435,0.48796 0.6544,1.14373 0.6544,1.8008 0,0.65578 -0.2194,1.31285 -0.6557,1.80081 l 0.07,0.062 0.058,-0.071 -0.058,0.071"
         style="fill:#ffffff;fill-opacity:1;fill-rule:nonzero;stroke:none"
         id="path5268"
         inkscape:connector-curvature="0" />
      <path
         d="m -3398.0777,-126.78112 c -0.2259,-0.22849 -0.4518,-0.62221 -0.4518,-1.13083 0,-0.50732 0.2259,-0.90363 0.4518,-1.12825 l -0.9036,-0.73581 c -0.4518,0.50732 -0.6777,1.18763 -0.6777,1.86406 0,0.67643 0.2259,1.35545 0.6777,1.86277 l 0.9036,-0.73194"
         style="fill:#ffffff;fill-opacity:1;fill-rule:nonzero;stroke:none"
         id="path5270"
         inkscape:connector-curvature="0" />
      <path
         d="m -3398.0777,-126.78112 0.066,-0.0671 c -0.2117,-0.21041 -0.4247,-0.58348 -0.4247,-1.0637 0,-0.47892 0.213,-0.85328 0.4235,-1.0637 l 0.074,-0.0723 -1.0533,-0.85458 -0.059,0.0658 c -0.466,0.52798 -0.6997,1.22635 -0.6997,1.92473 0,0.69709 0.2337,1.39675 0.6997,1.92344 l 0.059,0.0671 1.052,-0.85458 -0.071,-0.0723 -0.066,0.0671 -0.058,-0.0736 -0.9049,0.73452 0.059,0.071 0.068,-0.062 c -0.4337,-0.48796 -0.6558,-1.14503 -0.6545,-1.80081 0,-0.65707 0.2208,-1.31284 0.6545,-1.8021 l -0.068,-0.062 -0.059,0.0736 0.9049,0.73323 0.058,-0.071 -0.066,-0.0671 c -0.2414,0.2414 -0.479,0.65965 -0.479,1.19537 0,0.53572 0.2376,0.95269 0.479,1.19537 l 0.066,-0.0645 -0.058,-0.0736 0.058,0.0736"
         style="fill:#ffffff;fill-opacity:1;fill-rule:nonzero;stroke:none"
         id="path5272"
         inkscape:connector-curvature="0" />
      <path
         d="m -3394.3522,-120.06457 -2.8812,-2.54049 0.963,-2.6528 1.9182,5.19329 z m -3.8391,0 0.5086,-1.41095 0.5641,0.45181 -1.0727,0.95914 z m 3.0491,-7.84738 c 0,-0.62092 -0.5073,-1.12825 -1.1282,-1.12825 -0.621,0 -1.1296,0.50733 -1.1296,1.12825 0,0.39502 0.2259,0.79003 0.5642,0.96043 l -3.3874,9.20154 1.1864,0 0,-0.0568 2.7664,-2.42819 2.7664,2.42819 0,0.0568 1.1837,0 -3.3886,-9.20154 c 0.3408,-0.1704 0.5667,-0.56541 0.5667,-0.96043"
         style="fill:#ffffff;fill-opacity:1;fill-rule:nonzero;stroke:none"
         id="path5274"
         inkscape:connector-curvature="0" />
      <path
         d="m -3394.3522,-120.06457 0.062,-0.0684 -2.8335,-2.49918 0.8533,-2.35718 1.8318,4.95705 0.086,-0.0323 0.062,-0.0684 -0.062,0.0684 0.086,-0.0323 -2.006,-5.42953 -1.0702,2.94971 2.9291,2.5818 0.1471,-0.10198 -0.086,0.0323 z m -3.8391,0 0.086,0.0323 0.4647,-1.2909 0.3783,0.30208 -0.9915,0.88813 0.062,0.0684 0.086,0.0323 -0.086,-0.0323 0.062,0.0697 1.1527,-1.03272 -0.6493,-0.52023 -0.1007,-0.08 -0.5512,1.5323 0.1485,0.10069 -0.062,-0.0697 z m 3.0491,-7.84738 0.093,0 c 0,-0.67256 -0.5487,-1.22119 -1.2212,-1.22119 -0.6739,0 -1.2212,0.54863 -1.2225,1.22119 0,0.42858 0.2414,0.85329 0.6145,1.04305 l 0.043,-0.0826 -0.088,-0.0323 -3.4325,9.32417 1.4109,0 0,-0.10456 2.6748,-2.34815 2.6734,2.34815 0,0.10456 1.4084,0 -3.4338,-9.32417 -0.087,0.0323 0.043,0.0826 c 0.3757,-0.18976 0.6158,-0.61447 0.6171,-1.04305 l -0.1846,0 c 0,0.36016 -0.2117,0.72807 -0.5164,0.87781 l -0.074,0.0362 3.3706,9.15506 -1.0508,0 0,0.093 0.092,0 0,-0.0981 -2.858,-2.50951 -2.8594,2.50951 0,0.005 -0.9617,0 3.3705,-9.15506 -0.073,-0.0362 c -0.3021,-0.14974 -0.5151,-0.51765 -0.5138,-0.87781 0,-0.56929 0.4673,-1.03401 1.0379,-1.03659 0.5693,0.003 1.0353,0.4673 1.0366,1.03659 l 0.092,0"
         style="fill:#ffffff;fill-opacity:1;fill-rule:nonzero;stroke:none"
         id="path5276"
         inkscape:connector-curvature="0" />
      <path
         d="m -3391.8698,-131.07336 -0.8455,0.73452 c 0.6209,0.79132 0.9591,1.58006 0.9591,2.42689 0,0.84683 -0.3382,1.63815 -1.0159,2.48369 l 0.8468,0.73582 c 0.9037,-1.07274 1.2987,-2.14677 1.2987,-3.21951 0,-1.07274 -0.395,-2.14547 -1.2432,-3.16141"
         style="fill:#ffffff;fill-opacity:1;fill-rule:nonzero;stroke:none"
         id="path5278"
         inkscape:connector-curvature="0" />
      <path
         d="m -3391.8698,-131.07336 -0.059,-0.0697 -0.8469,0.73323 -0.066,0.0581 0.054,0.0684 c 0.6132,0.78228 0.9398,1.55037 0.9398,2.37138 0,0.82101 -0.3266,1.5891 -0.9953,2.42689 l -0.057,0.0697 0.9837,0.85329 0.062,-0.0723 c 0.914,-1.08307 1.3193,-2.18162 1.3193,-3.2776 0,-1.09597 -0.404,-2.19066 -1.2638,-3.2195 l -0.059,-0.0723 -0.071,0.0607 0.059,0.0697 -0.071,0.0594 c 0.8365,1.00303 1.2212,2.05253 1.2212,3.10203 0,1.0495 -0.3847,2.099 -1.2754,3.15883 l 0.07,0.0607 0.061,-0.071 -0.8455,-0.73324 -0.062,0.0684 0.072,0.0594 c 0.6855,-0.85715 1.0366,-1.67042 1.0366,-2.54307 0,-0.87265 -0.3498,-1.68333 -0.9798,-2.48498 l -0.072,0.0581 0.061,0.0697 0.8468,-0.73323 -0.062,-0.071 -0.071,0.0594 0.071,-0.0594"
         style="fill:#ffffff;fill-opacity:1;fill-rule:nonzero;stroke:none"
         id="path5280"
         inkscape:connector-curvature="0" />
      <path
         d="m -3400.7886,-127.91195 c 0,-0.84683 0.3408,-1.63557 1.016,-2.48369 l -0.9011,-0.67772 c -0.8494,1.01594 -1.2431,2.08867 -1.2431,3.16141 0,1.07274 0.3937,2.14677 1.2431,3.16141 l 0.8443,-0.73323 c -0.6184,-0.79003 -0.9592,-1.58135 -0.9592,-2.42818"
         style="fill:#ffffff;fill-opacity:1;fill-rule:nonzero;stroke:none"
         id="path5282"
         inkscape:connector-curvature="0" />
      <path
         d="m -3400.7886,-127.91195 0.093,0 c 0,-0.82101 0.3279,-1.58781 0.9965,-2.42689 l 0.058,-0.0736 -1.0482,-0.78616 -0.057,0.0671 c -0.8597,1.02884 -1.2638,2.12353 -1.2638,3.2195 0,1.09598 0.4041,2.19324 1.2638,3.2208 l 0.062,0.0736 0.9811,-0.85587 -0.054,-0.0684 c -0.6105,-0.7797 -0.9384,-1.54908 -0.9384,-2.37009 l -0.1846,0 c 0,0.87265 0.3511,1.68333 0.9785,2.48369 l 0.072,-0.0555 -0.061,-0.071 -0.8443,0.73582 0.061,0.0684 0.071,-0.0581 c -0.8378,-1.00302 -1.2212,-2.05382 -1.2212,-3.10332 0,-1.0495 0.3834,-2.099 1.2212,-3.10203 l -0.071,-0.0594 -0.055,0.0736 0.901,0.67772 0.056,-0.0736 -0.071,-0.0581 c -0.6842,0.85716 -1.0366,1.66913 -1.0366,2.54178 l 0.092,0"
         style="fill:#ffffff;fill-opacity:1;fill-rule:nonzero;stroke:none"
         id="path5284"
         inkscape:connector-curvature="0" />
      <path
         d="m -3434.0912,-115.68325 c 5.3314,0 9.6533,4.32064 9.6533,9.65206 0,5.33012 -4.3219,9.64947 -9.6533,9.64947 -5.3301,0 -9.6495,-4.31935 -9.6495,-9.64947 0,-5.33142 4.3194,-9.65206 9.6495,-9.65206"
         style="fill:#ef2e32;fill-opacity:1;fill-rule:nonzero;stroke:none"
         id="path5286"
         inkscape:connector-curvature="0" />
      <path
         d="m -3431.3777,-107.66676 c 0.4492,-0.50733 0.6764,-1.18505 0.6764,-1.86277 0,-0.67773 -0.2272,-1.35416 -0.6764,-1.86277 l -0.905,0.73323 c 0.2259,0.22591 0.4519,0.61963 0.4519,1.12954 0,0.50732 -0.226,0.90234 -0.4519,1.12824 l 0.905,0.73453"
         style="fill:#ffffff;fill-opacity:1;fill-rule:nonzero;stroke:none"
         id="path5288"
         inkscape:connector-curvature="0" />
      <path
         d="m -3431.3777,-107.66676 0.068,0.062 c 0.4673,-0.52669 0.7009,-1.22636 0.7009,-1.92473 0,-0.69709 -0.2336,-1.39547 -0.7009,-1.92474 l -0.059,-0.0658 -1.0508,0.85328 0.072,0.0723 c 0.2091,0.21042 0.4247,0.58349 0.4247,1.065 0,0.47892 -0.2156,0.85328 -0.4247,1.06241 l -0.072,0.0723 1.0508,0.85586 0.059,-0.0658 -0.068,-0.062 0.057,-0.071 -0.9024,-0.73582 -0.059,0.0723 0.066,0.0658 c 0.2401,-0.2414 0.4789,-0.65836 0.4789,-1.19408 0,-0.53702 -0.2388,-0.95398 -0.4789,-1.19409 l -0.066,0.0645 0.059,0.071 0.9024,-0.73323 -0.057,-0.071 -0.07,0.0607 c 0.4324,0.49054 0.6544,1.14632 0.6544,1.8021 0,0.65706 -0.222,1.31413 -0.6544,1.80209 l 0.07,0.0607 0.057,-0.071 -0.057,0.071"
         style="fill:#ffffff;fill-opacity:1;fill-rule:nonzero;stroke:none"
         id="path5290"
         inkscape:connector-curvature="0" />
      <path
         d="m -3435.8959,-108.40129 c -0.2259,-0.2259 -0.4531,-0.62092 -0.4531,-1.12824 0,-0.50991 0.2272,-0.90363 0.4531,-1.12954 l -0.9023,-0.73323 c -0.4544,0.50861 -0.679,1.18504 -0.679,1.86277 0,0.67772 0.2246,1.35544 0.679,1.86277 l 0.9023,-0.73453"
         style="fill:#ffffff;fill-opacity:1;fill-rule:nonzero;stroke:none"
         id="path5292"
         inkscape:connector-curvature="0" />
      <path
         d="m -3435.8959,-108.40129 0.066,-0.0658 c -0.2117,-0.20913 -0.426,-0.58349 -0.426,-1.06241 0,-0.48151 0.2143,-0.85329 0.426,-1.065 l 0.074,-0.0723 -1.0534,-0.85328 -0.057,0.0658 c -0.4711,0.52927 -0.7022,1.22765 -0.7022,1.92474 0,0.69837 0.2311,1.39804 0.7022,1.92473 l 0.058,0.0658 1.0521,-0.85586 -0.074,-0.0723 -0.066,0.0658 -0.057,-0.0723 -0.9036,0.73582 0.058,0.071 0.068,-0.0607 c -0.4376,-0.48796 -0.6545,-1.14502 -0.6545,-1.80209 0,-0.65707 0.2169,-1.31156 0.6545,-1.8021 l -0.068,-0.0607 -0.058,0.071 0.9036,0.73323 0.057,-0.071 -0.064,-0.0645 c -0.2427,0.24011 -0.4802,0.65707 -0.4815,1.19409 10e-4,0.53572 0.2388,0.95268 0.4815,1.19408 l 0.064,-0.0658 -0.057,-0.0723 0.057,0.0723"
         style="fill:#ffffff;fill-opacity:1;fill-rule:nonzero;stroke:none"
         id="path5294"
         inkscape:connector-curvature="0" />
      <path
         d="m -3432.1691,-101.68215 -2.8813,-2.54049 0.9592,-2.6528 1.9221,5.19329 z m -3.8391,0 0.506,-1.41225 0.5654,0.45182 -1.0714,0.96043 z m 3.0478,-7.84738 c 0,-0.62093 -0.5073,-1.12954 -1.1308,-1.12954 -0.6196,0 -1.1296,0.50861 -1.1296,1.12954 0,0.39372 0.226,0.79003 0.568,0.95914 l -3.3873,9.20153 1.1838,0 0,-0.0568 2.7651,-2.4256 2.769,2.4256 0,0.0568 1.185,0 -3.386,-9.20153 c 0.3356,-0.16911 0.5628,-0.56542 0.5628,-0.95914"
         style="fill:#ffffff;fill-opacity:1;fill-rule:nonzero;stroke:none"
         id="path5296"
         inkscape:connector-curvature="0" />
      <path
         d="m -3432.1691,-101.68215 0.061,-0.0697 -2.8335,-2.49918 0.8507,-2.3559 1.8357,4.95706 0.086,-0.0323 0.061,-0.0697 -0.061,0.0697 0.087,-0.0323 -2.0087,-5.42953 -1.0675,2.94842 2.9277,2.5818 0.1485,-0.10069 -0.087,0.0323 z m -3.8391,0 0.086,0.031 0.4621,-1.2909 0.3809,0.30336 -0.9915,0.88685 0.062,0.0697 0.086,0.031 -0.086,-0.031 0.061,0.0684 1.1528,-1.03272 -0.6493,-0.52024 -0.102,-0.0813 -0.5499,1.53488 0.1484,0.0994 -0.061,-0.0684 z m 3.0478,-7.84738 0.093,0 c 0,-0.67256 -0.5486,-1.22249 -1.2238,-1.22249 -0.6712,0 -1.2199,0.54993 -1.2199,1.22249 0,0.42858 0.2402,0.85328 0.6171,1.04175 l 0.041,-0.0826 -0.088,-0.0323 -3.4325,9.32546 1.4084,0 0,-0.10585 2.6734,-2.34556 2.6773,2.34556 0,0.10585 1.4097,0 -3.4325,-9.32546 -0.087,0.0323 0.041,0.0826 c 0.3718,-0.18847 0.6119,-0.61317 0.6145,-1.04175 l -0.1859,0 c 10e-4,0.35887 -0.213,0.72806 -0.5112,0.87652 l -0.074,0.0361 3.3679,9.15636 -1.052,0 0,0.0916 0.092,0 0,-0.0981 -2.8607,-2.50693 -2.858,2.50693 0,0.006 -0.9604,0 3.3718,-9.15636 -0.075,-0.0361 c -0.3047,-0.14846 -0.5164,-0.51765 -0.5151,-0.87652 0,-0.56929 0.4686,-1.0353 1.0366,-1.03789 0.5719,0.003 1.0366,0.4686 1.0379,1.03789 l 0.093,0"
         style="fill:#ffffff;fill-opacity:1;fill-rule:nonzero;stroke:none"
         id="path5298"
         inkscape:connector-curvature="0" />
      <path
         d="m -3429.6867,-112.69224 -0.8481,0.73581 c 0.6222,0.78874 0.963,1.58136 0.963,2.4269 0,0.84683 -0.3408,1.63686 -1.0146,2.48369 l 0.8429,0.73323 c 0.9062,-1.07274 1.3,-2.14419 1.3,-3.21692 0,-1.07403 -0.3938,-2.14548 -1.2432,-3.16271"
         style="fill:#ffffff;fill-opacity:1;fill-rule:nonzero;stroke:none"
         id="path5300"
         inkscape:connector-curvature="0" />
      <path
         d="m -3429.6867,-112.69224 -0.059,-0.0697 -0.8481,0.73582 -0.067,0.0568 0.054,0.0684 c 0.6145,0.781 0.9424,1.55037 0.9424,2.37139 0,0.82101 -0.3266,1.5878 -0.9953,2.42689 l -0.054,0.0684 0.9811,0.85199 0.061,-0.071 c 0.9165,-1.08435 1.3219,-2.18162 1.3206,-3.2763 0,-1.09727 -0.4028,-2.19066 -1.2638,-3.2208 l -0.059,-0.0723 -0.071,0.0607 0.059,0.0697 -0.07,0.0594 c 0.8378,1.00303 1.2199,2.05253 1.2199,3.10333 0,1.0495 -0.3821,2.09642 -1.2767,3.15754 l 0.07,0.0594 0.062,-0.0697 -0.8456,-0.73323 -0.059,0.0697 0.071,0.0581 c 0.6816,-0.85716 1.0366,-1.66913 1.0366,-2.54178 0,-0.87265 -0.3524,-1.68592 -0.9823,-2.48499 l -0.074,0.0581 0.062,0.0697 0.8468,-0.73452 -0.061,-0.071 -0.07,0.0594 0.07,-0.0594"
         style="fill:#ffffff;fill-opacity:1;fill-rule:nonzero;stroke:none"
         id="path5302"
         inkscape:connector-curvature="0" />
      <path
         d="m -3438.6055,-109.52953 c 0,-0.84554 0.3369,-1.63816 1.0159,-2.48499 l -0.9036,-0.67772 c -0.8442,1.01723 -1.2418,2.08868 -1.2418,3.16271 0,1.07273 0.3976,2.14418 1.2418,3.16012 l 0.8468,-0.73194 c -0.6222,-0.79132 -0.9591,-1.58135 -0.9591,-2.42818"
         style="fill:#ffffff;fill-opacity:1;fill-rule:nonzero;stroke:none"
         id="path5304"
         inkscape:connector-curvature="0" />
      <path
         d="m -3438.6055,-109.52953 0.093,0 c 10e-4,-0.82102 0.324,-1.59039 0.9953,-2.4269 l 0.059,-0.0736 -1.0508,-0.78745 -0.055,0.0671 c -0.8546,1.03014 -1.2625,2.12353 -1.2625,3.2208 0,1.09468 0.4079,2.19065 1.2625,3.22079 l 0.061,0.0723 0.9837,-0.85328 -0.054,-0.0697 c -0.6132,-0.781 -0.9385,-1.54908 -0.9385,-2.37009 l -0.1846,0 c 0,0.87135 0.3472,1.68462 0.9772,2.48498 l 0.074,-0.0568 -0.061,-0.0697 -0.8455,0.73323 0.059,0.0684 0.071,-0.0581 c -0.8327,-1.00432 -1.2199,-2.05253 -1.2199,-3.10203 0,-1.0508 0.3872,-2.1003 1.2199,-3.10333 l -0.071,-0.0594 -0.054,0.0736 0.9036,0.67773 0.054,-0.0736 -0.072,-0.0568 c -0.6868,0.85458 -1.0366,1.66914 -1.0353,2.54179 l 0.092,0"
         style="fill:#ffffff;fill-opacity:1;fill-rule:nonzero;stroke:none"
         id="path5306"
         inkscape:connector-curvature="0" />
    </g>
  </g>
</svg>
