<?xml version="1.0" encoding="UTF-8" standalone="no"?>
<!-- Created with Inkscape (http://www.inkscape.org/) -->

<svg
   xmlns:dc="http://purl.org/dc/elements/1.1/"
   xmlns:cc="http://creativecommons.org/ns#"
   xmlns:rdf="http://www.w3.org/1999/02/22-rdf-syntax-ns#"
   xmlns:svg="http://www.w3.org/2000/svg"
   xmlns="http://www.w3.org/2000/svg"
   xmlns:sodipodi="http://sodipodi.sourceforge.net/DTD/sodipodi-0.dtd"
   xmlns:inkscape="http://www.inkscape.org/namespaces/inkscape"
   width="307"
   height="295.75687"
   viewBox="0 0 307.00001 295.75685"
   id="svg2"
   version="1.1"
   inkscape:version="0.91 r13725"
   sodipodi:docname="application.svg"
   inkscape:export-filename="U:\hl2\kickstarter\images\features2.png"
   inkscape:export-xdpi="234"
   inkscape:export-ydpi="234">
  <defs
     id="defs4">
    <clipPath
       id="clipPath5374"
       clipPathUnits="userSpaceOnUse">
      <path
         inkscape:connector-curvature="0"
         id="path5376"
         d="m 2606.62,8958.32 c 34.47,0 62.41,-27.93 62.41,-62.39 0,-34.47 -27.94,-62.39 -62.41,-62.39 -34.44,0 -62.39,27.92 -62.39,62.39 0,34.46 27.95,62.39 62.39,62.39 z" />
    </clipPath>
    <linearGradient
       id="linearGradient5378"
       spreadMethod="pad"
       gradientTransform="matrix(-235.73573,-235.73573,235.73573,-235.73573,2694.8059,8984.0906)"
       gradientUnits="userSpaceOnUse"
       y2="0"
       x2="1"
       y1="0"
       x1="0">
      <stop
         id="stop5380"
         offset="0"
         style="stop-opacity:1;stop-color:#249fe0" />
      <stop
         id="stop5382"
         offset="0.2623"
         style="stop-opacity:1;stop-color:#249fe0" />
      <stop
         id="stop5384"
         offset="0.3014"
         style="stop-opacity:1;stop-color:#2194da" />
      <stop
         id="stop5386"
         offset="0.4162"
         style="stop-opacity:1;stop-color:#1b7cc9" />
      <stop
         id="stop5388"
         offset="0.5379"
         style="stop-opacity:1;stop-color:#1a66ba" />
      <stop
         id="stop5390"
         offset="0.668"
         style="stop-opacity:1;stop-color:#2058ac" />
      <stop
         id="stop5392"
         offset="0.8125"
         style="stop-opacity:1;stop-color:#23509f" />
      <stop
         id="stop5394"
         offset="1"
         style="stop-opacity:1;stop-color:#234e9b" />
    </linearGradient>
    <clipPath
       id="clipPath5402"
       clipPathUnits="userSpaceOnUse">
      <path
         inkscape:connector-curvature="0"
         id="path5404"
         d="m 2687.5,8831.15 c 1.2,-0.85 2.71,-1.35 4.07,-1.35 2.21,0 4.41,1.02 5.95,3.03 12.87,18.66 19.66,40.37 19.66,63.1 0,55.43 -41.03,101.39 -94.27,109.35 -2.38,6.8 -8.82,11.54 -16.44,11.54 -9.67,0 -17.48,-7.81 -17.48,-17.46 0,-9.68 7.81,-17.47 17.48,-17.47 6.6,0 12.37,3.72 15.25,9.16 45.94,-7.28 81.05,-47.13 81.05,-95.12 0,-19.85 -5.93,-38.82 -17.11,-54.95 -2.22,-3.2 -1.37,-7.6 1.84,-9.83 z" />
    </clipPath>
    <linearGradient
       id="linearGradient5406"
       spreadMethod="pad"
       gradientTransform="matrix(-209.21353,-209.21353,209.21353,-209.21353,2700.122,8976.528)"
       gradientUnits="userSpaceOnUse"
       y2="0"
       x2="1"
       y1="0"
       x1="0">
      <stop
         id="stop5408"
         offset="0"
         style="stop-opacity:1;stop-color:#249fe0" />
      <stop
         id="stop5410"
         offset="0.2623"
         style="stop-opacity:1;stop-color:#249fe0" />
      <stop
         id="stop5412"
         offset="0.3014"
         style="stop-opacity:1;stop-color:#2194da" />
      <stop
         id="stop5414"
         offset="0.4162"
         style="stop-opacity:1;stop-color:#1b7cc9" />
      <stop
         id="stop5416"
         offset="0.5379"
         style="stop-opacity:1;stop-color:#1a66ba" />
      <stop
         id="stop5418"
         offset="0.668"
         style="stop-opacity:1;stop-color:#2058ac" />
      <stop
         id="stop5420"
         offset="0.8125"
         style="stop-opacity:1;stop-color:#23509f" />
      <stop
         id="stop5422"
         offset="1"
         style="stop-opacity:1;stop-color:#234e9b" />
    </linearGradient>
    <clipPath
       id="clipPath5430"
       clipPathUnits="userSpaceOnUse">
      <path
         inkscape:connector-curvature="0"
         id="path5432"
         d="m 2623.24,8786.57 c 3.22,-3.73 7.99,-6.11 13.22,-6.11 9.69,0 17.47,7.78 17.47,17.47 0,9.66 -7.78,17.45 -17.47,17.45 -8.82,0 -16.1,-6.45 -17.29,-14.93 -4.23,-0.5 -8.47,-0.84 -12.7,-0.84 -53.08,0 -96.32,43.23 -96.32,96.32 0,19.34 5.76,37.98 16.45,53.91 2.21,3.23 1.35,7.63 -1.88,10.01 -3.21,2.2 -7.62,1.35 -9.99,-1.87 -12.37,-18.31 -18.82,-39.68 -18.82,-61.9 0,-61.03 49.68,-110.7 110.71,-110.7 5.61,0 11.2,0.32 16.62,1.19 z" />
    </clipPath>
    <linearGradient
       id="linearGradient5434"
       spreadMethod="pad"
       gradientTransform="matrix(-208.92304,-208.92304,208.92304,-208.92304,2675.488,8965.5473)"
       gradientUnits="userSpaceOnUse"
       y2="0"
       x2="1"
       y1="0"
       x1="0">
      <stop
         id="stop5436"
         offset="0"
         style="stop-opacity:1;stop-color:#249fe0" />
      <stop
         id="stop5438"
         offset="0.2623"
         style="stop-opacity:1;stop-color:#249fe0" />
      <stop
         id="stop5440"
         offset="0.3014"
         style="stop-opacity:1;stop-color:#2194da" />
      <stop
         id="stop5442"
         offset="0.4162"
         style="stop-opacity:1;stop-color:#1b7cc9" />
      <stop
         id="stop5444"
         offset="0.5379"
         style="stop-opacity:1;stop-color:#1a66ba" />
      <stop
         id="stop5446"
         offset="0.668"
         style="stop-opacity:1;stop-color:#2058ac" />
      <stop
         id="stop5448"
         offset="0.8125"
         style="stop-opacity:1;stop-color:#23509f" />
      <stop
         id="stop5450"
         offset="1"
         style="stop-opacity:1;stop-color:#234e9b" />
    </linearGradient>
    <clipPath
       id="clipPath5458"
       clipPathUnits="userSpaceOnUse">
      <path
         inkscape:connector-curvature="0"
         id="path5460"
         d="m 2473.7,8895.93 c 0,21.36 5.09,42.21 14.91,61.03 l 1.87,-0.16 c 9.66,0 17.46,7.79 17.46,17.45 0,9.68 -7.8,17.47 -17.46,17.47 -9.66,0 -17.46,-7.79 -17.46,-17.47 0,-3.72 1.18,-7.1 3.22,-10 -11.03,-21.02 -16.79,-44.24 -16.79,-68.32 0,-29 8.48,-57.15 24.42,-81.23 1.35,-2.03 3.73,-3.21 5.93,-3.21 1.36,0 2.72,0.33 3.9,1.18 3.22,2.2 4.24,6.62 2.03,9.84 -14.41,21.85 -22.03,47.3 -22.03,73.42 z" />
    </clipPath>
    <linearGradient
       id="linearGradient5462"
       spreadMethod="pad"
       gradientTransform="matrix(-215.70319,-215.70319,215.70319,-215.70319,2613.5642,9027.2097)"
       gradientUnits="userSpaceOnUse"
       y2="0"
       x2="1"
       y1="0"
       x1="0">
      <stop
         id="stop5464"
         offset="0"
         style="stop-opacity:1;stop-color:#249fe0" />
      <stop
         id="stop5466"
         offset="0.2623"
         style="stop-opacity:1;stop-color:#249fe0" />
      <stop
         id="stop5468"
         offset="0.3014"
         style="stop-opacity:1;stop-color:#2194da" />
      <stop
         id="stop5470"
         offset="0.4162"
         style="stop-opacity:1;stop-color:#1b7cc9" />
      <stop
         id="stop5472"
         offset="0.5379"
         style="stop-opacity:1;stop-color:#1a66ba" />
      <stop
         id="stop5474"
         offset="0.668"
         style="stop-opacity:1;stop-color:#2058ac" />
      <stop
         id="stop5476"
         offset="0.8125"
         style="stop-opacity:1;stop-color:#23509f" />
      <stop
         id="stop5478"
         offset="1"
         style="stop-opacity:1;stop-color:#234e9b" />
    </linearGradient>
    <clipPath
       id="clipPath5486"
       clipPathUnits="userSpaceOnUse">
      <path
         inkscape:connector-curvature="0"
         id="path5488"
         d="m 2606.62,9043.26 c -24.07,0 -48.15,-5.93 -69.17,-17.29 -3.56,-1.87 -4.74,-6.27 -2.88,-9.66 1.86,-3.56 6.1,-4.75 9.66,-2.89 19.16,10.18 40.69,15.6 62.57,15.6 73.25,0 132.93,-59.68 132.93,-132.94 0,-73.23 -59.68,-132.93 -132.93,-132.93 -15.77,0 -31.03,2.72 -45.61,7.99 -3.74,1.35 -7.8,-0.52 -9.15,-4.26 -1.37,-3.73 0.5,-7.79 4.23,-9.15 16.11,-5.93 33.24,-8.99 50.53,-8.99 81.23,0 147.17,66.13 147.17,147.19 -0.17,81.21 -66.29,147.33 -147.35,147.33 z" />
    </clipPath>
    <linearGradient
       id="linearGradient5490"
       spreadMethod="pad"
       gradientTransform="matrix(-230.61817,-230.61817,230.61817,-230.61817,2697.2752,8982.3089)"
       gradientUnits="userSpaceOnUse"
       y2="0"
       x2="1"
       y1="0"
       x1="0">
      <stop
         id="stop5492"
         offset="0"
         style="stop-opacity:1;stop-color:#249fe0" />
      <stop
         id="stop5494"
         offset="0.2623"
         style="stop-opacity:1;stop-color:#249fe0" />
      <stop
         id="stop5496"
         offset="0.3014"
         style="stop-opacity:1;stop-color:#2194da" />
      <stop
         id="stop5498"
         offset="0.4162"
         style="stop-opacity:1;stop-color:#1b7cc9" />
      <stop
         id="stop5500"
         offset="0.5379"
         style="stop-opacity:1;stop-color:#1a66ba" />
      <stop
         id="stop5502"
         offset="0.668"
         style="stop-opacity:1;stop-color:#2058ac" />
      <stop
         id="stop5504"
         offset="0.8125"
         style="stop-opacity:1;stop-color:#23509f" />
      <stop
         id="stop5506"
         offset="1"
         style="stop-opacity:1;stop-color:#234e9b" />
    </linearGradient>
  </defs>
  <sodipodi:namedview
     id="base"
     pagecolor="#ffffff"
     bordercolor="#666666"
     borderopacity="1.0"
     inkscape:pageopacity="0.0"
     inkscape:pageshadow="2"
     inkscape:zoom="0.70000001"
     inkscape:cx="106.63483"
     inkscape:cy="273.66983"
     inkscape:document-units="px"
     inkscape:current-layer="layer1"
     showgrid="false"
     inkscape:window-width="1680"
     inkscape:window-height="937"
     inkscape:window-x="0"
     inkscape:window-y="1"
     inkscape:window-maximized="1"
     fit-margin-top="0"
     fit-margin-left="0"
     fit-margin-right="0"
     fit-margin-bottom="0"
     units="px" />
  <metadata
     id="metadata7">
    <rdf:RDF>
      <cc:Work
         rdf:about="">
        <dc:format>image/svg+xml</dc:format>
        <dc:type
           rdf:resource="http://purl.org/dc/dcmitype/StillImage" />
        <dc:title></dc:title>
      </cc:Work>
    </rdf:RDF>
  </metadata>
  <g
     inkscape:label="Calque 1"
     inkscape:groupmode="layer"
     id="layer1"
     transform="translate(3545.8727,6.3534223)">
    <g
       id="g4696"
       transform="matrix(4.6259393,0,0,4.6259393,12435.129,80.691629)">
      <g
         transform="matrix(0.12909,0,0,-0.12909,-3758.2207,1148.5777)"
         id="g5370">
        <g
           id="g5372"
           clip-path="url(#clipPath5374)">
          <path
             d="m 2606.62,8958.32 c 34.47,0 62.41,-27.93 62.41,-62.39 0,-34.47 -27.94,-62.39 -62.41,-62.39 -34.44,0 -62.39,27.92 -62.39,62.39 0,34.46 27.95,62.39 62.39,62.39"
             style="fill:url(#linearGradient5378);fill-opacity:1;fill-rule:nonzero;stroke:none"
             id="path5396"
             inkscape:connector-curvature="0" />
        </g>
      </g>
      <g
         transform="matrix(0.12909,0,0,-0.12909,-3758.2207,1148.5777)"
         id="g5398">
        <g
           id="g5400"
           clip-path="url(#clipPath5402)">
          <path
             d="m 2687.5,8831.15 c 1.2,-0.85 2.71,-1.35 4.07,-1.35 2.21,0 4.41,1.02 5.95,3.03 12.87,18.66 19.66,40.37 19.66,63.1 0,55.43 -41.03,101.39 -94.27,109.35 -2.38,6.8 -8.82,11.54 -16.44,11.54 -9.67,0 -17.48,-7.81 -17.48,-17.46 0,-9.68 7.81,-17.47 17.48,-17.47 6.6,0 12.37,3.72 15.25,9.16 45.94,-7.28 81.05,-47.13 81.05,-95.12 0,-19.85 -5.93,-38.82 -17.11,-54.95 -2.22,-3.2 -1.37,-7.6 1.84,-9.83"
             style="fill:url(#linearGradient5406);fill-opacity:1;fill-rule:nonzero;stroke:none"
             id="path5424"
             inkscape:connector-curvature="0" />
        </g>
      </g>
      <g
         transform="matrix(0.12909,0,0,-0.12909,-3758.2207,1148.5777)"
         id="g5426">
        <g
           id="g5428"
           clip-path="url(#clipPath5430)">
          <path
             d="m 2623.24,8786.57 c 3.22,-3.73 7.99,-6.11 13.22,-6.11 9.69,0 17.47,7.78 17.47,17.47 0,9.66 -7.78,17.45 -17.47,17.45 -8.82,0 -16.1,-6.45 -17.29,-14.93 -4.23,-0.5 -8.47,-0.84 -12.7,-0.84 -53.08,0 -96.32,43.23 -96.32,96.32 0,19.34 5.76,37.98 16.45,53.91 2.21,3.23 1.35,7.63 -1.88,10.01 -3.21,2.2 -7.62,1.35 -9.99,-1.87 -12.37,-18.31 -18.82,-39.68 -18.82,-61.9 0,-61.03 49.68,-110.7 110.71,-110.7 5.61,0 11.2,0.32 16.62,1.19"
             style="fill:url(#linearGradient5434);fill-opacity:1;fill-rule:nonzero;stroke:none"
             id="path5452"
             inkscape:connector-curvature="0" />
        </g>
      </g>
      <g
         transform="matrix(0.12909,0,0,-0.12909,-3758.2207,1148.5777)"
         id="g5454">
        <g
           id="g5456"
           clip-path="url(#clipPath5458)">
          <path
             d="m 2473.7,8895.93 c 0,21.36 5.09,42.21 14.91,61.03 l 1.87,-0.16 c 9.66,0 17.46,7.79 17.46,17.45 0,9.68 -7.8,17.47 -17.46,17.47 -9.66,0 -17.46,-7.79 -17.46,-17.47 0,-3.72 1.18,-7.1 3.22,-10 -11.03,-21.02 -16.79,-44.24 -16.79,-68.32 0,-29 8.48,-57.15 24.42,-81.23 1.35,-2.03 3.73,-3.21 5.93,-3.21 1.36,0 2.72,0.33 3.9,1.18 3.22,2.2 4.24,6.62 2.03,9.84 -14.41,21.85 -22.03,47.3 -22.03,73.42"
             style="fill:url(#linearGradient5462);fill-opacity:1;fill-rule:nonzero;stroke:none"
             id="path5480"
             inkscape:connector-curvature="0" />
        </g>
      </g>
      <g
         transform="matrix(0.12909,0,0,-0.12909,-3758.2207,1148.5777)"
         id="g5482">
        <g
           id="g5484"
           clip-path="url(#clipPath5486)">
          <path
             d="m 2606.62,9043.26 c -24.07,0 -48.15,-5.93 -69.17,-17.29 -3.56,-1.87 -4.74,-6.27 -2.88,-9.66 1.86,-3.56 6.1,-4.75 9.66,-2.89 19.16,10.18 40.69,15.6 62.57,15.6 73.25,0 132.93,-59.68 132.93,-132.94 0,-73.23 -59.68,-132.93 -132.93,-132.93 -15.77,0 -31.03,2.72 -45.61,7.99 -3.74,1.35 -7.8,-0.52 -9.15,-4.26 -1.37,-3.73 0.5,-7.79 4.23,-9.15 16.11,-5.93 33.24,-8.99 50.53,-8.99 81.23,0 147.17,66.13 147.17,147.19 -0.17,81.21 -66.29,147.33 -147.35,147.33"
             style="fill:url(#linearGradient5490);fill-opacity:1;fill-rule:nonzero;stroke:none"
             id="path5508"
             inkscape:connector-curvature="0" />
        </g>
      </g>
      <path
         d="m -3449.8789,27.60794 c 0,0.37178 -0.1097,0.69967 -0.3073,0.91912 -0.1962,0.21817 -0.568,0.33047 -1.1166,0.33047 l -1.3993,0 0,-2.49918 1.3993,0 c 0.5486,0 0.9204,0.11102 1.1166,0.32918 0.2195,0.24269 0.3073,0.54734 0.3073,0.92041 z m 1.7737,-1.17988 c -0.1317,-0.37436 -0.3292,-0.68159 -0.6145,-0.92041 -0.2608,-0.24269 -0.6351,-0.43891 -1.0495,-0.59123 -0.417,-0.13555 -0.9204,-0.19751 -1.5116,-0.19751 l -1.97,0 c -0.4595,0 -0.8081,0.13038 -1.0495,0.39243 -0.2194,0.26076 -0.3498,0.59123 -0.3498,0.98754 l 0,7.92225 1.948,0 0,-3.48026 1.3993,0 c 1.1605,0 2.0371,-0.26335 2.5625,-0.8094 0.5228,-0.52668 0.7874,-1.24701 0.7874,-2.12353 0.022,-0.43761 -0.044,-0.83134 -0.1523,-1.17988"
         style="fill:#234e9b;fill-opacity:1;fill-rule:nonzero;stroke:none"
         id="path5510"
         inkscape:connector-curvature="0" />
      <path
         d="m -3444.4933,26.40482 c 0.064,-0.0891 0.1291,-0.13296 0.2608,-0.13296 l 0.2427,0.13296 c 0.084,0.10844 0.1291,0.26077 0.1742,0.43762 l 0.6132,3.04007 -2.0796,0 0.6131,-3.04007 c 0.021,-0.17685 0.087,-0.32918 0.1756,-0.43762 z m 1.7492,-1.29348 c -0.3731,-0.33047 -0.8752,-0.4815 -1.4884,-0.4815 -0.6339,0 -1.1386,0.15103 -1.5091,0.4815 -0.3731,0.30982 -0.6351,0.76551 -0.7448,1.31672 l -1.5104,7.57242 1.926,0 0.4815,-2.47466 2.7135,0 0.4815,2.47466 1.926,0 -1.5297,-7.57242 c -0.1329,-0.55121 -0.3743,-0.98625 -0.7461,-1.31672"
         style="fill:#234e9b;fill-opacity:1;fill-rule:nonzero;stroke:none"
         id="path5512"
         inkscape:connector-curvature="0" />
      <path
         d="m -3434.2074,30.91394 -2.4527,-5.29786 c -0.1523,-0.30723 -0.3279,-0.54734 -0.568,-0.7229 -0.2401,-0.17427 -0.5693,-0.284 -1.0056,-0.284 -0.4389,0 -0.8107,0.13038 -1.074,0.37178 -0.2621,0.23882 -0.4157,0.58994 -0.4157,1.0069 l 0,8.01262 1.9492,0 0,-6.24021 2.4502,5.29785 c 0.1549,0.30466 0.3292,0.54605 0.5693,0.74356 0.2401,0.1988 0.5692,0.284 1.0069,0.284 0.4595,0 0.8106,-0.13038 1.074,-0.37178 0.2633,-0.24011 0.3911,-0.59123 0.3911,-1.00819 l 0,-8.01004 -1.9466,0 0,6.21827 0.022,0"
         style="fill:#234e9b;fill-opacity:1;fill-rule:nonzero;stroke:none"
         id="path5514"
         inkscape:connector-curvature="0" />
      <path
         d="m -3428.8218,26.99606 c 0.284,-0.4828 0.7655,-0.7242 1.4446,-0.7242 0.6764,0 1.1592,0.2414 1.4432,0.7242 0.3072,0.50216 0.4583,1.28961 0.4583,2.31587 0,1.03014 -0.1511,1.82017 -0.4583,2.36493 -0.284,0.52669 -0.7668,0.76809 -1.4432,0.76809 -0.6791,0 -1.1606,-0.2414 -1.4446,-0.76809 -0.3059,-0.54476 -0.4608,-1.33479 -0.4608,-2.36493 0,-1.02626 0.1549,-1.81371 0.4608,-2.31587 z m 1.4652,-2.34299 c -1.3115,0 -2.2978,0.41567 -2.9329,1.20312 -0.6119,0.78874 -0.9191,1.94797 -0.9191,3.45574 0,1.51294 0.3072,2.6954 0.941,3.52545 0.6339,0.83392 1.6188,1.27024 2.911,1.27024 1.3116,0 2.2772,-0.41567 2.9123,-1.27024 0.6132,-0.83005 0.9191,-2.01251 0.9191,-3.52545 0,-1.50777 -0.3059,-2.667 -0.9191,-3.45574 -0.6351,-0.80939 -1.6007,-1.20312 -2.9123,-1.20312"
         style="fill:#234e9b;fill-opacity:1;fill-rule:nonzero;stroke:none"
         id="path5516"
         inkscape:connector-curvature="0" />
      <path
         d="m -3417.5948,27.60794 c 0,0.37178 -0.1097,0.69967 -0.3047,0.91912 -0.1975,0.21817 -0.5705,0.33047 -1.1192,0.33047 l -1.4212,0 0,-2.49918 1.4212,0 c 0.5487,0 0.9217,0.11102 1.1192,0.32918 0.2182,0.24269 0.3047,0.54734 0.3047,0.92041 z m 1.6433,1.37868 0,0 c 0.1084,-0.19492 0.173,-0.43761 0.2169,-0.65577 0.044,-0.24269 0.068,-0.48022 0.068,-0.72291 0,-0.43761 -0.068,-0.83134 -0.1769,-1.17988 -0.1316,-0.37436 -0.3279,-0.68159 -0.6144,-0.92041 -0.2814,-0.24269 -0.6339,-0.43891 -1.0495,-0.59123 -0.4144,-0.13555 -0.9192,-0.19751 -1.4884,-0.19751 l -1.9687,0 c -0.4595,0 -0.8106,0.13038 -1.0275,0.39243 -0.2208,0.26076 -0.3292,0.59123 -0.3292,0.98754 l 0,7.92225 1.9247,0 0,-3.48026 1.3581,0 c 0.4828,0 0.8313,0.12909 1.0934,0.41696 0.2633,0.28142 0.3937,0.69838 0.3937,1.28832 l 0,1.77498 1.9492,0 0,-1.88213 c 0,-0.52668 -0.1097,-1.0069 -0.3046,-1.46904 -0.1769,-0.3692 -0.4402,-0.6532 -0.7888,-0.87265 0.1291,-0.0658 0.2608,-0.15491 0.3486,-0.2414 0.1536,-0.17556 0.3059,-0.35112 0.395,-0.56929"
         style="fill:#234e9b;fill-opacity:1;fill-rule:nonzero;stroke:none"
         id="path5518"
         inkscape:connector-curvature="0" />
      <path
         d="m -3410.043,29.90575 -2.081,0 0.6145,-3.04395 c 0.044,-0.17427 0.1084,-0.32659 0.1756,-0.43374 0.066,-0.0891 0.1303,-0.13425 0.2633,-0.13425 l 0.2401,0.13425 c 0.088,0.10715 0.1317,0.25947 0.1756,0.43374 l 0.6119,3.04395 z m 0.4595,-4.79441 c -0.3718,-0.33047 -0.8752,-0.4815 -1.4871,-0.4815 -0.6351,0 -1.1386,0.15103 -1.5116,0.4815 -0.3705,0.30982 -0.6352,0.76551 -0.7436,1.31672 l -1.5104,7.57242 1.9261,0 0.4828,-2.47466 2.6915,0 0.4815,2.47466 1.926,0 -1.5323,-7.57242 c -0.088,-0.55121 -0.3498,-0.98625 -0.7229,-1.31672"
         style="fill:#234e9b;fill-opacity:1;fill-rule:nonzero;stroke:none"
         id="path5520"
         inkscape:connector-curvature="0" />
      <path
         d="m -3398.7477,24.62984 c -0.4169,0 -0.7668,0.10972 -1.0069,0.30723 -0.2414,0.19622 -0.4389,0.46085 -0.5473,0.8094 l -1.5981,4.70662 -1.5762,-4.70662 c -0.1098,-0.34855 -0.306,-0.61318 -0.568,-0.8094 -0.2647,-0.19751 -0.5926,-0.30723 -1.0069,-0.30723 -0.4609,0 -0.8107,0.13296 -1.0521,0.37436 -0.2401,0.23881 -0.3705,0.58994 -0.3705,1.00561 l 0,8.01132 1.9467,0 0,-5.58056 1.0288,2.97424 c 0.1317,0.35112 0.306,0.65707 0.5487,0.85328 0.2388,0.22075 0.5899,0.33047 1.0495,0.33047 0.4608,0 0.8093,-0.10972 1.0727,-0.33047 0.2414,-0.19621 0.4376,-0.4815 0.5473,-0.85328 l 1.0289,-2.93035 0,5.53667 1.9467,0 0,-8.01132 c 0,-0.41567 -0.1304,-0.74485 -0.3705,-1.00561 -0.2853,-0.2414 -0.6339,-0.37436 -1.0728,-0.37436"
         style="fill:#234e9b;fill-opacity:1;fill-rule:nonzero;stroke:none"
         id="path5522"
         inkscape:connector-curvature="0" />
      <path
         d="m -3392.8379,26.40482 c 0.064,-0.0891 0.1304,-0.13296 0.262,-0.13296 l 0.2414,0.13296 c 0.086,0.10844 0.1317,0.26077 0.1756,0.43762 l 0.6119,3.04007 -2.0784,0 0.6119,-3.04007 c 0.043,-0.17685 0.086,-0.32918 0.1756,-0.43762 z m 2.4953,0.0452 0,0 c -0.111,-0.54993 -0.3718,-1.0082 -0.7436,-1.31672 -0.373,-0.32918 -0.8765,-0.48022 -1.4897,-0.48022 -0.6338,0 -1.1373,0.15104 -1.509,0.48022 -0.3718,0.30852 -0.6352,0.76679 -0.7449,1.31672 l -1.5103,7.57112 1.926,0 0.4828,-2.47336 2.7147,0 0.4803,2.47336 1.926,0 -1.5323,-7.57112"
         style="fill:#234e9b;fill-opacity:1;fill-rule:nonzero;stroke:none"
         id="path5524"
         inkscape:connector-curvature="0" />
      <path
         d="m -3425.3854,42.16284 -3.5461,0 0,2.95487 -0.5693,0 0,-6.80821 0.5693,0 0,3.3486 3.5461,0 0,-3.3486 0.568,0 0,6.80821 -0.568,0 0,-2.95487"
         style="fill:#234e9b;fill-opacity:1;fill-rule:nonzero;stroke:none"
         id="path5526"
         inkscape:connector-curvature="0" />
      <path
         d="m -3419.1039,45.11771 -3.4596,0 c -0.2168,0 -0.3692,-0.0658 -0.4815,-0.19751 -0.1084,-0.13167 -0.1523,-0.30465 -0.1523,-0.50474 l 0,-6.10596 0.5693,0 0,6.13049 0.173,0.17556 3.3511,0 0,0.50216"
         style="fill:#234e9b;fill-opacity:1;fill-rule:nonzero;stroke:none"
         id="path5528"
         inkscape:connector-curvature="0" />
      <path
         d="m -3417.4412,44.61555 3.4157,0 0,0.50216 -3.6119,0 c -0.1536,0 -0.284,-0.0658 -0.3937,-0.15103 -0.1098,-0.11102 -0.1549,-0.24269 -0.1549,-0.39502 0,-0.5254 0.089,-0.9643 0.2646,-1.31414 0.1743,-0.34854 0.4144,-0.63512 0.6764,-0.85457 0.2634,-0.21945 0.5706,-0.41438 0.8766,-0.568 0.3072,-0.15361 0.6131,-0.30594 0.8765,-0.43761 0.2607,-0.15233 0.5021,-0.32918 0.679,-0.52669 0.1717,-0.19622 0.262,-0.43632 0.262,-0.74227 0,-0.45956 -0.1536,-0.79003 -0.4389,-1.02884 -0.2827,-0.2414 -0.7216,-0.35242 -1.2689,-0.35242 -0.3073,0 -0.5693,0.0439 -0.8327,0.11102 -0.262,0.0671 -0.4802,0.17556 -0.6996,0.34983 l -0.2182,-0.50474 c 0.088,-0.0645 0.1962,-0.12909 0.3279,-0.19493 0.1304,-0.0658 0.2633,-0.11101 0.4363,-0.15491 0.1536,-0.0439 0.3292,-0.0658 0.5061,-0.10972 0.1729,-0.022 0.3253,-0.0413 0.5021,-0.0413 0.7229,0 1.2909,0.15103 1.6859,0.50087 0.3938,0.33047 0.59,0.79132 0.59,1.4045 0,0.41309 -0.088,0.74097 -0.2634,0.98237 -0.1742,0.2414 -0.4169,0.46085 -0.6777,0.61318 -0.262,0.17298 -0.568,0.32918 -0.8765,0.45956 -0.3047,0.13167 -0.6106,0.30465 -0.8765,0.4828 -0.2608,0.17298 -0.5022,0.41567 -0.6765,0.67643 -0.1755,0.26334 -0.2633,0.63641 -0.2633,1.07274 l 0.067,0.13296 0.087,0.0878"
         style="fill:#234e9b;fill-opacity:1;fill-rule:nonzero;stroke:none"
         id="path5530"
         inkscape:connector-curvature="0" />
      <path
         d="m -3454.4332,42.27257 22.7436,0 0,-0.63487 -22.7436,0 0,0.63487 z"
         style="fill:#234e9b;fill-opacity:1;fill-rule:nonzero;stroke:none"
         id="path5532"
         inkscape:connector-curvature="0" />
      <path
         d="m -3411.0267,42.27257 22.7415,0 0,-0.63487 -22.7415,0 0,0.63487 z"
         style="fill:#234e9b;fill-opacity:1;fill-rule:nonzero;stroke:none"
         id="path5534"
         inkscape:connector-curvature="0" />
    </g>
  </g>
</svg>
