<?xml version="1.0" encoding="UTF-8" standalone="no"?>
<!-- Generator: Adobe Illustrator 16.0.0, SVG Export Plug-In . SVG Version: 6.00 Build 0)  -->

<svg
  xmlns:dc="http://purl.org/dc/elements/1.1/"
  xmlns:cc="http://creativecommons.org/ns#"
  xmlns:rdf="http://www.w3.org/1999/02/22-rdf-syntax-ns#"
  xmlns:svg="http://www.w3.org/2000/svg"
  xmlns="http://www.w3.org/2000/svg"
  xmlns:sodipodi="http://sodipodi.sourceforge.net/DTD/sodipodi-0.dtd"
  xmlns:inkscape="http://www.inkscape.org/namespaces/inkscape"
  version="1.1"
  id="Layer_1"
  x="0px"
  y="0px"
  width="512"
  height="384"
  viewBox="0 0 512 384"
  enable-background="new 0 0 512 512"
  xml:space="preserve"
  inkscape:version="0.91 r13725"
  sodipodi:docname="cloud.svg">
  <metadata id="metadata15">
    <rdf:RDF>
      <cc:Work rdf:about="">
        <dc:format>image/svg+xml</dc:format><dc:type rdf:resource="http://purl.org/dc/dcmitype/StillImage"/>
        <dc:title></dc:title>
      </cc:Work>
    </rdf:RDF>
  </metadata><defs id="defs13"/><sodipodi:namedview
    pagecolor="#ffffff"
    bordercolor="#666666"
    borderopacity="1"
    objecttolerance="10"
    gridtolerance="10"
    guidetolerance="10"
    inkscape:pageopacity="0"
    inkscape:pageshadow="2"
    inkscape:window-width="1280"
    inkscape:window-height="700"
    id="namedview11"
    showgrid="false"
    inkscape:zoom="0.4609375"
    inkscape:cx="256"
    inkscape:cy="301.55932"
    inkscape:window-x="0"
    inkscape:window-y="1"
    inkscape:window-maximized="1"
    inkscape:current-layer="Layer_1"
    showguides="false"
    fit-margin-top="0"
    fit-margin-left="0"
    fit-margin-right="0"
    fit-margin-bottom="0"/>
  <path
    inkscape:connector-curvature="0"
    id="path5"
    d="M 446.844,144.875 C 447.625,139.313 448,133.656 448,128 448,57.438 390.594,0 320,0 279.062,0 241.469,19.344 217.656,51.063 209.25,49.031 200.688,48 192,48 130.25,48 80,98.25 80,160 c 0,1.563 0.031,3.094 0.094,4.625 C 33.813,178.375 0,221.313 0,272 0,333.75 50.25,384 112,384 l 272,0 c 70.594,0 128,-57.406 128,-128 0,-46.656 -25.656,-88.812 -65.156,-111.125 z M 384,352 112,352 c -44.188,0 -80,-35.813 -80,-80 0,-44.187 35.813,-80 80,-80 2.438,0 4.75,0.5 7.125,0.719 -4.5,-10 -7.125,-21.031 -7.125,-32.719 0,-44.188 35.813,-80 80,-80 14.438,0 27.813,4.125 39.5,10.813 C 246,56.25 280.156,32 320,32 c 53.031,0 96,42.969 96,96 0,12.625 -2.594,24.625 -7.031,35.688 40.844,11.062 71.031,48 71.031,92.312 0,53.031 -42.969,96 -96,96 z"
    style="fill:white"/>
  <text x="110" y="290" fill="white" style="font-size: 4rem;font-weight: 600;">HL2 cloud</text>
</svg>
