<?xml version="1.0" encoding="UTF-8" standalone="no"?>
<svg
   xmlns:svg="http://www.w3.org/2000/svg"
   xmlns="http://www.w3.org/2000/svg"
   viewBox="0 0 960 210"
   height="30"
   width="136.363636"
   id="HL2_logo_svg"
   version="1.1">
   <g
     transform="matrix(1.3333333,0,0,-1.3333333,0,228.81333)"
     id="g10">
     <g
       transform="scale(0.1)"
       id="g12">
       <path
         id="path14"
         style="fill:#abaaaa;fill-opacity:1;fill-rule:nonzero;stroke:none"
         d="m 4267.11,812.031 c -34.44,-13.183 -68.72,-19.746 -102.9,-19.746 -63.82,0 -109.51,20.242 -137.03,60.809 -27.54,40.531 -41.29,100.097 -41.29,178.656 0,82.75 18.56,145.85 55.69,189.31 37.13,43.47 87.99,65.22 152.65,65.22 26.7,0 53.46,-3.03 80.38,-9.09 26.91,-6.06 56.01,-16.23 87.28,-30.4 V 865 c -28.77,-22.16 -60.37,-39.816 -94.78,-52.969 z m 212.77,560.259 h -110.47 l -7.52,-29.48 c -30.49,16.69 -59.39,29.13 -86.74,37.26 -27.38,8.12 -61.33,12.22 -101.83,12.22 -38.44,0 -77.05,-8.25 -115.86,-24.76 -38.85,-16.49 -71.84,-39.53 -98.99,-69.15 -29.24,-31.72 -52.3,-69.38 -69.22,-113 -16.91,-43.63 -25.35,-95.47 -25.35,-155.54 0,-109.774 24.53,-194.813 73.6,-255.125 49.06,-60.313 115.35,-90.426 198.9,-90.426 50.08,0 91.29,6.961 123.67,20.965 32.39,13.965 66.33,35.156 101.82,63.523 V 705.34 c 0,-28.18 -3.12,-53.66 -9.37,-76.492 -6.25,-22.793 -16.7,-42.285 -31.27,-58.457 -14.61,-17.012 -35.04,-30.274 -61.29,-39.825 -26.29,-9.511 -59.46,-14.277 -99.46,-14.277 -41.68,0 -83.36,5.508 -125.04,16.406 -41.69,10.977 -72.14,20.157 -91.32,27.578 h -6.25 v -120 c 34.18,-9.55 68.94,-16.953 104.18,-22.187 35.27,-5.176 71.48,-7.813 108.59,-7.813 111.84,0 194.67,27.735 248.48,83.086 53.82,55.391 80.74,142.227 80.74,260.489 v 618.442" />
       <path
         id="path16"
         style="fill:#abaaaa;fill-opacity:1;fill-rule:nonzero;stroke:none"
         d="m 5083.39,1244.29 h -6.25 c -17.5,4.17 -34.49,7.25 -50.93,9.15 -16.45,1.87 -35.9,2.84 -58.4,2.84 -36.25,0 -71.23,-8.03 -104.98,-24.07 -33.75,-16.05 -66.23,-36.77 -97.44,-62.21 V 674.289 h -118.01 v 698.001 h 118.01 v -103.1 c 46.64,37.47 87.75,64.03 123.38,79.66 35.62,15.62 71.97,23.44 109.04,23.44 20.39,0 35.17,-0.54 44.33,-1.57 9.15,-1.06 22.9,-3.04 41.25,-5.93 v -120.5" />
       <path
         id="path18"
         style="fill:#abaaaa;fill-opacity:1;fill-rule:nonzero;stroke:none"
         d="m 5518,823.41 c -35.46,-44.746 -84.29,-67.133 -146.48,-67.133 -63.07,0 -112.19,22.571 -147.44,67.758 -35.26,45.184 -52.87,111.504 -52.87,198.935 0,90.34 17.5,157.47 52.56,201.41 35.02,43.93 84.27,65.91 147.75,65.91 62.62,0 111.56,-21.98 146.8,-65.91 35.27,-43.94 52.89,-111.07 52.89,-201.41 0,-88.282 -17.76,-154.818 -53.21,-199.56 z m 87.74,469.66 c -58.32,66.12 -136.37,99.22 -234.22,99.22 -98.69,0 -177.11,-33.1 -235.2,-99.22 -58.08,-66.17 -87.11,-156.19 -87.11,-270.1 0,-113.935 29.03,-203.841 87.11,-269.779 58.09,-65.937 136.51,-98.902 235.2,-98.902 97.85,0 175.9,32.965 234.22,98.902 58.32,65.938 87.46,155.844 87.46,269.779 0,113.91 -29.14,203.93 -87.46,270.1" />
       <path
         id="path20"
         style="fill:#abaaaa;fill-opacity:1;fill-rule:nonzero;stroke:none"
         d="m 6390.07,674.289 h -118 v 76.93 c -39.55,-31.278 -77.46,-55.254 -113.68,-71.93 -36.25,-16.66 -76.21,-25 -119.94,-25 -73.3,0 -130.33,22.399 -171.15,67.215 -40.82,44.812 -61.21,110.594 -61.21,197.344 v 453.442 h 117.99 V 974.531 c 0,-35.441 1.66,-65.781 4.98,-90.996 3.3,-25.226 10.39,-46.785 21.21,-64.719 11.21,-18.378 25.78,-31.718 43.65,-40.039 17.87,-8.339 43.85,-12.5 77.97,-12.5 30.33,0 63.5,7.911 99.47,23.75 35.94,15.852 69.53,36.067 100.71,60.696 v 521.567 h 118 V 674.289" />
       <path
         id="path22"
         style="fill:#abaaaa;fill-opacity:1;fill-rule:nonzero;stroke:none"
         d="m 6997.03,830.809 c -36.72,-44.375 -87.82,-66.52 -153.28,-66.52 -30.45,0 -57.66,2.715 -81.64,8.152 -23.99,5.438 -52.66,15.684 -86.02,30.75 v 397.379 c 31.25,23.83 63.98,43.09 98.2,57.74 34.18,14.63 68.21,21.98 101.98,21.98 59.62,0 103.84,-20.95 132.63,-62.79 28.77,-41.87 43.17,-105.06 43.17,-189.56 0,-87.061 -18.36,-152.756 -55.04,-197.131 z m 106.58,465.781 c -47.01,63.79 -112.66,95.7 -197.01,95.7 -44.26,0 -85.94,-8.91 -125,-26.66 -39.06,-17.79 -74.22,-39.85 -105.51,-66.19 v 72.85 H 6558.08 V 416.289 h 118.01 v 290.926 c 30.47,-16.746 60.43,-29.09 89.86,-37.031 29.44,-7.899 62.35,-11.903 98.69,-11.903 41.76,0 81.31,8.469 118.68,25.41 37.38,16.934 69.84,40.868 97.42,71.848 29.61,32.613 52.58,72.43 68.9,119.488 16.29,47.032 24.44,99.008 24.44,155.913 0,113.31 -23.5,201.87 -70.47,265.65" />
       <path
         id="path24"
         style="fill:#c5c3c4;fill-opacity:1;fill-rule:nonzero;stroke:none"
         d="M 1387.48,2.57813 C 1426.21,143.281 1438.09,293.828 1417.95,447.617 1337.09,1064.44 771.492,1499 154.668,1418.11 102.09,1411.24 50.8516,1400.81 1.14453,1387.18 l 2.04688,0.93 C 79.7656,1417.21 160.879,1437.9 245.605,1449.01 833.047,1526 1371.72,1112.2 1448.71,524.766 1472.79,340.898 1448.83,161.914 1386.54,0.195313 l 0.94,2.382817" />
       <path
         id="path26"
         style="fill:#e6e5e6;fill-opacity:1;fill-rule:nonzero;stroke:none"
         d="M 1178.36,2.03125 C 1211.31,121.641 1221.41,249.609 1204.28,380.313 1135.55,904.621 654.797,1273.97 130.488,1205.25 85.8008,1199.4 42.2461,1190.54 0,1178.93 l 1.73828,0.82 C 66.8242,1204.46 135.773,1222.06 207.781,1231.5 707.117,1296.94 1164.98,945.207 1230.43,445.898 1250.9,289.609 1230.53,137.461 1177.58,0 l 0.78,2.03125" />
       <path
         id="path28"
         style="fill:#1b458f;fill-opacity:1;fill-rule:nonzero;stroke:none"
         d="m 2152.4,674.289 h -124 v 456.001 h -462 V 674.289 h -124 v 930.001 h 124 v -364 h 462 v 364 h 124 V 674.289" />
       <path
         id="path30"
         style="fill:#1b458f;fill-opacity:1;fill-rule:nonzero;stroke:none"
         d="m 2878.77,674.289 h -538.5 v 930.001 h 124.01 V 784.289 h 414.49 v -110" />
       <path
         id="path32"
         style="fill:#1b458f;fill-opacity:1;fill-rule:nonzero;stroke:none"
         d="m 3592.77,674.289 h -630 v 131.746 c 43.81,37.43 87.76,74.875 131.82,112.313 44.02,37.433 85.03,74.691 123.03,111.752 80.15,77.37 135.06,138.87 164.68,184.43 29.63,45.57 44.48,94.76 44.48,147.6 0,48.25 -15.94,86.02 -47.82,113.28 -31.87,27.25 -76.37,40.87 -133.43,40.87 -37.94,0 -78.98,-6.75 -123.13,-20.19 -44.19,-13.46 -87.31,-34.06 -129.37,-61.8 h -6.25 v 131.67 c 29.49,14.63 68.86,28.01 118.12,40.13 49.25,12.13 96.94,18.2 143.06,18.2 95.15,0 169.75,-23.01 223.78,-68.98 54,-45.99 81.03,-108.31 81.03,-186.93 0,-35.38 -4.5,-68.38 -13.43,-98.94 -8.94,-30.59 -22.16,-59.63 -39.63,-87.06 -16.25,-25.82 -35.28,-51.19 -57.12,-76.16 -21.88,-24.97 -48.41,-52.63 -79.6,-83 -44.56,-43.689 -90.56,-86.032 -138,-127.029 -47.43,-41.007 -91.78,-78.976 -132.97,-113.906 h 500.75 V 674.289" />
       <path
         id="path34"
         style="fill:#abaaaa;fill-opacity:1;fill-rule:nonzero;stroke:none"
         d="M 290.715,1705.36 C 191.023,1692.34 95.5742,1668.04 5.48047,1633.92 l -2.40625,-1.12 c 58.46878,15.98 118.78078,28.25 180.63678,36.31 481.926,62.86 936.899,-141.8 1216.059,-498.8 v 119.4 c -268.33,303.08 -677.426,471.95 -1109.055,415.65" />
       <path
         id="path36"
         style="fill:#abaaaa;fill-opacity:1;fill-rule:nonzero;stroke:none"
         d="m 1631.99,0.078125 1.1,2.812505 c 0.05,0.15625 0.09,0.35156 0.13,0.54687 -0.42,-1.13281 -0.8,-2.24609 -1.23,-3.359375" />
       <path
         id="path38"
         style="fill:#abaaaa;fill-opacity:1;fill-rule:nonzero;stroke:none"
         d="m 1705.47,617.188 c -18.39,140.964 -59.7,273.242 -119.17,394.072 V 845.977 c 39.98,-100.469 68.29,-207.442 82.92,-319.571 23.56,-180.742 9.53,-357.656 -36,-522.9685 72.42,189.3165 100.29,398.6525 72.25,613.7505" />
     </g>
   </g>
</svg>
