<?xml version="1.0" encoding="utf-8"?>
<!-- Generator: Adobe Illustrator 19.2.1, SVG Export Plug-In . SVG Version: 6.00 Build 0)  -->
<svg version="1.1" id="Calque_1" xmlns="http://www.w3.org/2000/svg" xmlns:xlink="http://www.w3.org/1999/xlink" x="0px" y="0px"
	 viewBox="0 0 417.7 380" style="enable-background:new 0 0 417.7 380;" xml:space="preserve">
<style type="text/css">
	.st0{fill:url(#SVGID_1_);}
	.st1{fill:#FFFFFF;}
	.st2{fill:#FFFFFF;stroke:#FFFFFF;stroke-width:0.5271;}
	.st3{fill:#FFFFFF;stroke:#FFFFFF;stroke-width:1.0542;stroke-miterlimit:10;}
	.st4{fill:#1D1D1B;}
</style>
<g>
	<circle class="st1" cx="212.2" cy="127.1" r="36.8"/>
	<path class="st1" d="M259.9,165.3c0.7,0.5,1.6,0.8,2.4,0.8c1.3,0,2.6-0.6,3.5-1.8c7.6-11,11.6-23.8,11.6-37.2
		c0-32.7-24.2-59.8-55.6-64.5c-1.4-4-5.2-6.8-9.7-6.8c-5.7,0-10.3,4.6-10.3,10.3s4.6,10.3,10.3,10.3c3.9,0,7.3-2.2,9-5.4
		c27.1,4.3,47.8,27.8,47.8,56.1c0,11.7-3.5,22.9-10.1,32.4C257.5,161.4,258,164,259.9,165.3z"/>
	<path class="st1" d="M222,191.6c1.9,2.2,4.7,3.6,7.8,3.6c5.7,0,10.3-4.6,10.3-10.3c0-5.7-4.6-10.3-10.3-10.3
		c-5.2,0-9.5,3.8-10.2,8.8c-2.5,0.3-5,0.5-7.5,0.5c-31.3,0-56.8-25.5-56.8-56.8c0-11.4,3.4-22.4,9.7-31.8c1.3-1.9,0.8-4.5-1.1-5.9
		c-1.9-1.3-4.5-0.8-5.9,1.1c-7.3,10.8-11.1,23.4-11.1,36.5c0,36,29.3,65.3,65.3,65.3C215.5,192.3,218.8,192.1,222,191.6z"/>
	<path class="st1" d="M133.8,127.1c0-12.6,3-24.9,8.8-36c0.4,0,0.7,0.1,1.1,0.1c5.7,0,10.3-4.6,10.3-10.3c0-5.7-4.6-10.3-10.3-10.3
		c-5.7,0-10.3,4.6-10.3,10.3c0,2.2,0.7,4.2,1.9,5.9c-6.5,12.4-9.9,26.1-9.9,40.3c0,17.1,5,33.7,14.4,47.9c0.8,1.2,2.2,1.9,3.5,1.9
		c0.8,0,1.6-0.2,2.3-0.7c1.9-1.3,2.5-3.9,1.2-5.8C138.3,157.5,133.8,142.5,133.8,127.1z"/>
	<path class="st1" d="M212.2,40.2c-14.2,0-28.4,3.5-40.8,10.2c-2.1,1.1-2.8,3.7-1.7,5.7c1.1,2.1,3.6,2.8,5.7,1.7
		c11.3-6,24-9.2,36.9-9.2c43.2,0,78.4,35.2,78.4,78.4s-35.2,78.4-78.4,78.4c-9.3,0-18.3-1.6-26.9-4.7c-2.2-0.8-4.6,0.3-5.4,2.5
		c-0.8,2.2,0.3,4.6,2.5,5.4c9.5,3.5,19.6,5.3,29.8,5.3c47.9,0,86.8-39,86.8-86.8C299,79.2,260,40.2,212.2,40.2z"/>
</g>
<g>
	<g>
		<path class="st1" d="M91.7,246.9c-0.6-1.7-1.5-3.1-2.8-4.2l0,0c-1.2-1.1-2.9-2-4.8-2.7c-1.9-0.6-4.2-0.9-6.9-0.9h-9
			c-2.1,0-3.7,0.6-4.8,1.8c-1,1.2-1.6,2.7-1.6,4.5v36.2h8.9v-15.9h6.4c5.3,0,9.3-1.2,11.7-3.7c2.4-2.4,3.6-5.7,3.6-9.7
			C92.5,250.3,92.2,248.5,91.7,246.9z M83.6,252.3c0,1.7-0.5,3.2-1.4,4.2h0c-0.9,1-2.6,1.5-5.1,1.5h-6.4v-11.4h6.4
			c2.5,0,4.2,0.5,5.1,1.5C83.2,249.2,83.6,250.6,83.6,252.3z"/>
		<path class="st1" d="M116.2,240.9c-1.7-1.5-4-2.2-6.8-2.2c-2.9,0-5.2,0.7-6.9,2.2c-1.7,1.4-2.9,3.5-3.4,6l-6.9,34.6h8.8l2.2-11.3
			h12.4l2.2,11.3h8.8l-7-34.6C119,244.4,117.9,242.4,116.2,240.9z M108.2,246.8c0.3-0.4,0.6-0.6,1.2-0.6c0.5,0,0.8,0.2,1.1,0.6
			c0.4,0.5,0.6,1.2,0.8,2l2.8,13.9h-9.5l2.8-13.9C107.5,248,107.8,247.3,108.2,246.8z"/>
		<path class="st1" d="M155.2,267.4l-11.2-24.2c-0.7-1.4-1.5-2.5-2.6-3.3c-1.1-0.8-2.6-1.3-4.6-1.3c-2,0-3.7,0.6-4.9,1.7
			c-1.2,1.1-1.9,2.7-1.9,4.6v36.6h8.9v-28.5l11.2,24.2c0.7,1.4,1.5,2.5,2.6,3.4c1.1,0.9,2.6,1.3,4.6,1.3c2.1,0,3.7-0.6,4.9-1.7
			c1.2-1.1,1.8-2.7,1.8-4.6V239h-8.9V267.4z"/>
		<path class="st1" d="M186.5,238.8c-6,0-10.5,1.9-13.4,5.5c-2.8,3.6-4.2,8.9-4.2,15.8c0,6.9,1.4,12.3,4.3,16.1
			c2.9,3.8,7.4,5.8,13.3,5.8c6,0,10.4-1.9,13.3-5.8c2.8-3.8,4.2-9.2,4.2-16.1c0-6.9-1.4-12.2-4.2-15.8
			C196.9,240.6,192.5,238.8,186.5,238.8z M179.8,249.5c1.3-2.2,3.5-3.3,6.6-3.3c3.1,0,5.3,1.1,6.6,3.3c1.4,2.3,2.1,5.9,2.1,10.6
			c0,4.7-0.7,8.3-2.1,10.8h0c-1.3,2.4-3.5,3.5-6.6,3.5c-3.1,0-5.3-1.1-6.6-3.5c-1.4-2.5-2.1-6.1-2.1-10.8
			C177.7,255.4,178.4,251.8,179.8,249.5z"/>
		<path class="st1" d="M238.6,258.6L238.6,258.6c0.5-0.9,0.8-2,1-3c0.2-1.1,0.3-2.2,0.3-3.3c0-2-0.3-3.8-0.8-5.4
			c-0.6-1.7-1.5-3.1-2.8-4.2c-1.3-1.1-2.9-2-4.8-2.7c-1.9-0.6-4.2-0.9-6.8-0.9h-9c-2.1,0-3.7,0.6-4.7,1.8c-1,1.2-1.5,2.7-1.5,4.5
			v36.2h8.8v-15.9h6.2c2.2,0,3.8,0.6,5,1.9c1.2,1.3,1.8,3.2,1.8,5.9v8.1h8.9V273c0-2.4-0.5-4.6-1.4-6.7c-0.8-1.7-2-3-3.6-4
			c0.6-0.3,1.2-0.7,1.6-1.1C237.5,260.4,238.2,259.6,238.6,258.6z M231.1,252.3c0,1.7-0.5,3.2-1.4,4.2h0c-0.9,1-2.6,1.5-5.1,1.5
			h-6.5v-11.4h6.5c2.5,0,4.2,0.5,5.1,1.5C230.7,249.2,231.1,250.6,231.1,252.3z"/>
		<path class="st1" d="M267.7,240.9c-1.7-1.5-4-2.2-6.8-2.2c-2.9,0-5.2,0.7-6.9,2.2c-1.7,1.4-2.9,3.5-3.4,6l-6.9,34.6h8.8l2.2-11.3
			H267l2.2,11.3h8.8l-7-34.6C270.6,244.4,269.4,242.4,267.7,240.9z M265.6,262.8h-9.5l2.8-13.9c0.2-0.8,0.5-1.5,0.8-2
			c0.3-0.4,0.6-0.6,1.2-0.6c0.5,0,0.8,0.2,1.1,0.6c0.4,0.5,0.6,1.2,0.8,2L265.6,262.8z"/>
		<path class="st1" d="M317.2,238.7c-1.9,0-3.5,0.5-4.6,1.4c-1.1,0.9-2,2.1-2.5,3.7l-7.3,21.5l-7.2-21.5c-0.5-1.6-1.4-2.8-2.6-3.7
			c-1.2-0.9-2.7-1.4-4.6-1.4c-2.1,0-3.7,0.6-4.8,1.7c-1.1,1.1-1.7,2.7-1.7,4.6v36.6h8.9v-25.5l4.7,13.6c0.6,1.6,1.4,3,2.5,3.9
			c1.1,1,2.7,1.5,4.8,1.5c2.1,0,3.7-0.5,4.9-1.5c1.1-0.9,2-2.2,2.5-3.9l4.7-13.4v25.3h8.9v-36.6c0-1.9-0.6-3.4-1.7-4.6
			C320.8,239.3,319.2,238.7,317.2,238.7z"/>
		<path class="st1" d="M355.6,247L355.6,247c-0.5-2.5-1.7-4.6-3.4-6c-1.7-1.5-4-2.2-6.8-2.2c-2.9,0-5.2,0.7-6.9,2.2
			c-1.7,1.4-2.9,3.5-3.4,6l-6.9,34.6h8.8l2.2-11.3h12.4l2.2,11.3h8.8L355.6,247z M344.2,246.8c0.3-0.4,0.6-0.6,1.2-0.6
			c0.5,0,0.8,0.2,1.1,0.6c0.4,0.5,0.6,1.2,0.8,2l2.8,13.9h-9.5l2.8-13.9C343.6,248,343.8,247.3,344.2,246.8z"/>
	</g>
</g>
<g>
	<g>
		<path class="st1" d="M195.5,318.8h-16.2v13.5h-2.6v-31.1h2.6v15.3h16.2v-15.3h2.6v31.1h-2.6V318.8z"/>
		<path class="st1" d="M224.2,332.3h-15.8c-1,0-1.7-0.3-2.2-0.9c-0.5-0.6-0.7-1.4-0.7-2.3v-27.9h2.6v28c0,0.5,0.3,0.8,0.8,0.8h15.3
			V332.3z"/>
		<path class="st1" d="M231.8,330h15.6v2.3h-16.5c-0.7,0-1.3-0.3-1.8-0.7c-0.5-0.5-0.7-1.1-0.7-1.8c0-2.4,0.4-4.4,1.2-6
			c0.8-1.6,1.9-2.9,3.1-3.9c1.2-1,2.6-1.9,4-2.6c1.4-0.7,2.8-1.4,4-2c1.2-0.7,2.3-1.5,3.1-2.4c0.8-0.9,1.2-2,1.2-3.4
			c0-2.1-0.7-3.6-2-4.7c-1.3-1.1-3.3-1.6-5.8-1.6c-1.4,0-2.6,0.2-3.8,0.5c-1.2,0.3-2.2,0.8-3.2,1.6l-1-2.3c0.4-0.3,0.9-0.6,1.5-0.9
			c0.6-0.3,1.2-0.5,2-0.7c0.7-0.2,1.5-0.3,2.3-0.5c0.8-0.1,1.5-0.2,2.3-0.2c3.3,0,5.9,0.7,7.7,2.3c1.8,1.5,2.7,3.6,2.7,6.4
			c0,1.9-0.4,3.4-1.2,4.5c-0.8,1.1-1.9,2.1-3.1,2.8c-1.2,0.8-2.6,1.5-4,2.1c-1.4,0.6-2.8,1.4-4,2.2c-1.2,0.8-2.3,1.9-3.1,3.1
			c-0.8,1.2-1.2,2.9-1.2,4.9c0,0.2,0.1,0.4,0.3,0.6C231.4,329.9,231.6,330,231.8,330z"/>
	</g>
</g>
<rect x="62.8" y="316.4" class="st1" width="103.9" height="2.9"/>
<rect x="261.1" y="316.4" class="st1" width="103.9" height="2.9"/>
</svg>
